<?xml version="1.0" encoding="UTF-8"?><svg xmlns="http://www.w3.org/2000/svg" viewBox="0 0 133.49 126.13"><defs><style>.d,.e,.f,.g{opacity:.25;}.d,.e,.g{mix-blend-mode:multiply;}.d,.h{fill:#36a9e1;}.e,.i{fill:#a3195b;}.j{fill:#fdffff;}.f{fill:#fff;mix-blend-mode:overlay;}.k{fill:#8fdbf9;}.l{isolation:isolate;}.m{fill:#419ab5;}.g,.n{fill:#064570;}</style></defs><g class="l"><g id="b"><g id="c"><path class="m" d="M77.83,126.08s8.83.42,19.29-5.37l-13.26-12.33s-10.03,12.67-6.03,17.69Z"/><path class="k" d="M4.68,32.81S.3,37.39,0,45.42l4.94,1.53,9.43-5.07s1.49-3.96.99-5.79-10.69-3.27-10.69-3.27Z"/><path class="m" d="M110.98,3.28s7.45,2.56,11.32,7.92l-3.8,6.89s-7.25,1.41-7.75,1.24-3.52-6.05-3.52-6.05l3.74-10Z"/><polygon class="k" points="46.99 42.83 83.88 31.28 71.49 64.32 46.99 42.83"/><path class="i" d="M7.61,38.18l44.3,4.98c8.6.97,15.75,7.06,18.07,15.4l16.06,57.71c1.64,5.89-3.85,11.27-9.71,9.52l-42.25-12.66c-4.94-1.48-8.94-5.13-10.88-9.91L.6,47.42c-1.92-4.74,1.93-9.81,7.01-9.24Z"/><path class="e" d="M19.35,93.7l3.86,9.52c1.94,4.78,5.94,8.43,10.88,9.91l42.25,12.66c5.86,1.76,11.35-3.63,9.71-9.52l-16.06-57.71c-1.85-6.66-6.81-11.83-13.1-14.16-3.91,9.8-6.31,20.87-6.81,33.41.67,9.05-15.66,14.15-30.72,15.89Z"/><path class="n" d="M111.53,9.92l-33.18,25.48c-7.37,5.66-10.56,15.23-8.07,24.18l15.46,55.53c1.78,6.39,9.91,8.32,14.37,3.4l29.64-32.68c2.95-3.25,4.26-7.67,3.57-12l-9.4-58.99c-.92-5.81-7.72-8.51-12.38-4.93Z"/><path class="g" d="M122.22,74.25c-4.13,10.59-7.79-2.55-16.18-7.29-7.18-.36-11.31,10.22-18.49,9.86-19.95-3.88-.13-25.91-10.36-37.22-1.54-1.49-2.97-1.7-5.6,4.25-2.24,4.82-2.8,10.38-1.31,15.72l15.46,55.53c1.78,6.39,9.91,8.32,14.37,3.4l29.64-32.68c2.95-3.25,4.26-7.67,3.57-12l-3.12-19.57c-1.42,6.8-3.87,13.47-7.97,19.98Z"/><path class="h" d="M6.95,38.14l46.49,5.41c8.02.89,16.08-1.34,22.5-6.23l37.1-28.4c.61-3.34.08-6.29-5.52-6.1L59.79.01c-4-.15-7.95.95-11.31,3.15L6.35,31.13c-4.17,3.15-2.95,6.01.61,7.01Z"/><path class="d" d="M70.73,24.88c-10.09,14.6-31.26,6.34-48.17,13.41-.63.57-1.11.93-1.86,1.45l32.75,3.81c8.02.89,16.08-1.34,22.5-6.23l37.1-28.4c.61-3.34.08-6.29-5.52-6.1l-25.24-1.48c-3.6,8.32-5.99,17.09-11.56,23.55Z"/><ellipse class="k" cx="24.05" cy="64.29" rx="7.81" ry="11.05" transform="translate(-33.38 26.69) rotate(-36.27)"/><ellipse class="j" cx="25.07" cy="64.01" rx="6.05" ry="8.56" transform="translate(-33.01 27.24) rotate(-36.27)"/><ellipse class="k" cx="57.83" cy="18.07" rx="10.95" ry="7.74" transform="translate(-2.73 16.17) rotate(-15.55)"/><ellipse class="j" cx="58.07" cy="18.92" rx="9.29" ry="6.28" transform="translate(-2.95 16.26) rotate(-15.55)"/><ellipse class="k" cx="59.63" cy="97.82" rx="7.43" ry="10.51" transform="translate(-46.31 54.23) rotate(-36.27)"/><ellipse class="k" cx="90.47" cy="55.9" rx="5.98" ry="8.45" transform="translate(-4.68 8.4) rotate(-5.18)"/><ellipse class="j" cx="89.82" cy="55.24" rx="4.77" ry="6.75" transform="translate(-4.62 8.34) rotate(-5.18)"/><ellipse class="k" cx="112.7" cy="35.89" rx="5.98" ry="8.45" transform="translate(-2.78 10.33) rotate(-5.18)"/><ellipse class="k" cx="100.18" cy="88.03" rx="5.98" ry="8.45" transform="translate(-7.55 9.41) rotate(-5.18)"/><ellipse class="k" cx="120.53" cy="68.41" rx="5.98" ry="8.45" transform="translate(-5.69 11.17) rotate(-5.18)"/><ellipse class="j" cx="60.38" cy="97.27" rx="6.05" ry="8.56" transform="translate(-45.84 54.57) rotate(-36.27)"/><ellipse class="j" cx="112.01" cy="35.35" rx="4.77" ry="6.75" transform="translate(-2.74 10.27) rotate(-5.18)"/><ellipse class="j" cx="99.28" cy="87.57" rx="4.77" ry="6.75" transform="translate(-7.51 9.33) rotate(-5.18)"/><ellipse class="j" cx="119.72" cy="67.68" rx="4.77" ry="6.75" transform="translate(-5.63 11.1) rotate(-5.18)"/><path class="f" d="M12.19,38.21l-5.44-.82s-5.72-1.17,1.76-6.92L49.82,3.29S53.68-.02,61.11.66c0,0-38.94,22.55-48.92,37.55Z"/><path class="f" d="M52.24,44.17l-45.54-4.82s-6.85.66-5.01,7.99l16.52,42.25S-9.91,36.01,52.24,44.17Z"/></g></g></g></svg>