<?xml version="1.0" encoding="UTF-8"?><svg xmlns="http://www.w3.org/2000/svg" xmlns:xlink="http://www.w3.org/1999/xlink" viewBox="0 0 210.9 210.9"><defs><style>.f{fill:#f7f7e8;opacity:.5;}.f,.g,.h{mix-blend-mode:overlay;}.i{fill:url(#d);}.g{fill:#dedc00;}.g,.h{opacity:.25;}.j{isolation:isolate;}.k{fill:url(#e);}.h{fill:#4e1d68;}</style><radialGradient id="d" cx="128.01" cy="72.65" fx="128.01" fy="72.65" r="99.58" gradientUnits="userSpaceOnUse"><stop offset="0" stop-color="#e40136"/><stop offset=".16" stop-color="#d90534"/><stop offset=".43" stop-color="#bd0f32"/><stop offset=".79" stop-color="#8f212d"/><stop offset="1" stop-color="#712d2b"/></radialGradient><radialGradient id="e" cx="96.22" cy="71.64" fx="96.22" fy="71.64" r="92.59" xlink:href="#d"/></defs><g class="j"><g id="b"><g id="c"><circle class="i" cx="105.45" cy="105.45" r="105.45"/><path class="k" d="M0,105.45C0,155.16,34.4,196.83,80.68,207.97c-15.24-23.62-19.89-54.27-14.38-80.41,9.96-54.6,46.21-92.55,92.23-113.24C142.94,5.22,124.81,0,105.45,0,47.21,0,0,47.21,0,105.45Z"/><path class="h" d="M200.33,137.42c-14.35,17.89-32.74,30.97-54.19,35.36-34.9,7.31-68.83,3.55-91.9-26.69-18.94-24.83-38.96-55.36-29.22-90.73.81-1.61,11.24-23.49,10.43-25.12-12.56,11.22-20.53,29.44-26.32,45.62-4.61,16.4-3.05,35.57,1.03,50.75,5.64,21.02,9.13,29.55,22.55,43.57.81.81,18.15,17.13,18.97,17.94,30.75,16.4,45.45,20.19,77.91,12.89,14.47-3.52,30.75-9.3,41.07-18.33,13.6-12,23.99-27.57,29.66-45.25Z"/><ellipse class="g" cx="142.05" cy="33.5" rx="20.3" ry="42.29" transform="translate(48.55 145.57) rotate(-63.43)"/><ellipse class="f" cx="136.54" cy="25.53" rx="11.64" ry="17.59" transform="translate(52.63 136.24) rotate(-63.43)"/></g></g></g></svg>