<?xml version="1.0" encoding="UTF-8"?><svg xmlns="http://www.w3.org/2000/svg" viewBox="0 0 94.28 122.85"><defs><style>.d{fill:#fff;mix-blend-mode:overlay;opacity:.25;}.e{isolation:isolate;}.f{fill:#36a9e1;}.g{fill:#064570;}.h{fill:#d32272;}.i{fill:#d37816;}</style></defs><g class="e"><g id="b"><g id="c"><rect class="g" width="94.28" height="122.85" rx="6.3" ry="6.3"/><path class="i" d="M23.07,79.8c-7.08,1.25-15.74,3.44-20.13,9.78v24.31c0,3.3,2.63,6.01,5.85,6.01h75.8c3.22,0,5.85-2.7,5.85-6.01v-43.06c-9,5.28-19.28,8.26-29.41,9.24-12.65,1.35-25.05-2.17-37.96-.27Z"/><path class="h" d="M47.06,46.22c7.91-.54,15.55-4.87,22.94-8.94,6.6-3.62,13.44-6.03,20.45-7.5V8.8c0-3.3-2.63-6.01-5.85-6.01H8.79c-3.22,0-5.85,2.7-5.85,6.01v44.64c11.53-9.67,29.66-6.06,44.12-7.22Z"/><path class="g" d="M50.08,78.72l-7.89-.76.35-2.62-3.28,1c-1.33.4-2.3,1.55-2.48,2.92l-.69,5.24-.37,2.81c-.22,1.63.93,3.12,2.56,3.34l1.6.21,6.36.84c1.31.17,2.61-.34,3.45-1.36l2.28-2.79-5.67-1.86,3.8-6.97Z"/><path class="g" d="M67.21,28.71c-3.87-5.05-9.51-8.52-16.27-9.42-5.99-.79-11.63.66-16.59,3.77-3.9,2.54-6.88,5.92-8.79,10.11-.85,1.85.17,4.03,2.13,4.59l7.98,2.29c.73.21,1.52.01,2.07-.52l2.86-2.77-2.48.76c.85-1.36,2-2.53,3.47-3.52,2.28-1.52,4.82-2.09,7.62-1.71,3.06.41,5.58,1.91,7.47,4.36,1.77,2.31,2.67,5.28,2.27,8.34-.42,3.19-1.92,5.71-4.38,7.59-2.45,1.88-2.61,1.88-5.79,1.46l-2.15-1.65-2.13.03-2.78.84c-1.2.36-2.08,1.4-2.25,2.64l-.61,4.58-.16,1.21-1.07,8.04c-.2,1.51.86,2.89,2.37,3.09l.89.12,7.49.99c1.18.16,2.36-.3,3.13-1.21l2.29-2.72-4.74-1.32,2.06-.87c4.36-.59,8.22-2.28,11.54-4.83,5.05-3.87,8.52-9.51,9.42-16.26.88-6.63-1.01-12.98-4.88-18.03Z"/><path class="f" d="M31.54,35.64c-2.09-.6-3.2-2.93-2.27-4.9,1.92-4.07,4.85-7.38,8.68-9.87,4.95-3.11,10.59-4.56,16.59-3.77,6.76.9,12.39,4.37,16.27,9.42,3.87,5.05,5.76,11.4,4.88,18.03-.89,6.76-4.37,12.39-9.42,16.26-2.7,2.07-5.74,3.57-9.13,4.38-1.45.35-2.55,1.52-2.75,3l-.04.29c-.26,1.95-2.05,3.32-4,3.06l-5.94-.79c-1.95-.26-3.32-2.05-3.06-4l1.12-8.45.41-3.1c.26-1.95,2.05-3.32,4-3.06l2.97.39c3.19.42,5.87-.26,8.33-2.14,2.45-1.88,3.96-4.41,4.38-7.59.41-3.06-.5-6.03-2.27-8.34-1.88-2.45-4.41-3.96-7.47-4.36-2.81-.37-5.35.2-7.62,1.71-1.57,1.05-2.78,2.32-3.65,3.79-.84,1.44-2.5,2.18-4.1,1.72l-5.9-1.69ZM39.37,84.53l.82-6.19c.26-1.95,2.05-3.32,4-3.06l5.94.79c1.95.26,3.32,2.05,3.06,4l-.82,6.19c-.26,1.95-2.05,3.32-4,3.06l-5.94-.79c-1.95-.26-3.32-2.05-3.06-4Z"/><path class="d" d="M34.62,35.54l-3.23-.94c-1.44-.42-2.17-1.99-1.59-3.38,1.94-4.65,7.89-13.69,24.85-13.24,0,0-17.65.09-20.03,17.56Z"/><path class="d" d="M41.79,69.6l2.27-17.14,7,.93s7.44.9,11.06-6.28c0,0-1.44,8.88-13.29,7.67,0,0-3.51-.38-7.03,14.82Z"/><path class="d" d="M52.37,77.05l-10.93-1.45-1.52,11.45s.53-11.41,12.45-10.01Z"/></g></g></g></svg>