<?xml version="1.0" encoding="UTF-8"?><svg id="b" xmlns="http://www.w3.org/2000/svg" viewBox="0 0 332.72 462.27"><defs><style>.d{fill:#498187;}.e{fill:#5dc1c1;}.f{fill:#4c9093;}.g{fill:#3b6f72;opacity:.5;}.h{fill:#4fb2b7;}</style></defs><g id="c"><path class="d" d="M280.35,22.22H58.45L0,421.1c0,22.74,74.48,41.17,166.36,41.17s166.36-18.43,166.36-41.17L280.35,22.22Z"/><path class="f" d="M254.14,22.22h-79.23c2.06,7,5.37,13.01,16.18,13.01-17.36,52.08,17.36,86.8,34.72,121.52,21.15,98.7,2.22,203.13-14.94,303.99,34.56-2.37,64.57-7.44,86.18-14.21,5.14-143.25-33.85-282.79-42.91-424.31Z"/><path class="g" d="M109.42,429.89c-7.82-8.58,23.47-68.63,31.3-102.94,0-34.31-70.42-25.74-46.95-77.21,15.65-25.74,39.12-42.89,62.6-60.05-54.77-25.74-54.77-68.63-7.82-111.52-23.47-8.58-54.77-17.16-39.12-42.89,3.58-3.93,6.74-8.33,9.78-12.85h-51.1L15.42,416.63c0,20.6,56.51,37.59,129.74,40.27-12.82-7.66-24.88-16.44-35.73-27.01Z"/><ellipse class="h" cx="169.4" cy="22.22" rx="110.95" ry="22.22"/><ellipse class="g" cx="169.19" cy="22.22" rx="90.73" ry="15.85"/><ellipse class="e" cx="168.1" cy="23.64" rx="86.04" ry="14.42"/><path class="e" d="M284.03,450.21s-21.83-317.65-40.15-407.15c0,0-6.13,1.04-13.22,2.01-6.65.91-11.38,6.94-10.68,13.62,2.13,20.42,8.4,62.09,25.58,91.66,23.58,40.58,20.23,247.68,8.58,305.67l29.89-5.82Z"/></g></svg>