<?xml version="1.0" encoding="UTF-8"?>
<svg id="b" xmlns="http://www.w3.org/2000/svg" version="1.1" viewBox="0 0 241.6 78.9">
  <!-- Generator: Adobe Illustrator 29.5.1, SVG Export Plug-In . SVG Version: 2.1.0 Build 141)  -->
  <defs>
    <style>
      .st0 {
        fill: #d69a13;
      }

      .st1 {
        fill: #edb23e;
      }

      .st2 {
        fill: #823884;
      }

      .st3 {
        isolation: isolate;
      }

      .st4 {
        fill: #064570;
      }
    </style>
  </defs>
  <rect class="st0" width="241.6" height="78.9" rx="10.6" ry="10.6"/>
  <path class="st1" d="M228,2.7H12.5C6.8,2.7,2.1,7.2,2.1,12.8v22.6c11.7-4.2,24.9-4.7,37.3-2.9,66.4,8.1,134.9,31.9,199,19.7V12.8c0-5.6-4.7-10.1-10.4-10.1h0Z"/>
  <g class="st3">
    <g class="st3">
      <path class="st2" d="M90.8,13.6v6.6c-.6-.8-1.3-1.3-2.1-1.7-.9-.4-1.8-.6-2.7-.6-1.7,0-3,.6-4.1,1.7-1.1,1.1-1.6,2.5-1.6,4.2s.5,3.1,1.6,4.2c1.1,1.1,2.4,1.6,4.2,1.6s1.8-.2,2.6-.6c.8-.4,1.6-1,2.1-1.6v6.6c-2.1.7-3.8,1-4.9,1-3,0-5.7-1-8-3.1-2.3-2-3.4-4.7-3.4-8s1-5.6,3.1-7.8c1.1-1.1,2.3-1.9,3.7-2.5s2.9-.9,4.4-.9,3.3.4,5,1.1Z"/>
      <path class="st2" d="M99.7,13.1v21.2h-5.5V13.1h5.5Z"/>
      <path class="st2" d="M115.4,17.8h-6.6v3.5h6.2v4.7h-6.2v3.7h6.6v4.7h-12.1V13.1h12.1v4.7Z"/>
      <path class="st2" d="M118.8,34.4V13.1h5.5l10.1,13h0v-13h5.5v21.2h-5.5l-10.1-13h0v13h-5.5Z"/>
      <path class="st2" d="M158.8,13.6v6.6c-.6-.8-1.3-1.3-2.1-1.7-.9-.4-1.8-.6-2.7-.6-1.7,0-3,.6-4.1,1.7-1.1,1.1-1.6,2.5-1.6,4.2s.5,3.1,1.6,4.2c1.1,1.1,2.4,1.6,4.2,1.6s1.8-.2,2.6-.6c.8-.4,1.6-1,2.1-1.6v6.6c-2.1.7-3.8,1-4.9,1-3,0-5.7-1-8-3.1-2.3-2-3.4-4.7-3.4-8s1-5.6,3.1-7.8c1.1-1.1,2.3-1.9,3.7-2.5,1.4-.6,2.9-.9,4.4-.9s3.3.4,5,1.1Z"/>
      <path class="st2" d="M167.7,13.1v21.2h-5.5V13.1h5.5Z"/>
      <path class="st2" d="M184.4,30.7h-7.6l-1.5,3.7h-5.9l8.2-21.2h6l8,21.2h-5.9l-1.4-3.7ZM182.9,26.5l-2.3-6.8h0l-2.3,6.8h4.6Z"/>
      <path class="st2" d="M207.2,14.3l-2.2,4.3c-1.1-.9-2.3-1.4-3.7-1.4s-1.1.2-1.6.5c-.5.3-.7.8-.7,1.3s.2.7.5,1c.3.3.6.5.9.6.3.1.6.2,1.1.4l1.4.4c1.7.5,2.9,1.2,3.9,2.1.9.9,1.4,2.1,1.4,3.7,0,2.6-.7,4.5-2.2,5.7-1.6,1.3-3.6,2-6,2s-5.2-.8-7.5-2.4l2.4-4.5c1.7,1.5,3.3,2.2,4.9,2.2s1.3-.2,1.9-.5.8-.9.8-1.6-.9-1.7-2.7-2.2c0,0-.3,0-.7-.2-1-.3-1.8-.5-2.4-.8-.6-.2-1.2-.6-1.7-1s-1-1-1.2-1.7c-.2-.7-.4-1.5-.4-2.5,0-2.1.7-3.9,2.1-5.2,1.4-1.3,3.1-2,5.3-2s2.2.2,3.4.5c1.2.3,2.3.7,3.2,1.3Z"/>
    </g>
    <g class="st3">
      <path class="st2" d="M84.1,68.2h-8.5v-21.2h7.9c4.2,0,6.3,1.8,6.3,5.5s-.8,3.5-2.3,4.3h0c2.9.4,4.3,2.2,4.3,5.5s-.2,2-.6,2.8-1,1.4-1.8,1.8c-.7.4-1.5.8-2.4,1-.9.2-1.8.3-2.9.3ZM81.1,51.2v4.1h.6c.9,0,1.6-.1,2.2-.4.5-.3.8-.8.8-1.6s0-.8-.3-1.1c-.2-.3-.4-.5-.8-.6-.4-.1-.7-.2-1-.2-.3,0-.7,0-1.2,0h-.4ZM81.1,59.4v4.6h1.6c.2,0,.5,0,.9,0,.5,0,.8-.1,1-.2.2,0,.5-.2.8-.4.3-.2.5-.4.6-.6s.2-.6.2-1,0-.5,0-.8c0-.2-.2-.4-.3-.6-.1-.2-.3-.3-.4-.4-.1-.1-.3-.2-.5-.3-.3,0-.4-.1-.6-.2-.1,0-.4,0-.7,0s-.5,0-.6,0h-1.9Z"/>
      <path class="st2" d="M107.7,64.5h-7.6l-1.5,3.7h-5.9l8.2-21.2h6l8,21.2h-5.9l-1.4-3.7ZM108,41.4l-4.8,4.3-2.3-1.7,4-4.8,3.1,2.3ZM106.2,60.3l-2.3-6.8h0l-2.3,6.8h4.6Z"/>
      <path class="st2" d="M130.5,48.1l-2.2,4.3c-1.1-.9-2.3-1.4-3.7-1.4s-1.1.2-1.6.5c-.5.3-.7.8-.7,1.3s.2.7.5,1c.3.3.6.5.9.6.3.1.6.2,1.1.4l1.4.4c1.7.5,2.9,1.2,3.9,2.1.9.9,1.4,2.1,1.4,3.7,0,2.6-.7,4.5-2.2,5.7-1.6,1.3-3.6,2-6,2s-5.2-.8-7.5-2.4l2.4-4.5c1.7,1.5,3.3,2.2,4.9,2.2s1.3-.2,1.9-.5.8-.9.8-1.6-.9-1.7-2.7-2.2c0,0-.3,0-.7-.2-1-.3-1.8-.5-2.4-.8-.6-.2-1.2-.6-1.7-1-.6-.4-1-1-1.2-1.7-.2-.7-.4-1.5-.4-2.5,0-2.1.7-3.9,2.1-5.2,1.4-1.3,3.1-2,5.3-2s2.2.2,3.4.5c1.2.3,2.3.7,3.2,1.3Z"/>
      <path class="st2" d="M139.5,46.9v21.2h-5.5v-21.2h5.5Z"/>
      <path class="st2" d="M158.3,47.4v6.6c-.6-.8-1.3-1.3-2.1-1.7-.9-.4-1.8-.6-2.7-.6-1.7,0-3,.6-4.1,1.7-1.1,1.1-1.6,2.5-1.6,4.2s.5,3.1,1.6,4.2c1.1,1.1,2.4,1.6,4.2,1.6s1.8-.2,2.6-.6c.8-.4,1.6-1,2.1-1.6v6.6c-2.1.7-3.8,1-4.9,1-3,0-5.7-1-8-3.1-2.3-2-3.4-4.7-3.4-8s1-5.6,3.1-7.8c1.1-1.1,2.3-1.9,3.7-2.5,1.4-.6,2.9-.9,4.4-.9s3.3.4,5,1.1Z"/>
      <path class="st2" d="M174.8,64.5h-7.6l-1.5,3.7h-5.9l8.2-21.2h6l8,21.2h-5.9l-1.4-3.7ZM173.3,60.3l-2.3-6.8h0l-2.3,6.8h4.6Z"/>
      <path class="st2" d="M197.6,48.1l-2.2,4.3c-1.1-.9-2.3-1.4-3.7-1.4s-1.1.2-1.6.5c-.5.3-.7.8-.7,1.3s.2.7.5,1c.3.3.6.5.9.6.3.1.6.2,1.1.4l1.4.4c1.7.5,2.9,1.2,3.9,2.1.9.9,1.4,2.1,1.4,3.7,0,2.6-.7,4.5-2.2,5.7-1.6,1.3-3.6,2-6,2s-5.2-.8-7.5-2.4l2.4-4.5c1.7,1.5,3.3,2.2,4.9,2.2s1.3-.2,1.9-.5.8-.9.8-1.6-.9-1.7-2.7-2.2c0,0-.3,0-.7-.2-1-.3-1.8-.5-2.4-.8-.6-.2-1.2-.6-1.7-1s-1-1-1.2-1.7c-.2-.7-.4-1.5-.4-2.5,0-2.1.7-3.9,2.1-5.2,1.4-1.3,3.1-2,5.3-2s2.2.2,3.4.5c1.2.3,2.3.7,3.2,1.3Z"/>
    </g>
  </g>
  <path class="st4" d="M38.7,23.3c1.9-.3,7.1-.2,9,0,2.8.3,3.8,3.4,1.6,5.1,0,3.3-.3,7,0,10.4.5,7.3,8.5,15.1,11.9,21.4,1.8,3.3,0,7.1-3.7,7.8h-28.4c-3.6-.8-5.4-4.5-3.6-7.8,3.5-6.5,11.4-14,11.9-21.6.2-3.3-.1-6.9,0-10.2-2.1-1.7-1.2-4.7,1.5-5.1ZM48.4,25.5c-.2-.2-.6-.2-.8-.2-2.8-.2-5.9.2-8.7,0-1.2,0-1.2,1.6-.2,1.8h9c.7,0,1.1-1.1.7-1.5ZM47.3,28.9h-8.1v10.7c0,6.3-9.4,16.3-12.3,21.8-.8,2,0,3.9,2,4.6h28.1c2.2-.2,3.4-2.6,2.5-4.6-2.8-5.5-12.3-15.6-12.3-21.7v-10.8h0Z"/>
  <path class="st4" d="M42.9,15.7c2.6-.4,3.8,3.2,1.4,4.3-3.3,1.5-4.7-3.8-1.4-4.3Z"/>
  <path class="st4" d="M40,8.7c2.2-.4,3.2,2.6,1.4,3.6-2.7,1.4-4.2-3-1.4-3.6Z"/>
  <path class="st4" d="M48.4,51.4c1.4-.3,2.6.1,3.5,1.2,2.3,2.7,4.2,6.6,6.4,9.5.7,1.4-.4,2.8-1.9,2.8h-26.3c-1.6,0-2.6-1.5-1.9-3,1.9-2.3,3.4-5.7,5.3-7.9,1.4-1.6,2.5,0,3.8.7,2.7,1.4,5.6.5,8-1.2.9-.6,2-2,3.1-2.2Z"/>
  <path class="st4" d="M40.6,46.8c2.8-.6,4,3.3,1.5,4.3-3.3,1.5-4.5-3.8-1.5-4.3Z"/>
  <path class="st4" d="M43.5,40.9c2.5-.6,3,3,.7,3.2-2,.2-2.4-2.8-.7-3.2Z"/>
  <path class="st4" d="M43.4,34.7c.7.9-.7,2.1-1.5,1.3s.7-2.4,1.5-1.3Z"/>
</svg>