<?xml version="1.0" encoding="UTF-8"?>
<svg id="b" xmlns="http://www.w3.org/2000/svg" version="1.1" viewBox="0 0 241.6 78.9">
  <!-- Generator: Adobe Illustrator 29.5.1, SVG Export Plug-In . SVG Version: 2.1.0 Build 141)  -->
  <defs>
    <style>
      .st0 {
        fill: #f451a6;
      }

      .st1 {
        fill: #fff;
      }

      .st2 {
        isolation: isolate;
      }

      .st3 {
        fill: #e8348a;
      }

      .st4 {
        fill: #064570;
      }
    </style>
  </defs>
  <rect class="st3" width="241.6" height="78.9" rx="10.6" ry="10.6"/>
  <path class="st0" d="M226.4,3.1H13.5C7.8,3.1,3.2,7.6,3.2,13v18.3c16.1-3.9,33.2-2.5,47.9,1.2,62.6,16.1,127,28.8,185.6,4V13c0-5.5-4.6-10-10.3-10Z"/>
  <g class="st2">
    <path class="st1" d="M102.9,32.4h5.5v14.3c0,2.3-.6,4.1-1.8,5.5-1.2,1.3-2.9,2-5.2,2s-4.1-1-5.5-3.1l3.2-3.4c.9,1.2,1.6,1.8,2.2,1.8s.5,0,.7-.1c.2,0,.3-.2.5-.4.1-.2.2-.4.3-.5,0-.1.1-.4.1-.7,0-.3,0-.5,0-.7v-14.7Z"/>
    <path class="st1" d="M124.8,32.4h5.5v11.9c0,1.7-.1,3.2-.4,4.4s-.9,2.2-1.8,3.1c-1.6,1.6-3.9,2.4-7,2.4s-5.4-.8-7-2.4c-.9-.9-1.5-2-1.8-3.1-.3-1.2-.4-2.6-.4-4.4v-11.9h5.5v11.2c0,.7,0,1.2,0,1.7,0,.5.1,1,.3,1.5.1.6.3,1,.6,1.4.3.3.6.6,1.1.9.5.2,1.1.4,1.7.4s1.3-.1,1.7-.4c.5-.2.9-.5,1.1-.9.3-.3.5-.8.6-1.4.1-.6.2-1.1.3-1.5,0-.5,0-1,0-1.7v-11.2Z"/>
    <path class="st1" d="M145.9,37.1h-6.6v3.5h6.2v4.7h-6.2v3.7h6.6v4.7h-12.1v-21.2h12.1v4.7Z"/>
    <path class="st1" d="M159.5,41.8h11c0,1.8-.2,3.4-.5,4.7-.3,1.3-.8,2.5-1.7,3.7-2,2.8-4.9,4.2-8.8,4.2s-6.1-1-8.2-3.1-3.2-4.8-3.2-8.1,1.1-6.2,3.2-8.3c2.1-2.1,4.9-3.1,8.3-3.1s4.1.5,5.8,1.5,2.9,2.5,3.8,4.5l-5.2,2.2c-.4-1.1-1-1.9-1.8-2.5-.8-.6-1.7-.9-2.8-.9-1.7,0-3.1.7-4,2-1,1.4-1.5,2.9-1.5,4.7s.5,3.3,1.5,4.6c1,1.3,2.4,2,4.1,2s2.3-.3,3.1-1c.8-.6,1.3-1.5,1.4-2.7h-4.5v-4.3Z"/>
    <path class="st1" d="M177.9,33.1c1.8-.9,3.7-1.4,5.7-1.4s4,.5,5.7,1.4c1.8.9,3.2,2.2,4.3,3.9,1.1,1.7,1.7,3.6,1.7,5.7,0,3.4-1.1,6.2-3.3,8.4-2.2,2.2-5,3.3-8.4,3.3s-6.2-1.1-8.4-3.3c-2.2-2.2-3.3-5-3.3-8.4s.6-4,1.7-5.7,2.6-3,4.3-3.9ZM187.9,38.8c-1.2-1.1-2.6-1.7-4.2-1.7s-3,.6-4.2,1.7c-1.2,1.1-1.8,2.4-1.8,3.9s.6,3.3,1.7,4.5c1.2,1.2,2.6,1.8,4.3,1.8s3.1-.6,4.3-1.8c1.2-1.2,1.7-2.7,1.7-4.5s-.6-2.8-1.8-3.9Z"/>
  </g>
  <path class="st4" d="M54.9,47.8c1.4-.3,1.9,0,2.6,1.1,1,1.8,4.8,10.6,5.2,12.5.5,2.1-.2,2.3-1.8,3.1-2.3,1.1-9.8,4.4-11.9,4.9-2,.4-2.2-.4-2.9-1.9-1.5-3.1-3.5-8-4.6-11.2-.7-2.2-.6-2.5,1.5-3.6s10.1-4.5,12.1-4.9ZM53.9,49.9c-2.6.6-1.9,5.1,1.3,4.3,2.7-.6,2-5.1-1.3-4.3ZM44.7,53.7c-3,.6-1.8,5.2,1.3,4.4,2.5-.7,1.9-5-1.3-4.4ZM58,59.1c-2.8.5-2.1,5.1,1.1,4.4,2.6-.6,1.9-5-1.1-4.4ZM48.7,62.9c-3,.6-2.2,5.2,1.1,4.4,2.7-.6,1.8-4.9-1.1-4.4Z"/>
  <path class="st4" d="M22.4,18.5c.9-.2,1.5,0,2.4.1,3.8.8,13.5,5.4,17.5,7.2,3.6,1.6,5.5,1.6,4.1,6.4-1.3,4.4-5.8,15-8,19-2.3,4.2-5.9,1.4-9.5,0-4.4-1.7-10-3.8-14.2-5.9-2.6-1.3-3.4-1.7-2.7-4.9.9-3.9,5.1-12.6,6.9-16.7.8-1.7,1.6-4.8,3.5-5.2h0ZM23.6,22c-2.7.8-3.2,5.7.2,6.9,6.5,2.1,6.3-8.8-.2-6.9ZM42.9,33.9c2.3-4.4-2.8-7.9-5.6-5-4.1,4.4,3.6,8.8,5.6,5ZM28.9,32.2c-3,.3-4.5,4.8-1.6,6.8,5.8,3.9,8.2-7.4,1.6-6.8ZM17.9,36.8c-4.4,1-3,8.7,2.4,7,3.7-1.2,2.5-8.1-2.4-7ZM36.1,49.5c3.6-3.2-1-9-4.8-5.7s1.5,8.7,4.8,5.7Z"/>
  <path class="st4" d="M46.6,16.5c0,.2,0,.5,0,.6l11.7,30.7c.2.5.5.8,1,.8,7.3-2.6,14.6-5.5,21.8-8.2.6-.5.5-1,.3-1.6l-11.7-30.7c-.3-.4-.7-.6-1.2-.5-.8.2-2.2.8-3,1.1-6.1,2.3-12.1,4.7-18.2,7-.3.2-.6.3-.7.7h0Z"/>
</svg>