<?xml version="1.0" encoding="UTF-8"?>
<svg id="Layer_1" xmlns="http://www.w3.org/2000/svg" version="1.1" viewBox="0 0 304.3 103.8">
  <!-- Generator: Adobe Illustrator 29.5.1, SVG Export Plug-In . SVG Version: 2.1.0 Build 141)  -->
  <defs>
    <style>
      .st0, .st1, .st2 {
        fill: #fff;
      }

      .st3 {
        fill: #a3195b;
      }

      .st4 {
        fill: #7c1249;
      }

      .st1 {
        font-family: FuturaLT, 'Futura LT';
        font-size: 18.8px;
      }

      .st1, .st5, .st2 {
        isolation: isolate;
      }

      .st6 {
        fill: #8fdbf9;
      }

      .st2 {
        mix-blend-mode: overlay;
        opacity: .2;
      }

      .st7 {
        fill: #36a9e1;
      }

      .st8 {
        fill: #d13386;
      }

      .st9 {
        fill: #064570;
      }

      .st10 {
        fill: #032a63;
      }

      .st11 {
        fill: #b4e8f9;
      }
    </style>
  </defs>
  <g class="st5">
    <g id="b">
      <g id="c">
        <rect class="st9" width="304.3" height="103.8" rx="11.1" ry="11.1"/>
        <path class="st10" d="M206.4,59.2C139.7,40.4,68.6,22.3,3.2,40.6v48.6c0,5.8,4.8,10.6,10.6,10.6h276.3c5.8,0,10.6-4.8,10.6-10.6v-40.9c-28.9,14.5-60.4,20.2-94.1,10.9h0Z"/>
        <g class="st5">
          <path class="st0" d="M59.6,38.8h-10.5l-2.6,5.7h-3.1l10.9-23.9,10.9,23.9h-3.1l-2.6-5.7ZM58.5,36.2l-4.1-9.3-4.1,9.3h8.1Z"/>
          <path class="st0" d="M69.5,30.3v2.4h0c1.2-1.9,2.9-2.8,5-2.8s3.6.7,4.8,2.2c1.2,1.5,1.9,3.2,1.9,5.2s-.6,4-1.8,5.5c-1.2,1.5-2.9,2.2-5,2.2s-1.9-.2-2.7-.7c-.8-.5-1.5-1.1-2.1-2h0v10.4h-2.7v-22.4h2.7ZM73.8,42.6c1.4,0,2.6-.5,3.4-1.5.8-1,1.2-2.2,1.2-3.7s-.4-2.6-1.2-3.6-2-1.5-3.4-1.5-2.4.5-3.3,1.5-1.2,2.2-1.2,3.6.4,2.6,1.2,3.6c.8,1,1.9,1.5,3.3,1.5Z"/>
          <path class="st0" d="M86.7,18.2v26.4h-2.7v-26.4h2.7Z"/>
          <path class="st0" d="M91.2,22.5c.4-.4.8-.6,1.3-.6s1,.2,1.3.6c.4.4.5.8.5,1.4s-.2.9-.5,1.3c-.4.4-.8.5-1.3.5s-1-.2-1.3-.5c-.4-.4-.5-.8-.5-1.3s.2-1,.5-1.4ZM93.9,30.3v14.2h-2.7v-14.2h2.7Z"/>
          <path class="st0" d="M108.8,30.9v3.5c-1.1-1.3-2.5-1.9-4.1-1.9s-2.4.5-3.4,1.5c-.9,1-1.4,2.2-1.4,3.5s.5,2.7,1.4,3.6c.9,1,2.1,1.4,3.5,1.4s2.8-.6,3.9-1.9v3.5c-1.2.6-2.5.9-3.9.9-2.1,0-3.9-.7-5.4-2.2-1.5-1.4-2.2-3.2-2.2-5.3s.7-4,2.2-5.5c1.5-1.5,3.3-2.2,5.5-2.2s2.7.3,3.8.9Z"/>
          <path class="st0" d="M125.1,30.3v14.2h-2.7v-2.2h0c-1.2,1.8-2.8,2.7-4.8,2.7s-3.7-.7-5-2.2-1.8-3.3-1.8-5.5.6-3.8,1.9-5.2c1.2-1.5,2.9-2.2,4.9-2.2s3.7.9,4.9,2.8h0v-2.4h2.7ZM117.9,42.6c1.4,0,2.6-.5,3.4-1.5.8-1,1.2-2.2,1.2-3.7s-.4-2.6-1.2-3.6-2-1.5-3.4-1.5-2.4.5-3.3,1.5-1.2,2.2-1.2,3.6.4,2.6,1.2,3.6c.8,1,1.9,1.5,3.3,1.5Z"/>
          <path class="st0" d="M139.1,30.9v3.5c-1.1-1.3-2.5-1.9-4.1-1.9s-2.4.5-3.4,1.5c-.9,1-1.4,2.2-1.4,3.5s.5,2.7,1.4,3.6c.9,1,2.1,1.4,3.5,1.4s2.8-.6,3.9-1.9v3.5c-1.2.6-2.5.9-3.9.9-2.1,0-3.9-.7-5.4-2.2-1.5-1.4-2.2-3.2-2.2-5.3s.7-4,2.2-5.5c1.5-1.5,3.3-2.2,5.5-2.2s2.7.3,3.8.9Z"/>
          <path class="st0" d="M142.7,22.5c.4-.4.8-.6,1.3-.6s1,.2,1.3.6c.4.4.5.8.5,1.4s-.2.9-.5,1.3c-.4.4-.8.5-1.3.5s-1-.2-1.3-.5c-.4-.4-.5-.8-.5-1.3s.2-1,.5-1.4ZM145.4,30.3v14.2h-2.7v-14.2h2.7Z"/>
          <path class="st0" d="M150.7,32.1c1.5-1.5,3.3-2.2,5.4-2.2s3.9.7,5.4,2.2c1.5,1.5,2.2,3.3,2.2,5.4s-.7,3.9-2.2,5.4c-1.5,1.5-3.3,2.2-5.4,2.2s-3.9-.7-5.4-2.2c-1.5-1.5-2.2-3.3-2.2-5.4s.7-3.9,2.2-5.4ZM159.5,34c-1-1-2.1-1.5-3.4-1.5s-2.5.5-3.4,1.5c-1,1-1.4,2.1-1.4,3.5s.5,2.5,1.4,3.5c1,1,2.1,1.5,3.4,1.5s2.5-.5,3.4-1.5c1-1,1.4-2.1,1.4-3.5s-.5-2.5-1.4-3.5Z"/>
          <path class="st0" d="M168.9,30.3v1.9h0c.4-.8,1-1.3,1.8-1.7.8-.4,1.6-.6,2.5-.6,1.9,0,3.2.5,3.9,1.6.8,1.1,1.1,2.6,1.1,4.5v8.5h-2.7v-8.1c0-1.4-.2-2.4-.6-3.1-.4-.7-1.2-1-2.5-1s-1.1,0-1.5.2c-.4.1-.8.4-1,.7s-.4.6-.6.9c-.2.3-.3.7-.3,1.2,0,.5,0,1-.1,1.3,0,.3,0,.8,0,1.3v6.5h-2.7v-14.2h2.7Z"/>
          <path class="st0" d="M194.6,37.9h-10.9c0,1.3.4,2.4,1.2,3.3s1.8,1.4,3.1,1.4,1.8-.2,2.4-.7,1.2-1.1,1.8-2.1l2.3,1.3c-.7,1.2-1.6,2.2-2.8,2.9-1.2.7-2.4,1-3.8,1-2.1,0-3.8-.7-5.1-2.1-1.3-1.4-1.9-3.2-1.9-5.4s.6-4.1,1.8-5.5c1.2-1.4,2.9-2.1,5.1-2.1s3.8.7,5,2.1c1.1,1.4,1.7,3.2,1.7,5.5v.4ZM183.9,35.8h8c-.2-1.1-.6-2-1.3-2.6-.7-.6-1.6-1-2.6-1s-2,.3-2.7,1c-.7.7-1.2,1.5-1.4,2.6Z"/>
          <path class="st0" d="M204.8,32.4l-2.2,1.2c-.4-.8-1-1.2-1.8-1.2s-.7.1-1,.4-.5.6-.5,1,0,.3,0,.5c0,.2.2.3.3.4.2.1.3.2.4.3.1.1.3.2.5.3.3.1.5.2.6.3s.4.2.7.3c.3.1.6.2.7.3,1,.5,1.8,1,2.4,1.6.6.6.9,1.4.9,2.4s-.5,2.5-1.4,3.4c-1,.9-2.1,1.4-3.5,1.4s-2.1-.3-3-.9c-.9-.6-1.6-1.4-1.9-2.3l2.3-1.1c.7,1.2,1.5,1.8,2.6,1.8s1.1-.2,1.5-.6.6-.9.6-1.4-.3-1.1-1-1.5l-2.7-1.4c-.9-.5-1.6-1-2.1-1.5-.4-.5-.7-1.2-.7-2.1s.4-2.1,1.2-2.9c.8-.8,1.8-1.2,3-1.2,1.8,0,3.1.8,3.9,2.5Z"/>
        </g>
        <g class="st5">
          <path class="st0" d="M44.3,77.7v-21.2h8.5c2.4,0,4.3.6,5.6,1.7s2.1,2.9,2.1,5.3c0,4.8-2.5,7.2-7.5,7.2h-3.1v7h-5.5ZM49.9,60.9v5.3h.9c.5,0,.9,0,1.2,0,.3,0,.6,0,1-.2.4,0,.7-.2.9-.4.2-.2.4-.4.5-.8.2-.3.2-.8.2-1.3s0-1-.2-1.3c-.2-.3-.3-.6-.5-.8-.2-.2-.5-.3-.9-.4-.4,0-.8-.1-1-.2-.3,0-.7,0-1.3,0h-.9Z"/>
          <path class="st0" d="M73.9,68.9l6.7,8.7h-6.9l-5.2-8.2h0v8.2h-5.5v-21.2h8.3c2.2,0,4,.5,5.4,1.6,1.4,1.1,2,2.7,2,4.9s-.4,2.8-1.2,3.9-2,1.8-3.4,2.1ZM68.5,60.6v5.3h.5c2.6,0,3.8-.9,3.8-2.6s-1.3-2.6-3.8-2.6h-.5Z"/>
          <path class="st0" d="M87,57.1c1.8-.9,3.7-1.4,5.7-1.4s4,.5,5.7,1.4c1.8.9,3.2,2.2,4.3,3.9s1.7,3.6,1.7,5.7c0,3.4-1.1,6.2-3.3,8.4s-5,3.3-8.4,3.3-6.2-1.1-8.4-3.3c-2.2-2.2-3.3-5-3.3-8.4s.6-4,1.7-5.7c1.1-1.7,2.6-3,4.3-3.9ZM97,62.7c-1.2-1.1-2.6-1.7-4.2-1.7s-3,.6-4.2,1.7c-1.2,1.1-1.8,2.4-1.8,3.9s.6,3.3,1.7,4.5c1.2,1.2,2.6,1.8,4.3,1.8s3.1-.6,4.3-1.8c1.2-1.2,1.7-2.7,1.7-4.5s-.6-2.8-1.8-3.9Z"/>
          <path class="st0" d="M115.6,77.7h-8.5v-21.2h7.9c4.2,0,6.3,1.8,6.3,5.5s-.8,3.5-2.3,4.3h0c2.9.4,4.3,2.2,4.3,5.5s-.2,2-.6,2.8-1,1.4-1.8,1.8c-.7.4-1.5.8-2.4,1-.9.2-1.8.3-2.9.3ZM112.6,60.6v4.1h.6c.9,0,1.6-.1,2.2-.4.5-.3.8-.8.8-1.6s0-.8-.3-1.1c-.2-.3-.4-.5-.8-.6-.4-.1-.7-.2-1-.2-.3,0-.7,0-1.2,0h-.4ZM112.6,68.9v4.6h1.6c.2,0,.5,0,.9,0,.5,0,.8-.1,1-.2.2,0,.5-.2.8-.4.3-.2.5-.4.6-.6s.2-.6.2-1,0-.5,0-.8c0-.2-.2-.4-.3-.6-.1-.2-.3-.3-.4-.4-.1-.1-.3-.2-.5-.3-.3,0-.4-.1-.6-.2-.1,0-.4,0-.7,0s-.5,0-.6,0h-1.9Z"/>
          <path class="st0" d="M139.2,74h-7.6l-1.5,3.7h-5.9l8.2-21.2h6l8,21.2h-5.9l-1.4-3.7ZM137.7,69.7l-2.3-6.8h0l-2.3,6.8h4.6Z"/>
          <path class="st0" d="M156.7,77.7h-8.5v-21.2h7.9c4.2,0,6.3,1.8,6.3,5.5s-.8,3.5-2.3,4.3h0c2.9.4,4.3,2.2,4.3,5.5s-.2,2-.6,2.8c-.4.8-1,1.4-1.8,1.8-.7.4-1.5.8-2.4,1s-1.8.3-2.9.3ZM153.7,60.6v4.1h.6c.9,0,1.6-.1,2.2-.4.5-.3.8-.8.8-1.6s0-.8-.3-1.1c-.2-.3-.4-.5-.8-.6s-.7-.2-1-.2c-.3,0-.7,0-1.2,0h-.4ZM153.7,68.9v4.6h1.6c.2,0,.5,0,.9,0,.5,0,.8-.1,1-.2.2,0,.5-.2.8-.4.3-.2.5-.4.6-.6s.2-.6.2-1,0-.5,0-.8c0-.2-.2-.4-.3-.6s-.3-.3-.4-.4c-.1-.1-.3-.2-.5-.3-.3,0-.4-.1-.6-.2-.1,0-.4,0-.7,0-.3,0-.5,0-.6,0h-1.9Z"/>
          <path class="st0" d="M172.8,56.4v21.2h-5.5v-21.2h5.5Z"/>
          <path class="st0" d="M181.9,56.4v16.6h6.6v4.7h-12.1v-21.2h5.5Z"/>
          <path class="st0" d="M195.8,56.4v21.2h-5.5v-21.2h5.5Z"/>
          <path class="st0" d="M199.4,77.7v-21.2h7.8c3,0,5.5,1,7.6,3.1,2.1,2.1,3.2,4.6,3.2,7.5s-1.1,5.5-3.2,7.5c-2.1,2.1-4.7,3.1-7.6,3.1h-7.8ZM205,61.1v11.9h1.2c1.8,0,3.2-.5,4.4-1.5,1.2-1,1.7-2.5,1.7-4.5s-.6-3.3-1.7-4.4c-1.1-1.1-2.6-1.6-4.4-1.6h-1.3Z"/>
          <path class="st0" d="M233.6,74h-7.6l-1.5,3.7h-5.9l8.2-21.2h6l8,21.2h-5.9l-1.4-3.7ZM232.1,69.7l-2.3-6.8h0l-2.3,6.8h4.6Z"/>
          <path class="st0" d="M242.6,77.7v-21.2h7.8c3,0,5.5,1,7.6,3.1,2.1,2.1,3.2,4.6,3.2,7.5s-1.1,5.5-3.2,7.5c-2.1,2.1-4.7,3.1-7.6,3.1h-7.8ZM248.2,61.1v11.9h1.2c1.8,0,3.2-.5,4.4-1.5,1.2-1,1.7-2.5,1.7-4.5s-.6-3.3-1.7-4.4c-1.1-1.1-2.6-1.6-4.4-1.6h-1.3Z"/>
        </g>
        <g class="st5">
          <text class="st1" transform="translate(215.9 44.6)"><tspan x="0" y="0">de la</tspan></text>
        </g>
        <path class="st4" d="M20.1,70.6h0c-1.4-.4-2.2-1.8-1.8-3.2l5.1-18.5c.4-1.4,1.8-2.2,3.2-1.8h0c1.4.4,2.2,1.8,1.8,3.2l-5.1,18.6c-.4,1.4-1.8,2.2-3.2,1.8Z"/>
        <path class="st4" d="M42.2,35.7c-2.2,8-8.2,13.3-15.4,11.3-6.3-1.7-9.7-9.6-7.5-17.5s9-13,15.4-11.3c7.2,1.9,9.7,9.6,7.5,17.5Z"/>
        <path class="st4" d="M25.1,45.3l3.6,1c1.1.3,1.7,1.4,1.4,2.5h0c-.3,1.1-1.4,1.7-2.5,1.4l-3.6-1c-1.1-.3-1.7-1.4-1.4-2.5h0c.3-1.1,1.4-1.7,2.5-1.4Z"/>
        <rect class="st3" x="23.9" y="44.2" width="4" height="6.7" rx="1.9" ry="1.9" transform="translate(-26.8 60.1) rotate(-74.8)"/>
        <ellipse class="st3" cx="30.3" cy="32.5" rx="14.9" ry="11.4" transform="translate(-9 53.2) rotate(-74.8)"/>
        <ellipse class="st9" cx="29.8" cy="32.4" rx="13.2" ry="9.8" transform="translate(-9.3 52.7) rotate(-74.8)"/>
        <ellipse class="st6" cx="30.1" cy="32.4" rx="12.8" ry="9.5" transform="translate(-9.1 53) rotate(-74.8)"/>
        <path class="st11" d="M29.4,43.7c-4.6-1.2-6.9-7.2-5.2-13.4,1.3-4.8,4.6-8.2,8.2-9-4.3-.4-8.7,3.4-10.3,9.1-1.7,6.2.7,12.2,5.2,13.4,1,.3,2.1.3,3.1,0-.4,0-.7,0-1-.2h0Z"/>
        <path class="st3" d="M19.7,70.5h0c-1.2-.3-1.9-1.5-1.5-2.7l5.4-19.4c.3-1.2,1.5-1.8,2.7-1.5h0c1.2.3,1.9,1.5,1.5,2.7l-5.4,19.4c-.3,1.2-1.5,1.8-2.7,1.5Z"/>
        <path class="st8" d="M18.9,68.4h0c-.1,0-.2-.2-.2-.3l5.1-18.6c0-.2.2-.2.3-.2h0c.1,0,.2.2.2.3l-5.1,18.6c0,.2-.2.2-.3.2Z"/>
        <rect class="st8" x="22.9" y="46.5" width="1.6" height="1.1" rx=".6" ry=".6" transform="translate(-28 57.6) rotate(-74.8)"/>
        <path class="st9" d="M276.6,67.1l-5.2-.5.2-1.7-2.2.7c-.9.3-1.5,1-1.6,1.9l-.5,3.5-.2,1.9c-.1,1.1.6,2.1,1.7,2.2h1.1c0,.1,4.2.7,4.2.7.9.1,1.7-.2,2.3-.9l1.5-1.8-3.8-1.2,2.5-4.6h0Z"/>
        <path class="st9" d="M288,33.9c-2.6-3.4-6.3-5.7-10.8-6.3-4-.5-7.7.4-11,2.5-2.6,1.7-4.6,3.9-5.8,6.7-.6,1.2.1,2.7,1.4,3l5.3,1.5c.5.1,1,0,1.4-.3l1.9-1.8-1.6.5c.6-.9,1.3-1.7,2.3-2.3,1.5-1,3.2-1.4,5.1-1.1,2,.3,3.7,1.3,5,2.9,1.2,1.5,1.8,3.5,1.5,5.5-.3,2.1-1.3,3.8-2.9,5s-1.7,1.2-3.9,1l-1.4-1.1h-1.4s-1.9.6-1.9.6c-.8.2-1.4.9-1.5,1.8l-.4,3v.8c-.1,0-.8,5.3-.8,5.3-.1,1,.6,1.9,1.6,2h.6c0,0,5,.7,5,.7.8,0,1.6-.2,2.1-.8l1.5-1.8-3.1-.9,1.4-.6c2.9-.4,5.5-1.5,7.7-3.2,3.4-2.6,5.7-6.3,6.3-10.8.6-4.4-.7-8.6-3.2-12h0Z"/>
        <path class="st7" d="M264.3,38.5c-1.4-.4-2.1-2-1.5-3.2,1.3-2.7,3.2-4.9,5.8-6.6,3.3-2.1,7-3,11-2.5,4.5.6,8.2,2.9,10.8,6.3,2.6,3.4,3.8,7.6,3.2,12-.6,4.5-2.9,8.2-6.3,10.8-1.8,1.4-3.8,2.4-6.1,2.9-1,.2-1.7,1-1.8,2v.2c-.2,1.3-1.4,2.2-2.7,2l-3.9-.5c-1.3-.2-2.2-1.4-2-2.7l.7-5.6.3-2.1c.2-1.3,1.4-2.2,2.7-2l2,.3c2.1.3,3.9-.2,5.5-1.4s2.6-2.9,2.9-5-.3-4-1.5-5.5c-1.2-1.6-2.9-2.6-5-2.9-1.9-.2-3.5.1-5.1,1.1-1,.7-1.9,1.5-2.4,2.5s-1.7,1.5-2.7,1.1l-3.9-1.1h0ZM269.5,71l.5-4.1c.2-1.3,1.4-2.2,2.7-2l3.9.5c1.3.2,2.2,1.4,2,2.7l-.5,4.1c-.2,1.3-1.4,2.2-2.7,2l-3.9-.5c-1.3-.2-2.2-1.4-2-2.7Z"/>
        <path class="st2" d="M266.3,38.5l-2.1-.6c-1-.3-1.4-1.3-1.1-2.2,1.3-3.1,5.2-9.1,16.5-8.8,0,0-11.7,0-13.3,11.7h0Z"/>
        <path class="st2" d="M271.1,61.1l1.5-11.4,4.6.6s4.9.6,7.4-4.2c0,0-1,5.9-8.8,5.1,0,0-2.3-.2-4.7,9.8h0Z"/>
        <path class="st2" d="M278.1,66l-7.3-1-1,7.6s.4-7.6,8.3-6.7h0Z"/>
      </g>
    </g>
  </g>
</svg>