<?xml version="1.0" encoding="UTF-8"?>
<svg id="b" xmlns="http://www.w3.org/2000/svg" version="1.1" viewBox="0 0 241.6 78.9">
  <!-- Generator: Adobe Illustrator 29.5.1, SVG Export Plug-In . SVG Version: 2.1.0 Build 141)  -->
  <defs>
    <style>
      .st0 {
        fill: #edb23e;
      }

      .st1 {
        fill: #823884;
      }

      .st2 {
        fill: #fff;
      }

      .st3 {
        fill: #994799;
      }

      .st4 {
        isolation: isolate;
      }
    </style>
  </defs>
  <g id="c">
    <rect class="st3" width="241.6" height="78.9" rx="10.6" ry="10.6"/>
    <path class="st1" d="M128.4,38.8C89.9,23.6,42.6,19.9,3.9,34v31.6c0,5.4,4.6,9.9,10.2,9.9h212.5c5.6,0,10.2-4.4,10.2-9.9v-31.5c-33,17.4-74.3,18.9-108.5,4.8h0Z"/>
    <g class="st4">
      <path class="st2" d="M113.4,28.8l-2.2,4.3c-1.1-.9-2.3-1.4-3.7-1.4s-1.1.2-1.6.5c-.5.3-.7.8-.7,1.3s.2.7.5,1c.3.3.6.5.9.6.3.1.6.2,1.1.4l1.4.4c1.7.5,2.9,1.2,3.9,2.1.9.9,1.4,2.1,1.4,3.7,0,2.6-.7,4.5-2.2,5.7-1.6,1.3-3.6,2-6,2s-5.2-.8-7.5-2.4l2.4-4.5c1.7,1.5,3.3,2.2,4.9,2.2s1.3-.2,1.9-.5.8-.9.8-1.6-.9-1.7-2.7-2.2c0,0-.3,0-.7-.2-1-.3-1.8-.5-2.4-.8-.6-.2-1.2-.6-1.7-1-.6-.4-1-1-1.2-1.7-.2-.7-.4-1.5-.4-2.5,0-2.1.7-3.9,2.1-5.2,1.4-1.3,3.1-2,5.3-2s2.2.2,3.4.5,2.3.7,3.2,1.3Z"/>
      <path class="st2" d="M129.9,45.2h-7.6l-1.5,3.7h-5.9l8.2-21.2h6l8,21.2h-5.9l-1.4-3.7ZM128.4,41l-2.3-6.8h0l-2.3,6.8h4.6Z"/>
      <path class="st2" d="M144.4,27.7v16.6h6.6v4.7h-12.1v-21.2h5.5Z"/>
      <path class="st2" d="M165.7,27.7h5.5v11.9c0,1.7-.1,3.2-.4,4.4s-.9,2.2-1.8,3.1c-1.6,1.6-3.9,2.4-7,2.4s-5.4-.8-7-2.4c-.9-.9-1.5-2-1.8-3.1s-.4-2.6-.4-4.4v-11.9h5.5v11.2c0,.7,0,1.2,0,1.7,0,.5.1,1,.3,1.5.1.6.3,1,.6,1.4.3.3.6.6,1.1.9.5.2,1.1.4,1.7.4s1.3-.1,1.7-.4c.5-.2.9-.5,1.1-.9.3-.3.5-.8.6-1.4s.2-1.1.3-1.5c0-.5,0-1,0-1.7v-11.2Z"/>
      <path class="st2" d="M174.7,48.9v-21.2h7.8c3,0,5.5,1,7.6,3.1,2.1,2.1,3.2,4.6,3.2,7.5s-1.1,5.5-3.2,7.5c-2.1,2.1-4.7,3.1-7.6,3.1h-7.8ZM180.3,32.3v11.9h1.2c1.8,0,3.2-.5,4.4-1.5s1.7-2.5,1.7-4.5-.6-3.3-1.7-4.4-2.6-1.6-4.4-1.6h-1.3Z"/>
    </g>
    <path class="st0" d="M74.3,37.5c2-7.4-.2-15.9-6.2-20.8-6.2-5-13-4-18.8.9-1,.8-3,3.6-4.1,3.6s-3.6-3.1-4.6-4c-5.1-4.3-11.2-5.3-17-1.6-7.2,4.7-9.6,13.7-7.7,21.8.4.4,7.8-.5,9,.4.5.3.5,1.1,1.1,1l4.5-18.7c.9-1.9,3.3-1.4,3.4.7l1.1,27.1.9-1.7c1.6-3,2.7-7.2,4.4-10,2.1-3.5,4.4,1.4,5.8,2.9.2.2.4.6.7.2l4.8-19.2c.6-1.4,2.7-1.4,3.3.1l1.1,25.9c.3,0,.3-.4.4-.6.8-2.1,1.5-5.2,2.4-7.1.2-.3.2-.6.6-.7l14.6-.2h0Z"/>
    <path class="st0" d="M22.8,40.9c-1.1-.4-4.2.3-5.6,0,.5,2,1.7,4.1,2.9,5.9,5.9,9.3,15.8,16.5,25.1,22.2,11.2-6.9,22.8-15.5,28-28h-11.2l-.5.8-5.2,15.1c-4.1,2.3-3.1-3.5-3.2-5.8-.2-5.2-.3-10.6-.7-15.9,0-.4,0-1.5-.5-1.7l-2.7,11c-2.3,2.5-4.1-1.8-5.5-3.3-.2-.2-1-1.1-1.2-.9l-7,16c-.9,1.7-3,1.6-3.4-.3l-.9-22.5-3.3,11.3c-2.5,2.2-4-3.5-5-3.8h0Z"/>
  </g>
</svg>