<?xml version="1.0" encoding="UTF-8"?>
<svg id="b" xmlns="http://www.w3.org/2000/svg" version="1.1" viewBox="0 0 241.6 78.9">
  <!-- Generator: Adobe Illustrator 29.5.1, SVG Export Plug-In . SVG Version: 2.1.0 Build 141)  -->
  <defs>
    <style>
      .st0 {
        fill: #823884;
      }

      .st1 {
        fill: #a3195b;
      }

      .st2 {
        isolation: isolate;
      }

      .st3 {
        fill: #36a1dd;
      }

      .st4 {
        fill: #064570;
      }

      .st5 {
        fill: #65c8ef;
      }
    </style>
  </defs>
  <g id="c">
    <rect class="st5" width="241.6" height="78.9" rx="10.6" ry="10.6"/>
    <path class="st3" d="M167.1,44.9c-41,5-79-10-119-15-16-2.3-30.3,3.6-44.6,9.1v27c0,5.6,4.6,10.1,10.1,10.1h214.5c5.6,0,10.1-4.6,10.1-10.1v-33.8c-23.2,6.1-46.8,10.4-71,12.7h0Z"/>
    <g class="st2">
      <g class="st2">
        <path class="st4" d="M99.9,13.6v6.6c-.6-.8-1.3-1.3-2.1-1.7-.9-.4-1.8-.6-2.7-.6-1.7,0-3,.6-4.1,1.7-1.1,1.1-1.6,2.5-1.6,4.2s.5,3.1,1.6,4.2c1.1,1.1,2.4,1.6,4.2,1.6s1.8-.2,2.6-.6c.8-.4,1.6-1,2.1-1.6v6.6c-2.1.7-3.8,1-4.9,1-3,0-5.7-1-8-3.1-2.3-2-3.4-4.7-3.4-8s1-5.6,3.1-7.8c1.1-1.1,2.3-1.9,3.7-2.5s2.9-.9,4.4-.9,3.3.4,5,1.1Z"/>
        <path class="st4" d="M108.8,13.1v21.2h-5.5V13.1h5.5Z"/>
        <path class="st4" d="M124.5,17.8h-6.6v3.5h6.2v4.7h-6.2v3.7h6.6v4.7h-12.1V13.1h12.1v4.7Z"/>
        <path class="st4" d="M127.9,34.4V13.1h5.5l10.1,13h0v-13h5.5v21.2h-5.5l-10.1-13h0v13h-5.5Z"/>
        <path class="st4" d="M167.9,13.6v6.6c-.6-.8-1.3-1.3-2.1-1.7-.9-.4-1.8-.6-2.7-.6-1.7,0-3,.6-4.1,1.7-1.1,1.1-1.6,2.5-1.6,4.2s.5,3.1,1.6,4.2c1.1,1.1,2.4,1.6,4.2,1.6s1.8-.2,2.6-.6c.8-.4,1.6-1,2.1-1.6v6.6c-2.1.7-3.8,1-4.9,1-3,0-5.7-1-8-3.1-2.3-2-3.4-4.7-3.4-8s1-5.6,3.1-7.8c1.1-1.1,2.3-1.9,3.7-2.5,1.4-.6,2.9-.9,4.4-.9s3.3.4,5,1.1Z"/>
        <path class="st4" d="M176.8,13.1v21.2h-5.5V13.1h5.5Z"/>
        <path class="st4" d="M193.5,30.7h-7.6l-1.5,3.7h-5.9l8.2-21.2h6l8,21.2h-5.9l-1.4-3.7ZM192,26.5l-2.3-6.8h0l-2.3,6.8h4.6Z"/>
        <path class="st4" d="M216.3,14.3l-2.2,4.3c-1.1-.9-2.3-1.4-3.7-1.4s-1.1.2-1.6.5c-.5.3-.7.8-.7,1.3s.2.7.5,1c.3.3.6.5.9.6.3.1.6.2,1.1.4l1.4.4c1.7.5,2.9,1.2,3.9,2.1.9.9,1.4,2.1,1.4,3.7,0,2.6-.7,4.5-2.2,5.7-1.6,1.3-3.6,2-6,2s-5.2-.8-7.5-2.4l2.4-4.5c1.7,1.5,3.3,2.2,4.9,2.2s1.3-.2,1.9-.5.8-.9.8-1.6-.9-1.7-2.7-2.2c0,0-.3,0-.7-.2-1-.3-1.8-.5-2.4-.8-.6-.2-1.2-.6-1.7-1s-1-1-1.2-1.7c-.2-.7-.4-1.5-.4-2.5,0-2.1.7-3.9,2.1-5.2,1.4-1.3,3.1-2,5.3-2s2.2.2,3.4.5c1.2.3,2.3.7,3.2,1.3Z"/>
      </g>
      <g class="st2">
        <path class="st4" d="M98.6,48.1l-2.2,4.3c-1.1-.9-2.3-1.4-3.7-1.4s-1.1.2-1.6.5c-.5.3-.7.8-.7,1.3s.2.7.5,1c.3.3.6.5.9.6.3.1.6.2,1.1.4l1.4.4c1.7.5,2.9,1.2,3.9,2.1.9.9,1.4,2.1,1.4,3.7,0,2.6-.7,4.5-2.2,5.7-1.6,1.3-3.6,2-6,2s-5.2-.8-7.5-2.4l2.4-4.5c1.7,1.5,3.3,2.2,4.9,2.2s1.3-.2,1.9-.5.8-.9.8-1.6-.9-1.7-2.7-2.2c0,0-.3,0-.7-.2-1-.3-1.8-.5-2.4-.8-.6-.2-1.2-.6-1.7-1-.6-.4-1-1-1.2-1.7-.2-.7-.4-1.5-.4-2.5,0-2.1.7-3.9,2.1-5.2,1.4-1.3,3.1-2,5.3-2s2.2.2,3.4.5,2.3.7,3.2,1.3Z"/>
        <path class="st4" d="M107,47.6c1.8-.9,3.7-1.4,5.7-1.4s4,.5,5.7,1.4c1.8.9,3.2,2.2,4.3,3.9,1.1,1.7,1.7,3.6,1.7,5.7,0,3.4-1.1,6.2-3.3,8.4s-5,3.3-8.4,3.3-6.2-1.1-8.4-3.3c-2.2-2.2-3.3-5-3.3-8.4s.6-4,1.7-5.7c1.1-1.7,2.6-3,4.3-3.9ZM117,53.3c-1.2-1.1-2.6-1.7-4.2-1.7s-3,.6-4.2,1.7c-1.2,1.1-1.8,2.4-1.8,3.9s.6,3.3,1.7,4.5c1.2,1.2,2.6,1.8,4.3,1.8s3.1-.6,4.3-1.8c1.2-1.2,1.7-2.7,1.7-4.5s-.6-2.8-1.8-3.9Z"/>
        <path class="st4" d="M142.2,47.4v6.6c-.6-.8-1.3-1.3-2.1-1.7-.9-.4-1.8-.6-2.7-.6-1.7,0-3,.6-4.1,1.7-1.1,1.1-1.6,2.5-1.6,4.2s.5,3.1,1.6,4.2c1.1,1.1,2.4,1.6,4.2,1.6s1.8-.2,2.6-.6c.8-.4,1.6-1,2.1-1.6v6.6c-2.1.7-3.8,1-4.9,1-3,0-5.7-1-8-3.1-2.3-2-3.4-4.7-3.4-8s1-5.6,3.1-7.8c1.1-1.1,2.3-1.9,3.7-2.5,1.4-.6,2.9-.9,4.4-.9s3.3.4,5,1.1Z"/>
        <path class="st4" d="M151.2,46.9v21.2h-5.5v-21.2h5.5Z"/>
        <path class="st4" d="M167.8,64.5h-7.6l-1.5,3.7h-5.9l8.2-21.2h6l8,21.2h-5.9l-1.4-3.7ZM166.3,60.3l-2.3-6.8h0l-2.3,6.8h4.6Z"/>
        <path class="st4" d="M182.3,46.9v16.6h6.6v4.7h-12.1v-21.2h5.5Z"/>
        <path class="st4" d="M202.8,51.6h-6.6v3.5h6.2v4.7h-6.2v3.7h6.6v4.7h-12.1v-21.2h12.1v4.7Z"/>
        <path class="st4" d="M220.1,48.1l-2.2,4.3c-1.1-.9-2.3-1.4-3.7-1.4s-1.1.2-1.6.5c-.5.3-.7.8-.7,1.3s.2.7.5,1c.3.3.6.5.9.6.3.1.6.2,1.1.4l1.4.4c1.7.5,2.9,1.2,3.9,2.1.9.9,1.4,2.1,1.4,3.7,0,2.6-.7,4.5-2.2,5.7-1.6,1.3-3.6,2-6,2s-5.2-.8-7.5-2.4l2.4-4.5c1.7,1.5,3.3,2.2,4.9,2.2s1.3-.2,1.9-.5.8-.9.8-1.6-.9-1.7-2.7-2.2c0,0-.3,0-.7-.2-1-.3-1.8-.5-2.4-.8-.6-.2-1.2-.6-1.7-1s-1-1-1.2-1.7c-.2-.7-.4-1.5-.4-2.5,0-2.1.7-3.9,2.1-5.2,1.4-1.3,3.1-2,5.3-2s2.2.2,3.4.5c1.2.3,2.3.7,3.2,1.3Z"/>
      </g>
    </g>
    <path class="st0" d="M35.5,49.9c-11.9-.5,3.1-12,1.7-16.8-1.2-3.9-5.9-4.8-6.2-5.5-.7-2,3.4-2.6,3.8-5.9,1.2-9.5-13.6-8.1-10.7,1.1.7,2.3,4.2,2.7,3.6,4.8-.3,1-2.8.9-3.9,1.9-.8.7-6.8,10.6-7.4,12-.5,1.1-2.1,3.8,0,3.9,3.2.1,3.5-6.6,6.8-7.1v24.9c0,1.9,2.4,1.8,3.9,1.6v-12.6c0-2.3,4.5-2.3,4.5,0v11.6c0,1.3,3.9,1.3,3.9,0v-13.9h0Z"/>
    <path class="st0" d="M57.4,49.3c-.5.6.4,13.4,0,15.5.9.2,3.9,0,3.9-1v-12.3c0-1.3,3.9-1.3,3.9,0v12.3c0,1.3,3.9,1.3,3.9,0v-25.5c1.7-.9,7.3,11.6,8.4,6.1.2-.8-7.4-13.2-8.4-14.2-1.2-1.2-4.3-2.1-4.5-2.3-1.3-1.9,3.1-2.8,3.7-4.9,2.9-9.9-11.7-10-10.8-1.9.3,3.3,4.4,4.8,3.9,6.5-2,.6-6.5,4.2-6.3,6.4.3,2.9,10.9,13,5.7,15.6-1.6.8-3.1-.5-3.2-.3h0Z"/>
    <path class="st1" d="M40.6,41.9v25.5c0,.5,3.9.7,3.9-1v-12.3c0-1.3,3.9-1.3,3.9,0v12.3c0,1.7,3.9,1.4,3.9,1v-25.5c0-.4.7-1.2,1.6-.3,1.5,1.3,3,6.1,4.8,6.8,1.2.5,2.2-.4,1.8-1.8-.2-1-7.4-12.8-8.3-13.7-1.9-2-4.7-.7-3.9-3.8.1-.5,1.6-.9,2.3-1.7,5.5-7.3-5.3-12.8-9-6.4-3.1,5.5,3.8,7.9,3.5,9.3-1.3,1.4-3.2,1.1-4.5,2.6-.7.7-8.1,12.9-8.3,13.7-.5,1.9,1.5,2.4,2.7,1.5.9-.6,2.5-4.9,3.7-6.2.7-.8,1.6-1.3,1.9,0h0Z"/>
  </g>
</svg>