<?xml version="1.0" encoding="UTF-8"?><svg id="b" xmlns="http://www.w3.org/2000/svg" viewBox="0 0 98.03 96.77"><defs><style>.d{fill:#a3195b;}.e{fill:#e8348a;}</style></defs><g id="c"><path class="d" d="M61.61,71.82c-1.52.92-3.08,1.84-4.66,2.65-2.8,1.44-4.92,2.03-7.36-.66L26.19,30.97l-.63.39-15.83,14.81c-.43.92-.09,1.4.49,2.1l35.03,37.56c.84.32,1.26.17,1.93-.34,4.88-3.71,9.32-9.27,14.17-13.15l.26-.53Z"/><path class="e" d="M45.95,14.78l-17.56,9.62c-.65.36-1.08.96-1.1,1.71,8.09,15.22,16.53,30.27,24.7,45.45,1.2,1.72,2.68.43,4.05-.29,4.23-2.21,8.43-4.59,12.62-6.89,1.11-.61,2.28-1.21,3.29-1.94-3.38.6-6.64,1.96-10.06,2.24-1.96-.26-3.61-1.65-4.23-3.53l-11.71-46.37Z"/><path class="e" d="M9.21,52.05L.05,64.74c-.17.23.1,1.58.56,1.69l42.06,30.25c.29.25,1.4-.07,1.54-.26l7.79-10.8-3.34,2.87c-2.04,1.21-4.09.99-5.92-.53L9.21,52.05Z"/><path class="d" d="M48.37,9.59c-.12.27-.13.7-.09,1l12.46,49.36c.21.76.57,1.34,1.41,1.43,11.71-2.73,23.37-5.8,35.04-8.75,1.06-.59.89-1.37.71-2.36L85.4.92c-.34-.61-.98-.98-1.68-.92-1.24.12-3.51.86-4.85,1.19-9.79,2.4-19.52,5.06-29.33,7.41-.57.21-.91.39-1.18.98Z"/></g></svg>