<?xml version="1.0" encoding="UTF-8"?><svg id="b" xmlns="http://www.w3.org/2000/svg" viewBox="0 0 90.66 49.76"><defs><style>.d{fill:#fff;}.e{fill:#d37816;}</style></defs><g id="c"><rect class="e" width="90.66" height="49.76" rx="3.31" ry="3.31"/><path class="d" d="M14.35,34.08c.4.34,13.79-.98,9.4,2.35h-15.28c1.09-5.61,9.17-8.31,10.36-13.78,1.71-7.82-3.68-6.7-9.19-5.04-2.21-2.1,6.61-6.97,11.15-2.33,6.91,7.08-8.31,17.22-6.44,18.8Z"/><path class="d" d="M51.99,34.07c2.68.91,11.43-2.29,10.58,2.36h-15.28c-2.5-2.22,14.58-11.35,10.02-18.83-2.7-4.43-6.71,1.09-10.02-.57,17.62-11.51,16.84,8.5,4.7,17.04Z"/><path class="d" d="M36.69,16.44c.28,1.45-.38,6.69,0,7.06.87.86,7.17-2.02,5.88,2.34-1.3.25-5.53-.35-5.88,0-.96.95,2.17,8.39-2.34,7.06-.28-1.45.38-6.69,0-7.06-.87-.86-7.17,2.02-5.88-2.34,1.3-.25,5.53.35,5.88,0,.96-.95-2.17-8.39,2.34-7.06Z"/><path class="d" d="M81.4,27.03c1.91,1.45-.02,2.13-1.74,2.35-3.84.49-8.42-.35-12.37,0-1.91-1.45.02-2.13,1.74-2.35,3.84-.49,8.42.35,12.37,0Z"/><path class="d" d="M81.4,19.97c1.91,1.45-.02,2.13-1.74,2.35-3.84.49-8.42-.35-12.37,0-1.91-1.45.02-2.13,1.74-2.35,3.84-.49,8.42.35,12.37,0Z"/></g></svg>