<?xml version="1.0" encoding="UTF-8"?><svg id="b" xmlns="http://www.w3.org/2000/svg" viewBox="0 0 59.64 71.67"><defs><style>.d{fill:#a3195b;}</style></defs><g id="c"><path class="d" d="M57.81,36.22c.99.62,1.34,1.24,1.54,2.33.41,2.22.36,15.71,0,18.09-.27,1.85-.85,2.39-2.66,2.66-2.54.37-15.85.41-18.31,0-1.6-.26-2.18-.84-2.44-2.44-.41-2.47-.36-15.74,0-18.31.27-1.85.85-2.39,2.66-2.66,2.7-.4,15.17-.4,17.87,0,.48.07.87.04,1.32.32ZM49.66,45.27c-2.84-2.33-6.86,1.89-4.21,4.55,2.93,2.93,7.19-2.1,4.21-4.55Z"/><path class="d" d="M29.14,49.91c1.54,1.03,1.83,1.7,1.35,3.42-.75,2.7-5.47,14.33-6.86,16.54-1.48,2.36-2.36,1.98-4.64,1.18-3.15-1.11-13.29-4.99-15.66-6.58-2.18-1.46-1.68-2.43-.96-4.53,1.46-4.27,4.13-10.75,6.14-14.78,1.35-2.71,1.81-2.89,4.74-1.92,3,.98,13.61,5.14,15.88,6.66ZM26.27,51c-2.97-1.88-6.51,2.93-2.88,5.23,3.05,1.93,6.58-2.89,2.88-5.23ZM14.15,45.94c-3.3-2.24-6.51,3.18-2.87,5.3,2.95,1.72,6.4-2.91,2.87-5.3ZM21.43,63.36c-3.17-2.15-6.76,2.79-3.1,5.1,3,1.89,6.42-2.85,3.1-5.1ZM9.3,58.28c-3.29-2.24-6.87,2.75-3.1,5.1,3.04,1.9,6.23-2.97,3.1-5.1Z"/><path class="d" d="M29.19.4c.93.59,1.32,1.17,1.89,2.06,2.4,3.78,6.66,15.6,8.44,20.38,1.6,4.3,3.2,5.93-1.86,8.64-4.71,2.52-17.15,7.67-22.26,9.16-5.36,1.57-6.06-3.72-7.82-7.76-2.21-5.08-5.12-11.46-6.83-16.62-1.05-3.15-1.44-4.25,1.79-6.28C6.49,7.51,17.14,3.71,21.98,1.86c2-.77,5.27-2.68,7.21-1.45ZM27.31,4.16c-2.84-1.54-7.38,2.05-5.47,5.82,3.57,7.07,12.47-2.03,5.47-5.82ZM33.41,29.97c5.55-1.74,4.22-8.83-.46-8.71-7.01.18-4.32,10.21.46,8.71ZM23.24,17.02c-2.75-2.28-7.68.33-6.91,4.25,1.57,8.01,12.86.67,6.91-4.25ZM10.39,11.68c-4.44-2.83-9.68,4.67-3.77,7.74,4.05,2.1,8.68-4.61,3.77-7.74ZM14.93,37.22c5.65.32,6.55-8.28.78-8.69-5.75-.41-5.92,8.4-.78,8.69Z"/></g></svg>