<?xml version="1.0" encoding="UTF-8"?><svg id="b" xmlns="http://www.w3.org/2000/svg" viewBox="0 0 92.44 72.68"><defs><style>.d{fill:#064570;}</style></defs><g id="c"><path class="d" d="M91.84,9.47c.69.66-8.55,6.89-5.41,11.92,1.02,1.64,3.63,1.57,4.69,2.29,4.09,2.78-2.63,2.26-2.85,2.47-.36.33,2.11,6.85,1.86,9.59-.05.57-1.99,9.48-2.18,9.95-.91,2.26-4.41,1.44-4.5,7.3-.11,6.71,2.85,3.6,6.01,7.7l-50.61,11.99c-9.8-3.62-23.75-5.6-32.81-10.18C-2.51,58.19.3,52.12,1.01,44.56c.1-1.09-1.03-2.79-.94-2.91.33-.47,5.65-.55,6.04-1.94,2.38-8.49-4.85-9.96-4.85-10.6-.01-2.98,3.61-2.38,3.67-3.63.07-1.41-1.95-3.33-2.2-4.95-.72-4.69-.77-9.72,3.32-12.84L58.99,0l32.85,9.47ZM41.67,21.49c-9.33-.53-24.77-10.18-32.89-10.67-4.19-.25-4.68,10.31-.76,12.75,2.87,1.8,27.13,8.41,32.13,9.6,2.26.54,1.46-.05,1.65-1.64.18-1.53.23-9.63-.12-10.04ZM84.7,14.22l-40.47,7.2c.72,2.89-3.63,11.57,1.22,11.42l38.09-9.65c2.17-1.63.89-6.49,1.16-8.97ZM85.83,28.56c-4.5,1.61-34.51,9.29-35.59,10.8-1.03,1.44,1.95,8.13,1.1,10.62,5.49-1.04,33.57-7.51,35.16-10.71s.3-7.43-.67-10.71ZM48.88,39.31c-1.48-1.53-36.57-6-41.64-8.39,1.13,2.11.67,8.83,1.87,9.67,1.52,1.07,31.99,8.47,35.96,9.09,1.29.2,2.55.44,3.86.3-.36-1.99.57-10.03-.05-10.67ZM38.2,67.86c.72-2.95,2.75-9.06.04-11.35-9.47-1.46-21.85-8.66-30.71-9.88-7.8-1.07-5.67,10.02-3.05,11.77,6.45,4.32,25.72,5.79,33.72,9.46ZM82.31,48.79l-41.02,8.2-.68,10.86c4.97-1.86,39.09-8.03,40.39-9.65.44-.55.14-7.52,1.31-9.41Z"/></g></svg>