<?xml version="1.0" encoding="UTF-8"?><svg id="b" xmlns="http://www.w3.org/2000/svg" viewBox="0 0 84.07 72.11"><defs><style>.d{fill:#994799;}</style></defs><g id="c"><path class="d" d="M50.93,7.89c4.47,4.05,7.72,9.62,9.11,15.51,1.75,7.44.65,15.3-3.12,21.93,3.27,1.91,6.53,3.84,9.81,5.72,4.74,2.72,10.3,5.41,14.78,8.4,6.57,4.39-.79,15.76-7.62,11.87l-22.56-18.89c-4.6,4.41-10.67,7.35-17.03,8.15C11.32,63.47-6.4,40.6,2.22,19.01,10.04-.58,35.26-6.31,50.93,7.89ZM28.51,7.03c-15.29,1.01-25.36,17.13-20.05,31.47,6.18,16.67,28.22,20.73,39.79,7.1,13.58-16,1.09-39.95-19.75-38.57Z"/><path class="d" d="M28.51,41.58c6.7-.76,7.18,9.23.93,9.54-6.17.3-6.82-8.87-.93-9.54Z"/><path class="d" d="M20.32,14.15c6.71-1.04,7.55,8.59,1.86,9.41-6.73.97-7.55-8.53-1.86-9.41Z"/><path class="d" d="M43.82,23.09c6.13-.46,6.86,9.02.82,9.54-6.52.56-7.15-9.06-.82-9.54Z"/><path class="d" d="M39.33,12.04c1.57,1.21,3.86,3.1,5.26,4.47,2.22,2.19-.41,5.23-2.8,3.65-1.73-1.74-4.13-3.2-5.82-4.92-1.02-1.05-1.21-2.63.03-3.6s2.28-.41,3.33.4Z"/><path class="d" d="M33.59,27.37c1.94-1.54,4.38.38,3.58,2.57-.13.36-.72,1.02-.98,1.35-1.43,1.8-3.09,3.45-4.51,5.27-2.04,1.5-4.57-.46-3.55-2.81,1.65-1.9,3.21-4.1,4.93-5.91.18-.19.34-.31.54-.47Z"/><path class="d" d="M12.24,25.63c2.58.22,5.96-.39,8.46,0,2.45.38,2.45,4.12-.11,4.52-2.5-.21-5.82.39-8.22-.02s-2.58-3.9-.13-4.5Z"/><path class="d" d="M38.71,34.78l8.54.02c2.42.75,2.23,4.04-.28,4.52-2.48-.09-5.08.15-7.55.01-3.04-.17-3.44-3.61-.71-4.55Z"/><path class="d" d="M30.94,13.52c.95,0,1.88.73,2.13,1.64.33,1.19.25,6.51.14,7.95-.23,2.94-3.63,3.46-4.55.72.13-2.66-.26-5.65-.03-8.27.11-1.22,1.11-2.02,2.31-2.03Z"/><path class="d" d="M39.99,42.11c4.05-.65,4.53,5.05.92,5.49s-4.2-4.97-.92-5.49Z"/><path class="d" d="M20.17,36.2c-2.62-2.85,2.07-6.66,4.32-3.52,2.03,2.82-1.98,6.07-4.32,3.52Z"/><path class="d" d="M17.66,39.35c3.59-.52,4.57,4.31,1.4,5.34-3.83,1.24-5.04-4.81-1.4-5.34Z"/></g></svg>