<?xml version="1.0" encoding="UTF-8"?><svg id="b" xmlns="http://www.w3.org/2000/svg" viewBox="0 0 123.73 72.87"><defs><style>.d{fill:#064570;}</style></defs><g id="c"><path class="d" d="M60.24,44.51c.31.26.68,1.16.73,1.59.17,1.36.19,7.63-.11,8.78-.67,2.57-5.44,1.2-7.43,1.56l-2.82,16.43-40.24-.04-2.72-16.38c-2.16-.41-7.04,1.15-7.51-1.93-.18-1.2-.21-7.75.03-8.82.26-1.14,1.5-1.62,2.54-1.68l55.72-.04c.51.04,1.44.2,1.82.52Z"/><path class="d" d="M23,27.56l3.56,11.1c.58.12.34-.11.46-.32.36-.62,2.19-4.63,1.97-5.01-.01-.02-.35.22-.56.03-.33-.3-1.17-4-1.2-4.61-.01-.25-.04-.49.2-.65s5.07-.16,5.68-.1c.88.09.83.35.76,1.19-.03.33-.69,3.61-.81,3.85-.3.61-.95.44-.96.62-.01.21,1.16,2.84,1.37,3.3l1.08,1.92,3.67-11.33c4.47,1.94,9.56,3.09,12.28,7.48,1.15,1.86,1.8,4.38,2.16,6.52l-44.09.22c.24-3.92,2.31-8.31,5.71-10.39,2.62-1.61,5.88-2.64,8.72-3.82Z"/><path class="d" d="M39.58,12.97c.48.74.37,2.61.2,3.5-.3,1.56-1.46,2.58-2.16,3.83-.33.59-.48,1.4-.84,2.05-2.98,5.38-9.38,5.57-12.33.11-.4-.74-.55-1.57-.9-2.21-1.18-2.14-2.96-3.49-2.27-6.52.16-.72.78-.76.84-.98.26-.94-.11-3.34.02-4.59.95-9.09,15.59-8.91,16.8-.64.18,1.2-.2,4.32.14,5.07.11.25.43.27.5.38Z"/><path class="d" d="M122.87,44.51c.31.26.68,1.16.73,1.59.17,1.36.19,7.63-.11,8.78-.67,2.57-5.44,1.2-7.43,1.56l-2.82,16.43-40.24-.04-2.72-16.38c-2.16-.41-7.04,1.15-7.51-1.93-.18-1.2-.21-7.75.03-8.82.26-1.14,1.5-1.62,2.54-1.68l55.72-.04c.51.04,1.44.2,1.82.52Z"/><path class="d" d="M93.16,34.07l6.22-6.51c3.61,1.57,7.72,2.5,9.92,6.04.93,1.5,1.45,3.53,1.75,9.02l-35.61.18c.2-6.92,1.87-10.47,4.61-12.15,2.12-1.3,4.75-2.13,7.05-3.08l6.07,6.5Z"/><path class="d" d="M106.5,21.85c-4.24-.49-1.87-19.15-7.74-21.19-5.87-2.04-9.1,1.3-9.1,1.3,0,0-4.43-1.55-5.49,4.65-1.06,6.19-1.47,14.1-3.18,14.91,0,0,3.46,2.41,6.89,2.18,2.98,3.86,8.04,3.64,10.93-.41,4.8.03,7.69-1.44,7.69-1.44Z"/></g></svg>