<?xml version="1.0" encoding="UTF-8"?><svg id="b" xmlns="http://www.w3.org/2000/svg" viewBox="0 0 37.22 95.07"><defs><style>.d{fill:#994799;}</style></defs><g id="c"><path class="d" d="M10.73,8.83h15.77c.53-2.01-.32-3.71.52-5.69,1.65-3.89,7.12-4.24,9.33-.65,1.34,2.19.87,6.08.38,8.52-1.36,6.72-5.53,12.61-10.33,17.33,4.84,5.41,11.29,12.09,10.8,19.97-.44,6.94-6.59,12.71-11.13,17.38,4.18,4.3,7.71,9.13,9.45,14.96.83,2.81,2.07,8.87.8,11.49-1.74,3.58-6.84,3.99-9.1.71-1.4-2.04-.7-4.25-1.24-6.53l-14.62-.05c-.63,2.1.06,4.26-1.11,6.26-2.22,3.79-7.98,3.27-9.49-.86-1.06-2.89.38-9.35,1.41-12.3,1.83-5.28,5.18-9.68,9.01-13.66C7.08,61.39,1.79,56.54.4,50.53c-1.99-8.58,4.85-16.25,10.33-21.91.05-.08.11-.19.09-.28-.04-.18-2.17-2.27-2.52-2.66C3.69,20.41-.46,12.76.04,5.54c.54-7.8,10.6-6.78,10.68-.31,0,.55-.22,1.25-.21,1.83,0,.55.18,1.22.22,1.78ZM31.55,2.16c-1.08.1-2.15.86-2.57,1.86-.46,1.1-.04,2.38-.11,3.56-.3,5.67-4.69,11.27-8.64,15.01l4.59,4.26c4.12-4.09,7.85-9.09,9.42-14.77.77-2.8,2.22-10.38-2.69-9.93ZM11.38,10.99c-.1.09.95,2.35,1.09,2.53.11.14.17.19.36.18l11.76-.02c.18-.06,1.3-2.38,1.26-2.63l-14.47-.06ZM23.26,15.85h-9.29c1.31,1.94,2.92,3.67,4.6,5.28.35.06,4.4-4.52,4.68-5.28ZM19.98,62.54c-4.08-4.17-11.58-9.79-10.64-16.28.66-4.56,4.7-8.91,7.76-12.11l-4.59-4.26c-2.6,2.63-5.18,5.46-7.18,8.58-3.95,6.16-4.33,11.04-.13,17.2,6.97,10.23,21.26,17.68,23.01,30.77.31,2.29-.39,5.47,2.39,6.35,2.71.86,4.16-1.48,4.11-3.89-.28-11.93-7.01-18.48-14.73-26.36ZM22.5,40.15c.05-.19-.08-.22-.16-.32-.39-.51-3.47-4.15-3.77-4.1-1.39,1.37-2.72,2.82-3.85,4.42h7.77ZM11.49,46.41h14.25c-.26-1.48-.92-2.79-1.64-4.09l-10.92-.02c-.79,1.26-1.35,2.65-1.69,4.11ZM11.59,48.57c-.26.72,1.57,4.05,2.02,4.19h10c.83-.94,1.62-2.22,1.94-3.46.04-.14.27-.73.03-.73h-13.98ZM21.74,54.94h-6.26l3.19,3.22,3.08-3.22ZM23.36,79.24c-.19-.55-.61-1.1-.95-1.59-1.11-1.6-2.46-3-3.75-4.46-1.54,1.53-3.05,3.22-4.24,5.04-.2.3-.44.67-.56,1.01h9.5ZM11.7,84.1h13.44s.39.11.38-.06c-.2-.42-.72-2.51-1.05-2.62h-11.79s-.99,2.68-.99,2.68Z"/></g></svg>