<?xml version="1.0" encoding="UTF-8"?><svg id="b" xmlns="http://www.w3.org/2000/svg" viewBox="0 0 83.86 83.86"><defs><style>.d{fill:#994799;}</style></defs><g id="c"><path class="d" d="M42.34,0c.53.18,1.37.84,1.37,1.44v5.14l5.75.69c.45-1.39.67-3.92,1.39-5.12.85-1.4,3.22-.78,3.27.94.03.93-1.48,4.71-1.18,5.14.16.23,4.53,1.54,5.08,2.17l2.81-4.56c1.44-1.2,3.48.23,2.83,2.01-.25.67-2.45,4.02-2.4,4.27l4.37,3.45c.27.09,3.11-3.09,3.65-3.48,1.87-1.09,3.77.94,2.24,2.79-.92,1.11-2.27,2.12-3.23,3.22,1.11,1.51,2.3,3.02,3.46,4.51.35.09,3.78-2.28,4.5-2.45,1.33-.34,2.54.88,2.19,2.19s-3.79,2.58-4.88,3.37l2.07,5.4,5.01-1.36c1.89-.04,2.58,2.49.93,3.4-.74.41-4.68,1.07-4.93,1.38.25,1.87.7,3.73.63,5.62h5.14c.55,0,1.19.79,1.44,1.23v1.1c-.19.35-.9,1.23-1.3,1.23h-5.28c.03,1.94-.34,3.86-.69,5.75,1.23.4,4.72.8,5.48,1.71.89,1.06.26,2.86-1.17,2.96-.88.06-4.97-1.44-5.26-1.23l-2.08,5.25c.04.26,3.97,2.04,4.54,2.75,1.05,1.33-.21,3.23-1.76,2.86-.84-.2-4.3-2.55-4.6-2.49l-3.51,4.44c0,.29,3.65,3.15,3.83,4.26.22,1.41-.7,2.32-2.11,2.11-1.11-.17-3.97-3.83-4.26-3.83l-4.43,3.51c-.06.32,2.12,3.55,2.37,4.3.58,1.71-1.12,3.13-2.66,2.11-.79-.52-2.56-4.55-2.83-4.59l-5.25,2.08c-.22.3,1.29,4.38,1.23,5.26-.11,1.65-2.47,2.2-3.33.72-.45-.78-1.16-4.76-1.47-4.97-1.86.26-3.73.71-5.62.63v5.28c0,.4-.88,1.11-1.23,1.3h-1.1c-.45-.25-1.23-.89-1.23-1.44v-5.14c-1.9.07-3.76-.38-5.62-.63-.28.22-.99,4.21-1.38,4.93-.88,1.6-3.4.96-3.41-.8,0-.85,1.46-4.75,1.22-5.12l-5.24-2.08c-1.08,1.39-2.43,6.3-4.87,4.59-2.15-1.51,1.31-4.68,1.75-6.41l-4.43-3.51c-.27,0-3.15,3.5-3.91,3.76-1.13.38-2.4-.29-2.47-1.51-.08-1.45,2.04-2.85,2.97-3.81.13-.13.84-.96.81-1.05l-3.45-4.37c-.44-.09-3.96,2.7-5.15,2.56-.83-.09-1.61-1-1.61-1.82,0-1.78,3.91-2.87,5.05-3.97l-2.16-5.06c-.09-.18-.3-.07-.45-.05-1.32.16-3.43,1.25-4.7,1.21-1.47-.05-2.28-1.81-1.31-2.95.73-.87,4.28-1.33,5.48-1.71l-.69-5.75H1.3c-.4,0-1.11-.88-1.3-1.23v-.96c.18-.47.91-1.37,1.44-1.37h5.14l.63-5.63c-.24-.31-4.24-.99-5-1.44-1.51-.9-.83-3.2.89-3.34l5.13,1.36c.53-1.86,1.32-3.63,2.19-5.34-1.39-1.06-6.42-2.49-4.72-4.93,1.34-1.92,4.22.7,5.68,1.44.28.14.55.33.87.35.6-.94,1.26-1.86,1.95-2.74.27-.35,1.25-1.31,1.36-1.52.05-.11.09-.17,0-.27-.74-1-3.6-3.07-3.77-4.19-.23-1.56,1.29-2.62,2.69-1.87.7.38,3.46,3.64,3.79,3.58,1.34-1.25,2.8-2.39,4.35-3.37-.37-1.7-3.52-4.55-2.14-6.22.59-.72,1.72-.85,2.47-.27.71.54,2.6,4.62,2.87,4.64l5.28-2.18-1.38-5.14c.14-1.71,2.45-2.38,3.35-.88.46.77,1.13,4.76,1.44,5l5.63-.63V1.44c0-.53.9-1.26,1.37-1.44h.82ZM64.05,64.87c17-16.48,10.86-45.05-11.36-52.95C27.19,2.85,2.64,27.73,12.06,53.1c7.94,21.4,35.5,27.76,51.99,11.77Z"/><path class="d" d="M49.43,19.63c.87-.18,1.58.18,2.07.88,1.21,3.05,3.2,6.22,4.3,9.27.84,2.35-1.42,3.65-3.1,2l-4.53-9.85c-.28-.93.29-2.1,1.27-2.3Z"/><path class="d" d="M39.29,27.71c.85-.17,1.75.17,2.15.94,1.18,2.89,2.75,5.65,3.94,8.53.4.97.84,1.69.17,2.69-.67,1.01-2.16.92-2.92.06-1.31-2.87-2.79-5.69-4.02-8.59-.25-.59-.72-1.43-.63-2.04.09-.67.61-1.44,1.31-1.58Z"/><path class="d" d="M48.75,31.96c.29-.05.57-.08.86.03,2.83,1.54,7.02,2.41,9.69,4.01,2.01,1.21.88,3.89-1.34,3.39l-9.79-4.05c-1.43-.83-1.12-3.12.59-3.4Z"/><path class="d" d="M36.96,56.62c1.05-.17,1.92.53,2.09,1.54-.3,3.07.39,6.87-.02,9.86-.3,2.18-3.33,2.32-3.56.02-.3-3.1.23-6.7.02-9.86.11-.75.71-1.43,1.46-1.56Z"/><path class="d" d="M35.04,13.32c1.22-.22,2.1.47,2.23,1.68.32,3.03-.23,6.63-.01,9.72-.31,2.27-3.34,1.99-3.55.15-.37-3.11.27-6.94.01-10.13.17-.66.62-1.29,1.32-1.41Z"/><path class="d" d="M15.45,48.12c.48-.07.94.1,1.33.38,1.88,2.37,4.85,4.58,6.64,6.92,1.5,1.96-.42,4-2.18,2.87l-6.86-7.12c-.98-1.09-.4-2.86,1.06-3.06Z"/><path class="d" d="M52.04,56.07c.75-.07,1.43.38,1.77,1.04,1.36,2.61,1.96,6.47,3.26,9.21.51,1.96-1.83,3.15-3.12,1.61l-3.47-9.55c-.31-1.07.44-2.21,1.55-2.31Z"/><path class="d" d="M61.75,21.97c1.33,1.8-.35,3.76-2.27,2.75l-6.99-7.12c-1.31-1.79.66-3.83,2.46-2.59,1.87,2.36,5.08,4.63,6.81,6.96Z"/><path class="d" d="M63.96,40.18c1.44-.25,2.47.93,2.06,2.32-.84,2.85-3.19,6.18-4.24,9.06-1.19,1.67-3.7.37-3.17-1.53l4.13-8.89c.3-.45.67-.87,1.23-.97Z"/><path class="d" d="M47.38,45.11c1.63-.24,2.71,1.71,1.6,2.97l-7.91,6.2c-1.81,1.03-3.58-1.18-2.2-2.75l7.74-6.1c.22-.14.52-.29.78-.32Z"/><path class="d" d="M27.5,18.12c1.52-.31,2.61.93,2.12,2.4l-5.24,8.6c-1.4,1.52-3.67.07-3.02-1.79,1.81-2.49,3.26-6.23,5.15-8.55.23-.28.62-.59.98-.66Z"/><path class="d" d="M55.05,49.91c1.17-.27,1.89.13,2.34,1.17,1.22,2.82,1.94,6.06,3.15,8.91.33,1.31-.56,2.51-1.94,2.36-1.17-.13-1.37-1.06-1.73-1.98-1.11-2.83-1.94-5.8-3.01-8.65-.05-.67.53-1.65,1.19-1.8Z"/><path class="d" d="M43.67,13.32c1.24-.26,2.2.57,2.24,1.81l-.43,9.73c-.52,2.1-3.34,1.96-3.56-.26.39-3.14-.04-6.79.43-9.86.09-.62.71-1.29,1.32-1.42Z"/><path class="d" d="M33.26,29.77c1.83-.38,3.01,1.73,1.69,3.06l-8.33,5.51c-2.11.89-3.62-1.62-1.82-3.05l8.46-5.52Z"/><path class="d" d="M32.52,36.22c.78-.78,2.36-.64,2.86.41l3.51,9.52c.19,1.97-2.41,2.9-3.38,1.04-1.38-2.65-2.03-6.34-3.38-9.09-.17-.64-.09-1.4.4-1.88Z"/><path class="d" d="M25.27,43.93c2.21,2.14,4.25,4.49,6.36,6.72.99,1.68-.88,3.43-2.51,2.38l-7.03-7.35c-.9-1.39.28-3.09,1.9-2.73.67.15.87.59,1.28.98Z"/><path class="d" d="M28.47,53.33c.7-.08,1.46.45,1.75,1.07.55,3,2,6.46,2.36,9.42.29,2.37-2.1,3.26-3.32,1.27-.49-2.99-2-6.49-2.36-9.42-.14-1.18.28-2.19,1.58-2.34Z"/><path class="d" d="M67.93,46.2c1.31-.15,2.4,1.28,1.82,2.52l-4.19,8.96c-1.34,1.56-3.71.37-3.15-1.64,1.56-2.6,2.52-6.4,4.16-8.86.31-.47.78-.91,1.37-.98Z"/><path class="d" d="M63.55,26.06c.69-.09,1.33.27,1.74.8,1.77,2.34,3.02,6.06,4.77,8.53.79,2.03-1.7,3.5-3.04,1.81l-4.83-8.6c-.43-1.12.14-2.37,1.37-2.54Z"/><path class="d" d="M47.18,58.97c1.41-1.17,3.63.45,2.77,2.15-1.79,2.42-3.17,6-5,8.29-1.43,1.78-3.74.57-3.22-1.44,1.52-2.5,2.9-5.12,4.48-7.57.21-.32.75-1.23.98-1.42Z"/><path class="d" d="M18.73,31.02c1.12-.03,2.04,1.12,1.83,2.21-.59,2.95-.43,6.33-1.05,9.23-.26,1.24-1.28,1.96-2.5,1.45-1.08-.45-1.02-1.6-.97-2.59.14-2.89.86-5.96.99-8.88.24-.74.88-1.4,1.7-1.42Z"/></g></svg>