<?xml version="1.0" encoding="UTF-8"?><svg id="b" xmlns="http://www.w3.org/2000/svg" viewBox="0 0 78.94 101.95"><defs><style>.d{fill:#d37816;}</style></defs><g id="c"><path class="d" d="M62.6,87.81h16.15c-.69,3.15,2.01,14.14-2.52,14.14H11.11v-14.14h14.64c.61,0,3.59-5.22,3.37-6.42-.31-1.67-6.17-5.13-7.92-7.21-1.38-1.65-1.76-4.55-2.01-4.55H0v-11.11h43.42c-.3,1.81.41,10.7,0,11.11-.67.67-6.66-1.33-7.07.99,15.04,5.98,28.81-4.64,27.25-20.7-.75-7.68-3.32-3.46-8.33-3.77-2.49-.15-6.39-2.8-7.18-2.67-1.57.26-4.02,4.69-5.71,5.43-2.15.94-4.34.14-6.34.73-1.6.47-2.76,2.79-4.75,3.42-1.49.47-3.11-.42-4.09-.03-1.38.55-2.49,3.72-4.36,3.39-1.29-.22-7.75-5.99-5.36-8.71,4.07-4.62.91-2.36,2.07-6.39.73-2.54,5.18-6.58,4.79-11.46L53.47,1.44c2.64.03,7.15-1.92,9.41-1.33.7.18,10.04,9.25,10.37,9.98.31.69-1.33,7.96-1.79,9.34-.7,2.09-3.87,3.09-3.66,5.09.1.95,1.35,2.17,1.62,3.46,3.07,14.99,11.28,21.99,3.47,39.32-2.53,5.62-12.01,13.15-12.18,14.07-.28,1.48,2.49,4.3,1.89,6.43ZM59.57,2c2.66,2.77,6.57,8.11,9.59,10.09,1.54,1.01,2.56.35,2.5-.51-.05-.79-9.69-10.59-12.1-9.58ZM54.27,20.38c-17.66,2.97-9.14,30.03,7.22,22.39,11.51-5.38,6.5-24.69-7.22-22.39ZM41.4,60.55H2.02v7.07h39.38v-7.07ZM60.58,87.81c-.76-8.2-7.63-3.3-13.58-2.99-7.7.4-16.25-5.3-18.73,2.99h32.31Z"/><path class="d" d="M55.24,25.39c8.23-1.26,10,10.84,3.61,12.73-11.11,3.28-11.92-11.45-3.61-12.73ZM52.75,28.49c-4.06,4.11,1.55,10.78,6.41,6.91s-2.27-11.1-6.41-6.91Z"/></g></svg>