<?xml version="1.0" encoding="UTF-8"?><svg id="b" xmlns="http://www.w3.org/2000/svg" viewBox="0 0 97.12 64.98"><defs><style>.d{fill:#d37816;}</style></defs><g id="c"><path class="d" d="M86.71,37.88c.23.23.52.55.74.8.17.2.75,1.08.86,1.15.15.09.45-.12.59-.2,2.02-1.11,3.74-3.49,4.35-5.69,2-7.24-4.28-13.94-11.61-12.4-.97.2-2.08.91-2.78-.22-.33-.54-.22-1.66-.31-2.34-1.14-9.22-11.52-14.5-19.71-10.05-.96.52-2.01,1.73-3.11.96-.38-.27-1.29-2.06-1.68-2.62C45.86-4.38,28.25-1.46,23.77,12c-.31.93-.23,1.99-1.36,2.3-.71.2-1.51.24-2.26.46-6.37,1.85-10.41,8.22-9.49,14.8.33,2.36,1.34,4.6,2.79,6.47l.23.02c5.86-2.34,12.63-.19,16.09,5.02,6.23-3.13,13.55-.09,15.61,6.55.09.28.18.98.28,1.16.13.21.67.08.92.19.62-4.51,4.07-8.43,8.43-9.68,2.17-.62,4.32-.63,6.5-.06.91.24,1.78.59,2.6,1.05,1.05-1.54,2.35-3,3.88-4.07,5.78-4.03,13.76-3.34,18.71,1.66Z"/><path class="d" d="M40.36,63c1.22,1.22,2.88,1.86,4.6,1.96,14.7-.06,29.41.11,44.1-.08,9.84-1.2,11.03-15.18,1.62-18.03-.93-.28-2.28-.17-2.69-1.18-.28-.68-.4-1.55-.72-2.29-3.65-8.51-15.43-9.6-20.68-1.96-.41.6-.91,1.87-1.6,2.05-.9.24-1.33-.37-2.02-.75-5.91-3.25-12.87.34-13.81,6.94-.08.57.05,1.21-.28,1.73-.72,1.13-2.15.24-3.21.16-6.23-.45-9.76,7.01-5.32,11.45Z"/><path class="d" d="M40.88,45.05c-2.39-2.51-6.23-3.25-9.4-1.81-.83.38-1.63,1.25-2.58,1.05-.73-.15-1.29-1.58-1.74-2.2-4.96-6.77-15.58-5.26-18.46,2.61-.28.77-.34,2-1.23,2.28-1.16.38-2.04.35-3.24.99-7.56,4.09-4.3,15.67,4.21,15.48h28.68s.08-.15.08-.15c-3.26-4.98-1.03-11.67,4.46-13.82.21-.08,1.27-.35,1.29-.48,0-.06-.22-.81-.26-.94-.35-1.04-1.06-2.23-1.82-3.02Z"/></g></svg>