<?xml version="1.0" encoding="UTF-8"?><svg id="b" xmlns="http://www.w3.org/2000/svg" viewBox="0 0 87.86 74.16"><defs><style>.d{fill:#064570;}</style></defs><g id="c"><path class="d" d="M40.07,15.76c.71.51,2.83-.71,3.09-.47.21.19,1.03,5.1,1.03,5.57-.03,1.95-2.82.98-3.12,1.27-.2.19-1,5.26-.94,5.53.22,1.08,2.37.63,2.51.77.85.81-1.99,5.53-2.91,6.3-1,.24-1.49-1.71-2.35-1.33-.27.12-4.11,3.92-4.11,4.21,0,.44,1.65,1.54,1.25,2.38-.46.97-5.52,3.09-6.07,2.61-.14-.13-.15-2.55-.84-2.63-.28-.03-5.26.87-5.45,1.08-.28.3.18,2.39-.02,2.61-.24.25-6.59-.29-6.84-.53-.4-.4,1.14-2.22.02-3.41-.17-.18-4.17-2.37-4.41-2.33-1.05.18-1.29,1.99-1.39,2.06-.88.58-4.27-3.72-5.24-4.48-.4-1.16,1.77-.87,2.03-2.16.05-.26-1.86-4.73-2.08-4.88-.67-.48-2.82.7-3.11.49S-.27,21.93.06,21.6c.65-.12,3,.17,3.16,0,.2-.21.55-5.44.29-5.81-.4-.56-1.93-.46-2.38-1.28,1.01-1.06,1.95-4.73,3.13-5.29.84-.4,1.94,1.26,2.38,1.25.29,0,4.11-3.84,4.23-4.11.34-.75-1.64-1.91-1.11-2.64.92-.55,5.41-3.18,6.06-2.62.05.55.27,2.58.84,2.63.25.02,4.78-.62,4.99-.75,1.67-1.11-1.92-3.53,3.85-2.86,5.83.67,1.96,2.49,2.65,3.64.13.22,4.06,2.29,4.49,2.4,1.79.43,1.69-1.81,2.37-1.88.51-.05,4.24,3.37,4.41,4.02.41,1.54-1.2,1.62-2.03,2.53,1.23.55,2.3,4.66,2.68,4.94ZM20.42,12.79c-10.42,1.68-9.74,16.95-.08,18.22,14.77,1.95,13.99-20.47.08-18.22Z"/><path class="d" d="M72.59,13.72c.2.74-1.17,2.99-1.05,3.14.07.09,1.61.36,2.22.67.89.45,2.59,1.78,3.3,1.96.32.08.73-2.28,2.02-2.05.63.11,4.54,4.11,4.53,4.42,0,.39-1.57.88-1.85,1.32-.84,1.29.88,2.75,1.45,3.84.34.64.35,1.87.42,1.94.25.25,2.61-1.3,3.44-.03.19.29.77,4.31.78,5.01.02,1.73-2.72.32-3.18.79-.21.21-.63,5.68-.56,5.97.19.84,2.78.62,2.66,1.12-.39.92-2.72,6.03-3.41,6.04-.26,0-1.14-1.83-2.59-1.61-.31.05-.77,1.4-1.32,1.91s-2.65,1.9-2.66,2.07c-.03.72,3.06,1.79.36,3.53-.55.35-4.06,1.97-4.33,1.94-.74-.08-.65-2.21-1.63-2.54-.26-.09-5.26.3-5.45.49-.17.16.12,2.51,0,3.16-.34.34-6.63-.78-6.84-1.06-.22-.3.99-2.36.47-3.09-.27-.38-4.39-1.45-4.94-2.69-1.35,2.96-2.51,2.24-4.49.28-3.49-3.44-1.1-2.61-.22-3.96.83-1.27-2.07-3.95-1.87-5.79-4.52,2.14-3.69-2.47-4.2-5.78.65-.12,2.99.17,3.16,0,.2-.2.04-4.59.9-5.55-.16-.97-2.3-1.12-2.44-1.32-.73-1.03,2.41-4.93,2.61-6.27.23-.16,1.46,1.21,2.08,1.38,1.3.36,6.93-4.48,3.17-5.85,1.65-1.85,4.12-2.48,6.29-3.42.05.56.3,2.37.59,2.57.24.16,5.52-.26,5.72-.47s-.52-2.72.85-3.11c.97-.28,4.6,1.13,5.98,1.02ZM66.03,25.57c-14.84-.25-10.5,23.25,3.41,17.83,9.2-3.58,6.44-17.66-3.41-17.83Z"/><path class="d" d="M36.87,46.79c.11.15,3.22,1.49,3.41,1.47.57-.05,1.29-1.42,1.57-1.43.2,0,2.84,2.69,2.89,2.89.26,1.19-1.67,1.12-1.57,1.56.04.18,1.49,3.24,1.65,3.34.63.38,2.32-.13,2.55.09.15.15.2,3.51.53,4.2-.52.47-2.46-1.52-2.61,2.97-.07,1.93,1.14,1.37,1.5,1.84.22.29-1.34,3.99-1.52,4.12-.58.4-2.03-1.45-2.61-1.05.1,1.29-1.56,1.92-1.86,2.64-.41.98.82,1.49-.56,2.54-3.28,2.51-3.05-.36-3.72-.5-.22-.04-3.69.45-3.82.59-.23.25.08,1.56-.03,2.08-.98,0-4.44-.38-4.61-1.3-.07-.37.69-1.39.39-1.82-.11-.15-2.96-.87-3.41-1.6-.82.58-.46,1.92-1.56,1.56l-2.89-2.9c-.44-1.21,1.81-.75,1.52-2.03-.04-.16-1.51-2.75-1.64-2.84-1.07-.7-2.12.82-2.54-1.93-.58-3.87,1.61-1.87,2.13-2.38-.58-1.06.65-4.03.53-4.2-.08-.11-2.24-.36-2.1-.79.65-.54,1.76-3.95,2.36-3.94.15,0,.81,1.12,1.51,1.01.19-.03,2.62-2.36,2.73-2.6.27-.59-1.23-1.53-.82-2.09.13-.18,3.96-1.66,4.14-1.53.53.39-.13,1.73,2.44,1.57,2.48-.16,1.42-1.97,2.15-2.19.5-.15,2.96-.06,3.55.11,1.49.42-.02,1.99.35,2.52ZM31.46,52.73c-7.95,1.64-5.95,14.18,2.91,12.37,7.4-1.51,5.46-14.1-2.91-12.37Z"/></g></svg>