<?xml version="1.0" encoding="UTF-8"?><svg id="b" xmlns="http://www.w3.org/2000/svg" viewBox="0 0 94.99 102.29"><defs><style>.d{fill:#a3195b;}.e{fill:#e8348a;}</style></defs><g id="c"><path class="d" d="M34.37,3.99c.37.23,3.15.23,3.52,0,.61-.39,0-3.17,2.22-3.6,1.1-.21,9.53-.19,10.34.09,1.49.51,1.04,3.39,2.02,3.62,4.95,1.17,2.94-2.95,4.89-3.62,1.1-.38,3.98-.41,4.43.92.76,2.27-1.41,10.2-.63,13.3-4.14,3.84-5.78,1.71-5.44,8.1.35,6.7,3.65,34.94,7.65,38.93,1.86,1.85,6.34,1.5,3.95,5.1-.68,1.02-2.73,1.62-2.92,2.6s3.07,5.7.13,7.48c-2.8,1.71-19.76,2.09-23.83,1.96-3.44-.11-10.86-.52-13.91-1.41-5.07-1.47-.87-6.58-1.15-8.04-.19-.98-2.24-1.58-2.92-2.6-2.4-3.6,2.09-3.25,3.95-5.1,3.12-3.11,5.01-17.09,5.7-21.88.42-2.96,2.55-20.23,1.79-21.54-.5-.87-4.92-2.48-5.28-3.6-.99-2.99.51-10.57-.71-14.31,6.02-1.8,5.38,3.07,6.21,3.6Z"/><path class="e" d="M83.71,46.01c3.65,2.51,3.88,7.96,2.19,11.82-.37.85-1.83,1.98-1.82,2.32.01.35,1.02,1,1.07,1.84.08,1.39-1.97,2.91-2.31,4.43-1.15,5.14,2.03,20.12,6.64,23.13,1.52.99,4.18.78,5.49,2.49.27,1.21-2.84,2.75-2.9,3.66-.04.63,2.02,3.48.98,5.13-.26.41-5.87,1.26-6.94,1.33-3.13.22-22.27.3-23.35-1.21-1.18-1.64.57-4.58.39-5.78-.09-.58-3.15-.91-2.54-3.7.22-1.03,4.77-1.19,5.61-2s3.37-5.59,3.92-6.96c1.42-3.5,2.99-11.26,2.64-14.87-.18-1.84-2-3.24-2.24-4.57-.2-1.09.47-2.04.36-2.83-.16-1.08-2.36-3.4-2.65-5.9-.98-8.52,8.4-13.19,15.46-8.34Z"/><path class="e" d="M7.02,74.56c-8.23-.92-3.67-3.77-3.96-7-.02-.22-3.03-1.74-3.06-3.12,1.34-1.68,3.83-1.5,5.45-2.49,5.06-3.08,7.81-17.82,6.77-23.24-.28-1.48-1.88-2.17-2.2-3.36-.38-1.42.81-2.07.79-2.77-.02-.57-2.69-3.51-2.82-6.22-.64-12.91,19.01-13.12,19.01-.53,0,3.46-2.98,6.35-2.97,6.73.01.4,1.18.97,1.01,2.32s-2.08,2.3-2.37,3.83c-1.05,5.51,3.29,15.77.62,19.01-1.59,1.93-5.54,1.93-6.12,5.53-.84,5.19,3.23,6.49,2.42,11.3-4.02-.32-8.63.44-12.56,0Z"/></g></svg>