<?xml version="1.0" encoding="UTF-8"?><svg id="b" xmlns="http://www.w3.org/2000/svg" viewBox="0 0 74.95 84.96"><defs><style>.d{fill:#064570;}</style></defs><g id="c"><path class="d" d="M2.4,82.55c-1.1-1-1.86-3.09-1.79-4.59,1.64-22.53-2-47.72.01-69.92C1.19,1.78,4.19,1.38,10.02.91c14.03-1.12,40.99-1.31,54.87,0,5.8.55,8.84,2.73,9.39,8.64,2.02,21.64-1.29,46.82-.36,68.78-.9,4.28-3.38,5.61-7.51,6-18.82-1.63-40.96,2.05-59.37-.02-1.39-.16-3.62-.84-4.63-1.76ZM66.74,6.95c-1.77-.33-2.96-1.31-4.86-1.52-10.37-1.19-39.23-1.2-49.6,0-1.4.16-3.33.66-4.17,1.84-.96,1.36-2.3,18.46,2.08,18.27l52.43.2c.99.2,4.11-1.22,4.11-1.89V6.95ZM7.6,45.07c1.22,1.22,10.43,1.4,11.84.56,2.06-1.21,2.01-9.63.8-11.32-1.86-2.61-4.18-1.03-6.45-1.01-3.88.03-6.43-1.83-7.14,4.05-.21,1.72-.21,6.57.94,7.72ZM47,32.71c-1.4-.05-9.56.64-9.96,1.22-1.18,10.16-1.49,13.59,9.84,12.1,2.49-.33,3.06-.92,3.38-3.38.45-3.37,1.03-9.79-3.26-9.94ZM35.21,45.24v-10.89c0-.08-1.05-1.13-1.13-1.13h-11.64c-3.16,12.96.65,14.63,12.77,12.01ZM53.41,73.6c1.25,1.24,12.36,2.17,13.19-1.1l-.22-37.77c-1.07-2.2-12.68-2.69-13.57.69.05,5.16-1.53,36.07.6,38.18ZM8.67,47.62c-2.35.79-4.27,11.94,1.34,12.68,8.92,1.17,12.77-.29,10.9-10.15-.67-3.53-9.71-3.38-12.24-2.53ZM23.72,47.65c-2.92.86-2.62,9.95-1.35,11.56,1.14,1.45,10.97,1.53,12.13.73,1.03-.71,1.08-10.73.38-11.73-.72-1.04-9.63-1-11.16-.55ZM36.81,59.4c3.98.9,12.72,2.97,13.45-2.49,1.23-9.19-1.27-10.64-10.21-9.46-5.5.73-2.83,7.75-3.24,11.94ZM7.6,62.69c-1.51,1.51-1.45,9.47.16,11.13,1.53,1.57,11.35,1.1,12.5-.35,1.25-1.58,1.19-10.16-.82-11.34-1.42-.84-10.62-.66-11.84.56ZM23.72,61.91c-2.92.86-2.62,9.72-1.33,11.54,1.83,2.59,11.18,2.22,12.49.36.76-1.08.6-9.8-.35-11-1.16-1.47-8.96-1.45-10.81-.9ZM38.74,61.91c-2.81.83-2.62,10.5-1.69,11.89.93,1.39,11.89,1.41,12.83,0,.78-1.16.61-9.79-.34-10.99-1.16-1.47-8.96-1.45-10.81-.9Z"/><path class="d" d="M52.48,9.58c.58-1.88,9.01-1.51,9.01,0v12.01c0,2.39-9.01,2.6-9.01.75,0-2.72-.56-10.96,0-12.77ZM59.99,21.97v-11.64c0-1.57-6.01-1.57-6.01,0v11.64h6.01Z"/><path class="d" d="M49.37,8.55c1.13.71,1.25,11.84.49,13.42-.93,1.91-6.51,2.08-7.92,1.15-1.91-1.25-2.93-13.94,1.15-14.67.93-.17,5.81-.19,6.28.11ZM48.72,9.95c-4.25-1.27-6.31-1.53-6.8,3.34-.67,6.62-.87,9.89,6.8,8.68v-12.01Z"/><path class="d" d="M31.22,8.6c8.75-2.6,8.69,4.91,7.68,11.43-.59,3.84-4.39,4.42-7.71,3.3-2.76-.93-3.26-13.76.03-14.74ZM37.46,9.95c-1.14-.59-6.76-1.47-6.76.38v11.64c1.25,0,6.76.44,6.76-1.13v-10.89Z"/></g></svg>