<svg xmlns="http://www.w3.org/2000/svg" xmlns:xlink="http://www.w3.org/1999/xlink" width="175" height="203.017" viewBox="0 0 175 203.017">
  <defs>
    <clipPath id="clip-path">
      <path id="Unión_1" data-name="Unión 1" d="M320.975,184.983H299v-147H474v147h-8.975a75.027,75.027,0,0,1-144.051,0Z" transform="translate(-998 202)" fill="#fff"/>
    </clipPath>
    <clipPath id="clip-path-2">
      <path id="Trazado_2197" data-name="Trazado 2197" d="M85.094,9C77.62,19.69,86.217,26.053,86.217,26.053c15.684,9.608,1.076,24.013-12.059,26.162-9.372,1.535-31.742,6.039-8.921,32.558,16.7,19.4,26.394,9.118,26.394,9.118-6.471,3.86-13.613-4.918-13.613-4.918,6.806,3.562,10.724-1.856,10.724-1.856C85.135,88.564,78.681,88.6,78.005,74.823c-.727-14.814,4.275-5.972,27.795-21.837,21.529-14.523,32.1-35.775,7.1-50.589A16.744,16.744,0,0,0,104.228,0C93.906,0,85.094,9,85.094,9" transform="translate(-55.304)" fill="none"/>
    </clipPath>
    <linearGradient id="linear-gradient" x1="-0.051" y1="1.591" x2="-0.045" y2="1.591" gradientUnits="objectBoundingBox">
      <stop offset="0" stop-color="#172a69"/>
      <stop offset="0.873" stop-color="#1d1e2b"/>
      <stop offset="1" stop-color="#1d1e2b"/>
    </linearGradient>
    <clipPath id="clip-path-3">
      <rect id="Rectángulo_445" data-name="Rectángulo 445" width="152.048" height="199.368" fill="none"/>
    </clipPath>
    <clipPath id="clip-path-4">
      <path id="Trazado_2201" data-name="Trazado 2201" d="M62.447,128.938c-2.578,1.056-4.625,2.113-8.313,2,0,0,4.938,2.594,6.658,22.673,0,0,25.083,1.173,34.738-15.4,0,0-5.854-9.98-17.686-11.053-1.767-.161-3.335-.232-4.737-.232a25.415,25.415,0,0,0-10.66,2.009" transform="translate(-54.134 -126.929)" fill="none"/>
    </clipPath>
    <linearGradient id="linear-gradient-2" x1="-1.271" y1="2.496" x2="-1.249" y2="2.496" gradientUnits="objectBoundingBox">
      <stop offset="0" stop-color="#a3195b"/>
      <stop offset="0.066" stop-color="#a3195b"/>
      <stop offset="1" stop-color="#9e73ac"/>
    </linearGradient>
    <clipPath id="clip-path-6">
      <path id="Trazado_2204" data-name="Trazado 2204" d="M94.328,94.289s.037.192.1.546c.5,2.928,2.6,17.011-1.662,26.607-4.783,10.756,15.387,20.2,21.023-2.5.732-2.949-4.436-13.409-4.5-36.5a9.45,9.45,0,0,0-4.221-1.015c-3.531,0-8.361,2.17-10.742,12.864" transform="translate(-92.037 -81.425)" fill="none"/>
    </clipPath>
    <linearGradient id="linear-gradient-3" x1="-2.116" y1="2.264" x2="-2.091" y2="2.264" gradientUnits="objectBoundingBox">
      <stop offset="0" stop-color="#f3914b"/>
      <stop offset="0.629" stop-color="#d87541"/>
      <stop offset="0.892" stop-color="#cc693d"/>
      <stop offset="1" stop-color="#cc693d"/>
    </linearGradient>
    <clipPath id="clip-path-8">
      <path id="Trazado_2206" data-name="Trazado 2206" d="M144.16,75.466c1.07.754,1.412.754,1.058,2.457s-2.454.689-2.192,3.274,2.76-.317,2.76-.317,4.838-6.967,4.823-9.053c0-.357-.224-.507-.586-.507-1.748,0-6.75,3.52-5.863,4.145" transform="translate(-143.004 -71.321)" fill="none"/>
    </clipPath>
    <linearGradient id="linear-gradient-4" x1="-9.258" y1="10.313" x2="-9.192" y2="10.313" gradientUnits="objectBoundingBox">
      <stop offset="0" stop-color="#f3914b"/>
      <stop offset="1" stop-color="#cc693d"/>
    </linearGradient>
    <clipPath id="clip-path-10">
      <path id="Trazado_2208" data-name="Trazado 2208" d="M72.589,49.469c-1.181,1.719-1.081,10.2-1.081,10.2s.44,3.8,2.107,1.81-.642-2.333.021-3.941.946-1.418,2.254-1.441c1.186-.022-1.519-6.861-2.915-6.862a.463.463,0,0,0-.385.234" transform="translate(-71.505 -49.235)" fill="none"/>
    </clipPath>
    <linearGradient id="linear-gradient-5" x1="-3.732" y1="11.075" x2="-3.676" y2="11.075" xlink:href="#linear-gradient-4"/>
    <clipPath id="clip-path-12">
      <path id="Trazado_2210" data-name="Trazado 2210" d="M74.94,35.761a24.669,24.669,0,0,1,2.271,7.557c3.928,3.475,4.658-8.619,4.658-8.619C90.721,12.87,108.6,26.773,108.6,26.773s22.487-2.7,18.822,20.57c0,0-5.609,10.741-.451,9.787a20.586,20.586,0,0,1,4.188-3.539c4.245-2.618,11.953-37.18-17.42-45.333a39.565,39.565,0,0,0-10.58-1.544c-23.293,0-30.028,25.055-28.22,29.048" transform="translate(-74.662 -6.713)" fill="none"/>
    </clipPath>
    <linearGradient id="linear-gradient-6" x1="-0.806" y1="2.578" x2="-0.795" y2="2.578" gradientUnits="objectBoundingBox">
      <stop offset="0" stop-color="#172a69"/>
      <stop offset="0.004" stop-color="#172a69"/>
      <stop offset="0.785" stop-color="#1d1e2b"/>
      <stop offset="1" stop-color="#1d1e2b"/>
    </linearGradient>
    <clipPath id="clip-path-13">
      <path id="Trazado_2211" data-name="Trazado 2211" d="M107.057,69.687s-.671,4.934-4.01,3.543a2.356,2.356,0,0,0-1.237,2.571s3.625,3.922,8.537,2.369c0,0,1.22-1.878.692-2.49s-2.638.559-.962-5.969c.718-2.794.619-3.724.169-3.724-.9,0-3.188,3.7-3.188,3.7" transform="translate(-101.752 -65.986)" fill="none"/>
    </clipPath>
    <linearGradient id="linear-gradient-7" x1="-4.273" y1="9.807" x2="-4.229" y2="9.807" gradientUnits="objectBoundingBox">
      <stop offset="0" stop-color="#f3914b"/>
      <stop offset="0.308" stop-color="#f18e4b"/>
      <stop offset="0.534" stop-color="#ea844b"/>
      <stop offset="0.735" stop-color="#e0744b"/>
      <stop offset="0.919" stop-color="#d15e4b"/>
      <stop offset="0.993" stop-color="#ca534c"/>
      <stop offset="1" stop-color="#ca534c"/>
    </linearGradient>
    <clipPath id="clip-path-14">
      <path id="Trazado_2212" data-name="Trazado 2212" d="M88.483,48.115s-3.016,4.146-3.06,7.357c-.072,5.19,11.154,7.628,13.8,4.535s1.634-9.8,1.634-9.8c-3.008-3.358-5.59-4.365-7.605-4.365a6.42,6.42,0,0,0-4.772,2.268" transform="translate(-85.424 -45.847)" fill="none"/>
    </clipPath>
    <linearGradient id="linear-gradient-8" x1="-3.184" y1="8.787" x2="-3.145" y2="8.787" xlink:href="#linear-gradient-4"/>
    <clipPath id="clip-path-16">
      <path id="Trazado_2217" data-name="Trazado 2217" d="M84.772,58.1s3.481,5.844,14.2,4.666c0,0,.013-5.285-6.057-6.814a11.466,11.466,0,0,0-2.789-.373c-3.933,0-5.351,2.52-5.351,2.52" transform="translate(-84.772 -55.578)" fill="none"/>
    </clipPath>
    <clipPath id="clip-path-17">
      <path id="Trazado_2218" data-name="Trazado 2218" d="M121.946,57.353S118.2,61.995,119,65.987s12.189,7.868,14.2,3.083a15.329,15.329,0,0,0,.809-8.368s-.688-4.491-6.352-4.491a17.341,17.341,0,0,0-5.711,1.141" transform="translate(-118.887 -56.212)" fill="none"/>
    </clipPath>
    <linearGradient id="linear-gradient-9" x1="-3.792" y1="7.283" x2="-3.759" y2="7.283" xlink:href="#linear-gradient-4"/>
    <clipPath id="clip-path-19">
      <path id="Trazado_2223" data-name="Trazado 2223" d="M118.96,68.541c8.77,6.269,14.665,2.875,14.665,2.875s-.4-4.324-6.445-5.96a9.269,9.269,0,0,0-2.43-.345,6.441,6.441,0,0,0-5.79,3.43" transform="translate(-118.96 -65.111)" fill="none"/>
    </clipPath>
    <clipPath id="clip-path-21">
      <path id="Trazado_2234" data-name="Trazado 2234" d="M131.151,124.7c-5.983,19.177,10.748,32.027,10.748,32.027,8.2-10.567,26.6-9.665,26.6-9.665-7.711-4.96-3.543-8.658-17.54-18.73-6.142-4.42-10.708-5.66-13.9-5.66-4.08,0-5.911,2.028-5.911,2.028" transform="translate(-129.859 -122.667)" fill="none"/>
    </clipPath>
    <linearGradient id="linear-gradient-10" x1="-1.602" y1="2.152" x2="-1.588" y2="2.152" xlink:href="#linear-gradient-2"/>
  </defs>
  <g id="avatar" transform="translate(699 -239.983)">
    <circle id="Elipse_4" data-name="Elipse 4" cx="75" cy="75" r="75" transform="translate(-680 291)" fill="#fff" stroke="#36a9e1" stroke-width="4"/>
    <g id="Enmascarar_grupo_4" data-name="Enmascarar grupo 4" clip-path="url(#clip-path)">
      <g id="Grupo_979" data-name="Grupo 979" transform="translate(-687.524 256.108)">
        <g id="Grupo_936" data-name="Grupo 936" transform="translate(41.219)">
          <g id="Grupo_935" data-name="Grupo 935" clip-path="url(#clip-path-2)">
            <rect id="Rectángulo_444" data-name="Rectángulo 444" width="138.092" height="134.96" transform="translate(-58.222 77.743) rotate(-59.753)" fill="url(#linear-gradient)"/>
          </g>
        </g>
        <g id="Grupo_938" data-name="Grupo 938">
          <g id="Grupo_937" data-name="Grupo 937" clip-path="url(#clip-path-3)">
            <path id="Trazado_2198" data-name="Trazado 2198" d="M59.583,154.959s-17.442-22.11-6.7-22.733c7.174-.416,14.932,20.716,6.7,22.733" transform="translate(-12.577 -33.674)" fill="#001823"/>
            <path id="Trazado_2199" data-name="Trazado 2199" d="M67.576,148.586s-39.847,4.7-55.722,8.152C2.806,158.7-.636,142.232,3.728,141.066c1.859-.5,72.254-18.863,63.847,7.52" transform="translate(-0.471 -34.225)" fill="#f28c44"/>
            <path id="Trazado_2200" data-name="Trazado 2200" d="M51.914,134.776c2.264,5.412,4.461,11.231,5.386,16.975,12.58-1.7,23.027-3.163,23.027-3.163,4.231-13.281-11.5-15.221-28.412-13.812" transform="translate(-13.221 -34.225)" fill="#dd7731"/>
          </g>
        </g>
        <g id="Grupo_940" data-name="Grupo 940" transform="translate(40.347 94.603)">
          <g id="Grupo_939" data-name="Grupo 939" clip-path="url(#clip-path-4)">
            <rect id="Rectángulo_446" data-name="Rectángulo 446" width="34.469" height="45.518" transform="translate(-4.653 27.055) rotate(-80.242)" fill="url(#linear-gradient-2)"/>
          </g>
        </g>
        <g id="Grupo_942" data-name="Grupo 942">
          <g id="Grupo_941" data-name="Grupo 941" clip-path="url(#clip-path-3)">
            <path id="Trazado_2202" data-name="Trazado 2202" d="M125.523,220.582c-6.217-9.008-8-33.713-5.222-38.677,9.336-16.688,14.85-53.694-2.756-56.61C93.3,121.279,78.04,129,78.04,129c-9.776,1.761-18.947,25.428-9.889,50.883,1.907,5.359,7.426,31.36-.435,43.029,13.587,14.7,38.73,6.478,57.807-2.334" transform="translate(-16.411 -31.615)" fill="#a3195b"/>
            <path id="Trazado_2203" data-name="Trazado 2203" d="M91.587,126.5s-8.635,13.121,1.682,23.776c10.269,10.6,27.049-14.638,23.187-25.738,0,0-14.313-1.739-24.869,1.962" transform="translate(-22.463 -31.613)" fill="#f28c44"/>
          </g>
        </g>
        <g id="Grupo_944" data-name="Grupo 944" transform="translate(68.597 60.688)">
          <g id="Grupo_943" data-name="Grupo 943" clip-path="url(#clip-path-6)">
            <rect id="Rectángulo_448" data-name="Rectángulo 448" width="29.749" height="61.563" transform="translate(-7.3 0.175) rotate(-3.092)" fill="url(#linear-gradient-3)"/>
          </g>
        </g>
        <g id="Grupo_946" data-name="Grupo 946">
          <g id="Grupo_945" data-name="Grupo 945" clip-path="url(#clip-path-3)">
            <path id="Trazado_2205" data-name="Trazado 2205" d="M145.468,70.453s7.134-5.41,6.819-1.067S141.63,89.768,140.716,82.069a12.632,12.632,0,0,1,4.752-11.617" transform="translate(-35.812 -17.241)" fill="#f28c44"/>
          </g>
        </g>
        <g id="Grupo_948" data-name="Grupo 948" transform="translate(106.584 53.157)">
          <g id="Grupo_947" data-name="Grupo 947" clip-path="url(#clip-path-8)">
            <rect id="Rectángulo_450" data-name="Rectángulo 450" width="11.301" height="14.271" transform="matrix(0.952, -0.306, 0.306, 0.952, -3.875, 1.17)" fill="url(#linear-gradient-4)"/>
          </g>
        </g>
        <g id="Grupo_950" data-name="Grupo 950">
          <g id="Grupo_949" data-name="Grupo 949" clip-path="url(#clip-path-3)">
            <path id="Trazado_2207" data-name="Trazado 2207" d="M76.085,50.517s-2.875-8.48-5.048-4.707-2.6,22.852,2.471,16.99a12.633,12.633,0,0,0,2.577-12.284" transform="translate(-17.7 -11.421)" fill="#f28c44"/>
          </g>
        </g>
        <g id="Grupo_952" data-name="Grupo 952" transform="translate(53.294 36.696)">
          <g id="Grupo_951" data-name="Grupo 951" clip-path="url(#clip-path-10)">
            <rect id="Rectángulo_452" data-name="Rectángulo 452" width="13.239" height="14.704" transform="matrix(0.787, -0.616, 0.616, 0.787, -7.008, 5.41)" fill="url(#linear-gradient-5)"/>
          </g>
        </g>
        <g id="Grupo_954" data-name="Grupo 954">
          <g id="Grupo_953" data-name="Grupo 953" clip-path="url(#clip-path-3)">
            <path id="Trazado_2209" data-name="Trazado 2209" d="M112.586,16.361a31.418,31.418,0,0,0-29.05,6.575L75.8,50.817a23.271,23.271,0,0,0,.037,12.767c2.1,7.179,6.826,18.108,17.021,25.14,0,0,13.8-2.214,24.561-10.932a23.476,23.476,0,0,0,7.811-11.978l8.385-30.208a31.4,31.4,0,0,0-21.027-19.246" transform="translate(-19.081 -3.873)" fill="#f28c44"/>
          </g>
        </g>
        <g id="Grupo_956" data-name="Grupo 956" transform="translate(55.647 5.003)">
          <g id="Grupo_955" data-name="Grupo 955" clip-path="url(#clip-path-12)">
            <rect id="Rectángulo_454" data-name="Rectángulo 454" width="68.217" height="81.17" transform="matrix(0.267, -0.964, 0.964, 0.267, -14.768, 47.696)" fill="url(#linear-gradient-6)"/>
          </g>
        </g>
        <g id="Grupo_958" data-name="Grupo 958" transform="translate(75.838 49.181)">
          <g id="Grupo_957" data-name="Grupo 957" clip-path="url(#clip-path-13)">
            <rect id="Rectángulo_455" data-name="Rectángulo 455" width="16.884" height="15.39" transform="translate(-6.007 10.72) rotate(-62.055)" fill="url(#linear-gradient-7)"/>
          </g>
        </g>
        <g id="Grupo_960" data-name="Grupo 960" transform="translate(63.668 34.171)">
          <g id="Grupo_959" data-name="Grupo 959" clip-path="url(#clip-path-14)">
            <rect id="Rectángulo_456" data-name="Rectángulo 456" width="19.507" height="18.892" transform="translate(-2.595 16.875) rotate(-81.493)" fill="url(#linear-gradient-8)"/>
          </g>
        </g>
        <g id="Grupo_962" data-name="Grupo 962">
          <g id="Grupo_961" data-name="Grupo 961" clip-path="url(#clip-path-3)">
            <path id="Trazado_2213" data-name="Trazado 2213" d="M89.53,47.617s3.765-4.266,12.3,2.334c0,0-6.534-11.908-12.3-2.334" transform="translate(-22.801 -11.179)" fill="#1d1e2b"/>
            <path id="Trazado_2214" data-name="Trazado 2214" d="M85.424,57.634s3.14,6.425,13.8,4.536c0,0-.374-6.141-6.3-7.555s-7.5,3.019-7.5,3.019" transform="translate(-21.756 -13.838)"/>
            <path id="Trazado_2215" data-name="Trazado 2215" d="M85.3,58.217s3.346,5.8,13.8,4.536a8.117,8.117,0,0,0-6.334-6.879C86.865,54.4,85.3,58.217,85.3,58.217" transform="translate(-21.724 -14.144)" fill="#fff"/>
          </g>
        </g>
        <g id="Grupo_964" data-name="Grupo 964" transform="translate(63.182 41.423)">
          <g id="Grupo_963" data-name="Grupo 963" clip-path="url(#clip-path-16)">
            <path id="Trazado_2216" data-name="Trazado 2216" d="M94.135,55.364a2.48,2.48,0,0,0-1.4.177,1.925,1.925,0,0,1,.473,1.681A2.021,2.021,0,0,1,90.9,58.828a1.828,1.828,0,0,1-.53-.215c-.016.065-.04.124-.054.189-.45,2.2.532,4.233,2.193,4.535S95.878,62.1,96.327,59.9s-.531-4.233-2.192-4.535" transform="translate(-86.155 -55.514)" fill="#432918"/>
          </g>
        </g>
        <g id="Grupo_966" data-name="Grupo 966" transform="translate(88.609 41.896)">
          <g id="Grupo_965" data-name="Grupo 965" clip-path="url(#clip-path-17)">
            <rect id="Rectángulo_458" data-name="Rectángulo 458" width="22.437" height="21.916" transform="matrix(0.355, -0.935, 0.935, 0.355, -6.538, 15.422)" fill="url(#linear-gradient-9)"/>
          </g>
        </g>
        <g id="Grupo_968" data-name="Grupo 968">
          <g id="Grupo_967" data-name="Grupo 967" clip-path="url(#clip-path-3)">
            <path id="Trazado_2219" data-name="Trazado 2219" d="M135.054,60.188s-1.488-5.492-12.062-3.35c0,0,11.128-7.787,12.062,3.35" transform="translate(-31.323 -13.801)" fill="#1d1e2b"/>
            <path id="Trazado_2220" data-name="Trazado 2220" d="M133.293,70.642s-5.882,4.067-14.257-2.8c0,0,2.343-5.7,8.2-4.03a7.815,7.815,0,0,1,6.055,6.826" transform="translate(-30.316 -16.175)"/>
            <path id="Trazado_2221" data-name="Trazado 2221" d="M133.217,71.34s-5.755,3.421-14.257-2.8c0,0,2.348-4.688,8.219-3.086s6.038,5.881,6.038,5.881" transform="translate(-30.297 -16.586)" fill="#fff"/>
          </g>
        </g>
        <g id="Grupo_970" data-name="Grupo 970" transform="translate(88.663 48.529)">
          <g id="Grupo_969" data-name="Grupo 969" clip-path="url(#clip-path-19)">
            <path id="Trazado_2222" data-name="Trazado 2222" d="M127.97,64.425a2.487,2.487,0,0,0-1.367.349,1.926,1.926,0,0,1,.677,1.61,2.022,2.022,0,0,1-2.1,1.879,1.845,1.845,0,0,1-.551-.147c-.007.066-.025.127-.03.195-.174,2.24,1.05,4.134,2.736,4.229s3.194-1.644,3.369-3.885-1.051-4.134-2.737-4.229" transform="translate(-120.393 -64.935)" fill="#432918"/>
          </g>
        </g>
        <g id="Grupo_972" data-name="Grupo 972">
          <g id="Grupo_971" data-name="Grupo 971" clip-path="url(#clip-path-3)">
            <path id="Trazado_2224" data-name="Trazado 2224" d="M120.588,27.348s6.8-14.175,4.734-18.077c0,0,1.234-.963,3.595,1.585s-6.566,15.97-8.329,16.492" transform="translate(-30.711 -2.316)" fill="#064570"/>
            <path id="Trazado_2225" data-name="Trazado 2225" d="M107.446,7.233s5.257,8.249,3.678,16.1c0,0-1.67-8.755-3.678-16.1" transform="translate(-27.364 -1.842)" fill="#064570"/>
            <path id="Trazado_2226" data-name="Trazado 2226" d="M91.233,13.3A10.143,10.143,0,0,1,97.4,24.483S95.127,17.388,91.233,13.3" transform="translate(-23.235 -3.388)" fill="#064570"/>
            <path id="Trazado_2227" data-name="Trazado 2227" d="M80.849,25.886a7.882,7.882,0,0,1,8.489,3.171,11.351,11.351,0,0,0-9.966-.788s-.408-1.044,1.476-2.384" transform="translate(-20.205 -6.528)" fill="#064570"/>
            <path id="Trazado_2228" data-name="Trazado 2228" d="M132.432,31.193s8.644-8.9,12.188-7.666a2.171,2.171,0,0,0-1.488-1.663c-1.266-.337-5.98.336-10.7,9.329" transform="translate(-33.728 -5.552)" fill="#064570"/>
            <path id="Trazado_2229" data-name="Trazado 2229" d="M143.4,42.6s4.781-4.288,8.324-2c0,0,.633.306.62,2,0,0-2.685-3.03-8.945,0" transform="translate(-36.522 -10.168)" fill="#064570"/>
            <path id="Trazado_2230" data-name="Trazado 2230" d="M90.148,84.343c3.027,1.11,14.609,5.1,24.292,4.979a.353.353,0,0,1,.259.618c-3.357,2.887-17.672,13.679-25.017-5.12a.366.366,0,0,1,.466-.477" transform="translate(-22.834 -21.474)" fill="#2b120a"/>
            <path id="Trazado_2231" data-name="Trazado 2231" d="M145.729,164.565s33.27-5.082,26.7-9.683-32.468,2.874-26.7,9.683" transform="translate(-36.902 -39.084)" fill="#001823"/>
            <path id="Trazado_2232" data-name="Trazado 2232" d="M135.764,139.583s26.874,44.426,34.8,56.746,16.03-2.675,14.461-6.417c-.668-1.594-25.2-81.949-49.265-50.329" transform="translate(-34.576 -33.673)" fill="#f28c44"/>
            <path id="Trazado_2233" data-name="Trazado 2233" d="M169.4,152.7c-9.252-16.539-21.5-29.06-33.632-13.119,0,0,5.881,9.721,12.951,21.33a45.19,45.19,0,0,1,20.68-8.21" transform="translate(-34.576 -33.674)" fill="#dd7731"/>
          </g>
        </g>
        <g id="Grupo_974" data-name="Grupo 974" transform="translate(96.787 91.426)">
          <g id="Grupo_973" data-name="Grupo 973" clip-path="url(#clip-path-21)">
            <rect id="Rectángulo_461" data-name="Rectángulo 461" width="54.129" height="55.046" transform="matrix(0.656, -0.755, 0.755, 0.656, -21.552, 19.401)" fill="url(#linear-gradient-10)"/>
          </g>
        </g>
        <g id="Grupo_976" data-name="Grupo 976">
          <g id="Grupo_975" data-name="Grupo 975" clip-path="url(#clip-path-3)">
            <path id="Trazado_2235" data-name="Trazado 2235" d="M19.983,136.252S7.639,130.058,16.006,88.8c0,0-6.882-5.956-10.013,1.421S-2.519,116.8,1.342,139.632c0,0,.576,5.082,8.262,5.19,4.478.063,9.7-5.464,10.379-8.57" transform="translate(0 -22.037)" fill="#f28c44"/>
            <path id="Trazado_2236" data-name="Trazado 2236" d="M17.289,82.668s5.011-2.745,7.655-9.855c1.022-2.747,1.26-3.733-.567-4.751s-5.863,5.231-4-2.631c1.285-7.42-12.441-3.5-12.718-3.323-4.288,3.928-3.771,12.337-4.526,16.4a13.134,13.134,0,0,1,3.519,5.105c.681,1.583.735,3.476,3.861,3.827,0,0,2.8,1.575,6.776-4.772" transform="translate(-0.798 -15.514)" fill="#f28c44"/>
            <path id="Trazado_2237" data-name="Trazado 2237" d="M25.307,71.3s1.637,2.047,5.009-.6c0,0,3.16-7.3,3.7-9.276a17.421,17.421,0,0,1,2.208-4.739s-5.143-4.182-6.595,3.44C28.7,65,25.38,66.242,24.174,67.236s.193,3.15,1.133,4.063" transform="translate(-6.038 -14.144)" fill="#f28c44"/>
            <path id="Trazado_2238" data-name="Trazado 2238" d="M179.051,204.321s-13.866,8.016-42.284,18.847c0,0-1.53,8.389,4.685,8.767s29.56-1.894,43.773-13.244c0,0,3.27-2.264.5-9.4-1.617-4.159-4.29-5.4-6.67-4.968" transform="translate(-34.789 -52.015)" fill="#f28c44"/>
            <path id="Trazado_2239" data-name="Trazado 2239" d="M145.026,90.158a3.088,3.088,0,1,1-1.849-3.815,3,3,0,0,1,1.849,3.815" transform="translate(-35.421 -21.936)" fill="#f9ce64"/>
            <path id="Trazado_2240" data-name="Trazado 2240" d="M67.076,68.417a3.087,3.087,0,1,0,3.669-2.122,3,3,0,0,0-3.669,2.122" transform="translate(-17.064 -16.861)" fill="#f9ce64"/>
            <path id="Trazado_2241" data-name="Trazado 2241" d="M107.047,181.757l-.194,3.881a7.587,7.587,0,1,1-15.155-.757l.194-3.892c-.866,1.012-1.134,3.845-1.134,3.845a8.528,8.528,0,1,0,17.034.851,9.473,9.473,0,0,0-.746-3.928" transform="translate(-23.111 -46.094)" fill="#fff"/>
            <path id="Trazado_2242" data-name="Trazado 2242" d="M106.011,178.54l-.312,6.246a5.831,5.831,0,1,1-11.648-.582l.311-6.219a9.847,9.847,0,0,0-.991,1l-.259,5.176a6.772,6.772,0,0,0,13.527.676l.257-5.148s-.554-.789-.885-1.145" transform="translate(-23.711 -45.329)" fill="#fff"/>
            <path id="Trazado_2243" data-name="Trazado 2243" d="M104.88,176.754l-.376,7.523a4.013,4.013,0,0,1-8.016-.4l.376-7.534a8.824,8.824,0,0,0-.97.561l-.346,6.926a4.954,4.954,0,1,0,9.895.494l.344-6.9a4.8,4.8,0,0,0-.908-.67" transform="translate(-24.333 -44.91)" fill="#fff"/>
            <path id="Trazado_2244" data-name="Trazado 2244" d="M103.726,175.747l-.411,8.229a2.194,2.194,0,1,1-4.383-.219l.411-8.239a3.976,3.976,0,0,0-.941.289l-.394,7.9a3.119,3.119,0,1,0,6.231.311l.4-7.932a6.893,6.893,0,0,0-.909-.343" transform="translate(-24.959 -44.701)" fill="#fff"/>
            <path id="Trazado_2245" data-name="Trazado 2245" d="M101.745,175.281l-.423,8.5a.4.4,0,0,0,.8.04l.425-8.5a7.151,7.151,0,0,1,.972.149l-.42,8.4a1.379,1.379,0,1,1-2.755-.138l.414-8.4a6.614,6.614,0,0,1,.991-.048" transform="translate(-25.554 -44.637)" fill="#fff"/>
            <path id="Trazado_2246" data-name="Trazado 2246" d="M92.711,200.813l-.158,3.161c-.078,1.558-1.1,2.218-2.6,2.143s-2.454-.833-2.376-2.392l.158-3.161,1.955.1-.149,2.976c-.021.419-.025.788.5.814s.553-.342.574-.76l.149-2.976Z" transform="translate(-22.302 -51.079)" fill="#fff"/>
            <path id="Trazado_2247" data-name="Trazado 2247" d="M95.3,200.944l1.874.094,1.608,3.05.057,0a7.948,7.948,0,0,1-.1-1.368l.08-1.6,1.868.093-.267,5.343-1.868-.093-1.58-2.893-.057,0a6.187,6.187,0,0,1,.068,1.077l-.086,1.736-1.869-.093Z" transform="translate(-24.204 -51.176)" fill="#fff"/>
            <path id="Trazado_2248" data-name="Trazado 2248" d="M103.457,201.352l3.618.18-.073,1.46-1.648-.082-.025.51,1.506.075-.069,1.389-1.506-.075-.027.524,1.705.086-.073,1.459-3.674-.183Z" transform="translate(-26.28 -51.28)" fill="#fff"/>
            <path id="Trazado_2249" data-name="Trazado 2249" d="M109.029,206.986l2.475.124a2.515,2.515,0,0,0,2.834-2.458c.1-1.963-1.247-2.819-3.051-2.909l-1.992-.1Zm2.138-3.573.121.006c.713.036,1.132.377,1.095,1.128-.035.7-.549.974-1.2.942l-.121-.006Z" transform="translate(-27.767 -51.354)" fill="#fff"/>
            <path id="Trazado_2250" data-name="Trazado 2250" d="M91.247,85.288s13.723,5.466,22.034,4.267l-.795,1.294s-9.576,2.122-20.856-4.26Z" transform="translate(-23.239 -21.721)" fill="#e7f4f7"/>
            <path id="Trazado_2251" data-name="Trazado 2251" d="M96.053,94.634s4.709,5.195,11.4,2.559c0,0-.739-3.424-11.4-2.559" transform="translate(-24.463 -24.066)" fill="#8e0919"/>
            <path id="Trazado_2252" data-name="Trazado 2252" d="M4.311,63.227s.6-1.682,3.186-2.042,12.138-2.123,13.209.2-.8,6.2-.8,6.2-5.3,4.893-5.966,10.448-11.05.288-11.05.288-1.656-2.058.083-3.484c0,0-1.411-3.392-.221-4.909a7.433,7.433,0,0,0,1.558-6.707" transform="translate(-0.555 -15.333)" fill="#f28c44"/>
            <path id="Trazado_2253" data-name="Trazado 2253" d="M140.94,224.683s-7.35-6.117-9.806-.791c0,0-2.58,3.975-4.545,3.607s0,3.071,0,3.071l-3.166,3.071s.622,3.317,2.569,3.317,5.019,7.37,11.283,9.212l10.642-11.055s6.882-8.948-6.978-10.432" transform="translate(-31.433 -56.466)" fill="#f28c44"/>
          </g>
        </g>
      </g>
    </g>
  </g>
</svg>
