<?xml version="1.0" encoding="UTF-8"?><svg id="b" xmlns="http://www.w3.org/2000/svg" viewBox="0 0 2776.99 336.2"><defs><style>.d{fill:#fff;}</style></defs><g id="c"><path class="d" d="M658.55,336.2h427.85s-.1-22.68-22.79-23c0,0,27.56-64.54-45.74-33.98,0,0-15.61-51.56-64.65-10.11,0,0-66.66-9.83-70.67,29.02,0,0-4.75-37.04-32.35-18.91,0,0-35.37-103.86-85.88-44.81,0,0-93.24-52.83-93.24,14.76,0,0-69.67,24.09-57.76,58.27,0,0-85.19-26.93-77.84,15.28h99.73s-.07,13.46,23.33,13.46Z"/><path class="d" d="M3.57,117.69h444.4s1.06-30.11-28.67-24.67c0,0-23.83-33.58-51.65-17.96,0,0-6.93-69.06-50.01-34.1,0,0-74.07-7.26-56.63,48.43,0,0-3.97-26.67-46.87-11.13,0,0,16.4-75.24-47.83-45,0,0-60.35-26.48-71.22,25.57,0,0-51.68-16.11-50.7,16.03,0,0-59.28-28.07-40.81,42.83Z"/><path class="d" d="M1929.5,155.51h-312.12s-2.95-28.55,23.67-30.37h-155.23s-11.8-40.93,66.77-35.75c0,0,9.42-68.11,81.68-41.95,0,0,60.93-82.62,136.14-29.78,0,0,119.49-25.64,150.57,34.19,0,0,75.29-9.42,73.77,59,0,0,107.18-26.65,108,12.34h-199.34s48.6,3.15,26.09,32.33"/><path class="d" d="M2775.65,220.44h-495.71s-3.88-33.06,27.97-30.9c0,0,27.97-51.46,61.38-28.92,0,0,52.65-95.52,128.11-35.72,0,0,4.82-65.27,77.79-8.79,0,0,69.93-53.39,90.13,11.87,0,0,54.39-5.5,34.19,46.98,0,0,89.35-28.33,76.14,45.48Z"/><path class="d" d="M844.65,100.61h302.39s11.77-22.8-23.21-17.53c0,0,2.62-48.1-60.08-26.86,0,0-35.24-37.29-55.57-8.8,0,0-29.95-28.88-50.01,13.4,0,0,8.34-57.95-39.66-42.41,0,0-56.48-34.19-58.07,25.64,0,0-61.85,6.65-15.79,56.55Z"/></g></svg>