<?xml version="1.0" encoding="UTF-8"?><svg xmlns="http://www.w3.org/2000/svg" xmlns:xlink="http://www.w3.org/1999/xlink" viewBox="0 0 610.47 244.14"><defs><style>.f{opacity:.85;}.g{fill:#76c5dd;}.h,.i,.j,.k,.l,.m{opacity:.25;}.h,.i,.k,.m{mix-blend-mode:multiply;}.h,.n,.o{fill:#36a9e1;}.i,.p{fill:#a3195b;}.q,.j{fill:#fff;}.j,.l{mix-blend-mode:overlay;}.r{fill:none;}.s{fill:#7c1249;}.t{fill:#8fdbf9;}.u{isolation:isolate;}.v{fill:#419ab5;}.w{clip-path:url(#d);}.x{clip-path:url(#e);}.m,.y{fill:#064570;}.z{fill:#d13386;}.o{stroke:#fff;stroke-linecap:round;stroke-linejoin:round;stroke-width:3px;}.aa{fill:#b4e8f9;}</style><clipPath id="d"><ellipse class="r" cx="80.27" cy="120.54" rx="45.27" ry="33.59" transform="translate(-64.48 125.2) rotate(-58.18)"/></clipPath><clipPath id="e"><ellipse class="r" cx="80.27" cy="120.54" rx="45.27" ry="33.59" transform="translate(-64.48 125.2) rotate(-58.18)"/></clipPath></defs><g class="u"><g id="b"><g id="c"><path class="p" d="M136.98,138.15c-.83,0-1.5-.67-1.5-1.5v-35.68c0-.83.67-1.5,1.5-1.5h7.38c6.1,0,11.23,1.65,15.28,4.9,4.14,3.33,6.24,8.12,6.24,14.25s-2.08,11.17-6.18,14.55c-4.01,3.3-9.22,4.98-15.48,4.98h-7.24ZM142.99,131.08c2.27,0,4.35-.22,6.18-.67,1.78-.43,3.41-1.13,4.86-2.07,1.38-.9,2.43-2.11,3.21-3.71.79-1.61,1.19-3.57,1.19-5.82s-.4-4.25-1.19-5.87c-.78-1.59-1.84-2.8-3.22-3.68-1.46-.93-3.1-1.62-4.87-2.06-1.81-.44-3.88-.67-6.15-.67h-.06v24.54h.06Z"/><path class="q" d="M144.36,100.98c5.77,0,10.55,1.52,14.34,4.57,3.79,3.04,5.68,7.41,5.68,13.08s-1.88,10.3-5.63,13.39c-3.75,3.09-8.6,4.64-14.53,4.64h-7.24v-35.68h7.38M141.43,132.58h1.56c2.4,0,4.57-.24,6.53-.71,1.96-.47,3.73-1.23,5.32-2.27,1.59-1.04,2.84-2.48,3.74-4.31.9-1.83,1.35-3.99,1.35-6.48s-.45-4.7-1.35-6.53c-.9-1.83-2.15-3.26-3.76-4.28-1.61-1.02-3.38-1.77-5.32-2.25-1.94-.47-4.11-.71-6.51-.71h-1.56v27.54M144.36,97.98h-7.38c-1.66,0-3,1.34-3,3v35.68c0,1.66,1.34,3,3,3h7.24c6.62,0,12.15-1.79,16.43-5.32,4.46-3.67,6.72-8.96,6.72-15.71s-2.29-11.79-6.8-15.42c-4.31-3.47-9.77-5.23-16.22-5.23h0ZM144.43,129.55v-21.47c1.59.07,3.05.27,4.36.59,1.61.39,3.1,1.02,4.42,1.86,1.15.73,2.02,1.74,2.68,3.07.69,1.41,1.04,3.16,1.04,5.21s-.35,3.75-1.04,5.16c-.66,1.35-1.54,2.37-2.69,3.12-1.3.85-2.78,1.48-4.39,1.87-1.32.32-2.79.52-4.39.59h0Z"/><path class="p" d="M177.53,138.91c-3.74,0-6.79-1.28-9.04-3.81-2.21-2.48-3.34-5.62-3.34-9.33s1.06-7.1,3.15-9.58c2.15-2.55,5.23-3.85,9.14-3.85s6.82,1.29,8.88,3.85c1.98,2.46,2.98,5.63,2.98,9.43v.66c0,.83-.67,1.5-1.5,1.5h-15.21c.23,1,.68,1.89,1.36,2.69.94,1.11,2.13,1.65,3.63,1.65,1.22,0,2.21-.26,2.94-.79.82-.59,1.63-1.53,2.41-2.8.28-.46.78-.72,1.28-.72.25,0,.5.06.74.19l3.6,2.03c.71.4.97,1.31.58,2.03-1.17,2.12-2.79,3.81-4.83,5.02-2.04,1.21-4.31,1.82-6.75,1.82ZM181.57,121.57c-.26-.56-.6-1.04-1.04-1.45-.79-.73-1.81-1.09-3.1-1.09s-2.31.38-3.18,1.17c-.44.4-.8.85-1.07,1.36h8.38Z"/><path class="q" d="M177.44,113.85c3.38,0,5.95,1.1,7.71,3.29s2.65,5.02,2.65,8.49v.66h-16.89c.03,1.99.66,3.71,1.89,5.16,1.23,1.45,2.82,2.18,4.78,2.18,1.54,0,2.82-.35,3.81-1.06.99-.71,1.93-1.79,2.81-3.24l3.6,2.03c-1.04,1.89-2.47,3.38-4.28,4.45-1.81,1.07-3.81,1.61-5.99,1.61-3.31,0-5.95-1.1-7.93-3.31-1.97-2.21-2.96-4.98-2.96-8.33,0-3.53.93-6.4,2.79-8.61,1.86-2.21,4.53-3.31,8-3.31M171.14,123.07h12.4c-.25-1.7-.92-3.05-1.99-4.05-1.07-.99-2.44-1.49-4.12-1.49s-3.04.52-4.19,1.56c-1.15,1.04-1.85,2.37-2.11,3.97M177.44,110.85c-4.38,0-7.84,1.47-10.29,4.38-2.32,2.75-3.5,6.3-3.5,10.54s1.25,7.56,3.72,10.33c2.55,2.86,5.97,4.31,10.16,4.31,2.71,0,5.24-.68,7.51-2.03,2.27-1.34,4.09-3.22,5.38-5.58.77-1.39.31-3.13-1.02-3.98.84-.53,1.39-1.47,1.39-2.53v-.66c0-4.16-1.11-7.65-3.31-10.38-2.36-2.92-5.74-4.41-10.05-4.41h0ZM174.91,129.29h5.62c-.3.34-.6.62-.89.83-.47.34-1.16.51-2.07.51-1.08,0-1.83-.33-2.49-1.12-.06-.07-.12-.14-.18-.22h0Z"/><path class="p" d="M197.83,138.91c-1.95,0-3.79-.53-5.46-1.58-1.71-1.07-2.93-2.54-3.61-4.36-.28-.74.07-1.57.78-1.89l3.64-1.66c.2-.09.41-.13.62-.13.53,0,1.04.28,1.32.78,1.02,1.85,2.03,2.06,2.71,2.06.55,0,.99-.16,1.37-.5.34-.3.49-.64.49-1.12,0-.14,0-.55-.84-1.13l-4.09-2.19c-1.63-.88-2.81-1.75-3.63-2.66-.94-1.05-1.42-2.48-1.42-4.24,0-2.21.8-4.11,2.37-5.64,1.56-1.52,3.47-2.3,5.66-2.3,3.34,0,5.9,1.63,7.4,4.72.35.73.07,1.6-.64,1.98l-3.45,1.85c-.22.12-.46.18-.71.18-.16,0-.31-.02-.46-.07-.39-.13-.71-.4-.89-.77-.47-.97-1-1.1-1.49-1.1-.16,0-.36.03-.61.25-.2.18-.21.3-.21.42s.01.22.04.31c.28.22.49.41.67.57,0,0,.13.11.53.32.39.2.69.36.9.46.21.1.55.25,1.03.46.56.24.94.41,1.15.51,1.7.78,3.11,1.73,4.15,2.81,1.19,1.23,1.79,2.86,1.79,4.83,0,2.5-.92,4.63-2.72,6.32-1.78,1.67-3.93,2.51-6.4,2.51Z"/><path class="q" d="M197.73,113.85c2.78,0,4.79,1.29,6.06,3.88l-3.45,1.85c-.63-1.29-1.58-1.94-2.84-1.94-.6,0-1.14.21-1.61.64s-.71.94-.71,1.54c0,.28.04.54.12.78.08.24.24.46.47.66.24.21.44.39.61.54.17.16.46.34.85.54.39.21.7.36.92.47.22.11.59.28,1.11.5.52.22.88.38,1.06.47,1.58.73,2.82,1.56,3.74,2.51.91.95,1.37,2.21,1.37,3.79,0,2.08-.75,3.82-2.25,5.23-1.5,1.4-3.29,2.11-5.37,2.11-1.67,0-3.23-.45-4.66-1.35-1.44-.9-2.44-2.11-3-3.62l3.64-1.66c1.04,1.89,2.38,2.84,4.02,2.84.91,0,1.7-.29,2.37-.88.66-.58.99-1.33.99-2.25s-.52-1.72-1.56-2.41l-4.16-2.22c-1.45-.79-2.52-1.57-3.22-2.34-.69-.77-1.04-1.85-1.04-3.24,0-1.8.64-3.32,1.92-4.57s2.82-1.87,4.61-1.87M197.73,110.85c-2.56,0-4.88.94-6.71,2.72-1.85,1.8-2.82,4.12-2.82,6.71,0,2.14.61,3.91,1.81,5.25.74.82,1.72,1.6,2.97,2.37-.14.04-.28.09-.42.15l-3.64,1.66c-1.44.65-2.12,2.31-1.57,3.78.8,2.14,2.22,3.86,4.22,5.11,1.91,1.2,4.02,1.81,6.25,1.81,2.86,0,5.35-.98,7.42-2.92,2.09-1.96,3.2-4.52,3.2-7.42,0-2.34-.77-4.37-2.21-5.87-.91-.95-2.07-1.8-3.44-2.55l2.41-1.29c1.42-.76,1.99-2.51,1.28-3.96-1.78-3.64-4.8-5.56-8.75-5.56h0ZM197.83,130.62c-.15,0-.48,0-.95-.6l1.11.59s-.09.01-.16.01h0Z"/><path class="p" d="M219.78,138.91c-3.67,0-6.84-1.27-9.44-3.78-2.61-2.52-3.94-5.67-3.94-9.36s1.32-7.03,3.93-9.59c2.6-2.54,5.86-3.83,9.69-3.83,2.5,0,4.73.56,6.62,1.67.46.27.74.76.74,1.29v5.49c0,.62-.39,1.19-.97,1.4-.17.06-.35.1-.53.1-.43,0-.84-.18-1.13-.51-1.45-1.66-3.15-2.47-5.21-2.47-1.63,0-2.98.6-4.13,1.84-1.18,1.27-1.75,2.72-1.75,4.42,0,1.88.57,3.38,1.73,4.59,1.15,1.19,2.6,1.77,4.44,1.77s3.48-.79,4.93-2.43c.29-.33.7-.5,1.12-.5.18,0,.36.03.53.1.58.22.97.78.97,1.4v5.44c0,.55-.31,1.06-.79,1.32-2.04,1.09-4.33,1.64-6.81,1.64Z"/><path class="q" d="M220.02,113.85c2.24,0,4.19.49,5.87,1.47v5.49c-1.74-1.99-3.85-2.98-6.34-2.98-2.05,0-3.79.77-5.23,2.32-1.44,1.55-2.15,3.36-2.15,5.44,0,2.27.72,4.15,2.15,5.63,1.44,1.48,3.27,2.22,5.51,2.22s4.32-.98,6.06-2.93v5.44c-1.83.98-3.86,1.47-6.1,1.47-3.28,0-6.08-1.12-8.4-3.36-2.32-2.24-3.48-5-3.48-8.28s1.16-6.25,3.48-8.52,5.2-3.41,8.64-3.41M220.02,110.85c-4.23,0-7.85,1.43-10.73,4.26-2.91,2.85-4.38,6.43-4.38,10.66s1.48,7.62,4.39,10.44c2.89,2.79,6.41,4.2,10.48,4.2,2.73,0,5.26-.61,7.52-1.82.98-.52,1.59-1.54,1.59-2.65v-5.44c0-1.25-.77-2.36-1.94-2.8-.35-.13-.71-.2-1.06-.2-.84,0-1.66.35-2.24,1.01-1.16,1.31-2.38,1.92-3.81,1.92s-2.49-.42-3.36-1.31c-.89-.92-1.31-2.05-1.31-3.54,0-1.33.43-2.41,1.35-3.4.87-.94,1.81-1.36,3.03-1.36,1.62,0,2.92.62,4.08,1.95.58.67,1.41,1.03,2.26,1.03.35,0,.71-.06,1.05-.19,1.17-.44,1.95-1.56,1.95-2.81v-5.49c0-1.07-.57-2.05-1.49-2.59-2.13-1.25-4.61-1.88-7.38-1.88h0Z"/><path class="p" d="M239.65,138.91c-3.6,0-6.36-1.09-8.19-3.25-1.78-2.08-2.68-4.92-2.68-8.43v-12.73c0-.83.67-1.5,1.5-1.5h4.26c.83,0,1.5.67,1.5,1.5v12.25c0,1.76.3,3.13.89,4.08.17.27.67,1.09,2.72,1.09s2.56-.82,2.72-1.09c.59-.95.89-2.33.89-4.08v-12.25c0-.83.67-1.5,1.5-1.5h4.26c.83,0,1.5.67,1.5,1.5v12.73c0,3.51-.9,6.34-2.68,8.43-1.84,2.15-4.59,3.25-8.19,3.25Z"/><path class="q" d="M249.02,114.51v12.73c0,3.15-.77,5.64-2.32,7.45-1.55,1.81-3.9,2.72-7.05,2.72s-5.5-.91-7.05-2.72c-1.55-1.81-2.32-4.3-2.32-7.45v-12.73h4.26v12.25c0,2.05.37,3.68,1.11,4.87.74,1.2,2.07,1.8,4,1.8s3.26-.6,4-1.8c.74-1.2,1.11-2.82,1.11-4.87v-12.25h4.26M249.02,111.51h-4.26c-1.66,0-3,1.34-3,3v12.25c0,1.45-.23,2.59-.66,3.3-.21.34-1.08.38-1.45.38-.28,0-1.23-.03-1.45-.37-.44-.7-.66-1.84-.66-3.3v-12.25c0-1.66-1.34-3-3-3h-4.26c-1.66,0-3,1.34-3,3v12.73c0,3.87,1.02,7.04,3.04,9.4,2.13,2.5,5.27,3.77,9.33,3.77s7.2-1.27,9.33-3.77c2.01-2.36,3.04-5.53,3.04-9.4v-12.73c0-1.66-1.34-3-3-3h0Z"/><path class="p" d="M266.25,138.91c-1.77,0-3.45-.45-4.99-1.34-.4-.23-.78-.48-1.14-.75-.08.75-.72,1.33-1.49,1.33h-4.26c-.83,0-1.5-.67-1.5-1.5v-41.07c0-.83.67-1.5,1.5-1.5h4.26c.83,0,1.5.67,1.5,1.5v18.86c1.79-1.39,3.9-2.1,6.31-2.1,3.54,0,6.46,1.33,8.67,3.96,2.15,2.56,3.24,5.63,3.24,9.13,0,3.68-1.07,6.86-3.18,9.44-2.18,2.67-5.18,4.03-8.92,4.03ZM265.39,119.13c-1.65,0-2.94.59-3.93,1.79-1.06,1.3-1.58,2.82-1.58,4.66s.51,3.43,1.56,4.74c.97,1.21,2.26,1.8,3.94,1.8,1.79,0,3.13-.58,4.12-1.77,1.06-1.28,1.57-2.84,1.57-4.77s-.52-3.42-1.59-4.69c-1-1.19-2.35-1.76-4.11-1.76Z"/><path class="q" d="M258.63,95.58v22.62h.09c1.92-2.9,4.49-4.35,7.71-4.35s5.6,1.14,7.52,3.43c1.92,2.29,2.89,5.01,2.89,8.16,0,3.34-.95,6.17-2.84,8.49s-4.48,3.48-7.76,3.48c-1.51,0-2.93-.38-4.23-1.14-1.31-.76-2.41-1.78-3.29-3.08h-.09v3.45h-4.26v-41.07h4.26M265.39,133.62c2.24,0,4-.77,5.28-2.32,1.28-1.54,1.92-3.45,1.92-5.73s-.65-4.12-1.94-5.65c-1.29-1.53-3.04-2.29-5.25-2.29s-3.81.78-5.09,2.34-1.92,3.43-1.92,5.61.63,4.1,1.89,5.68c1.26,1.58,2.96,2.37,5.11,2.37M258.63,92.58h-4.26c-1.66,0-3,1.34-3,3v41.07c0,1.66,1.34,3,3,3h4.26c.75,0,1.44-.28,1.97-.73,1.74.99,3.64,1.49,5.65,1.49,4.21,0,7.6-1.54,10.08-4.58,2.33-2.86,3.51-6.35,3.51-10.39s-1.21-7.26-3.59-10.09c-2.51-2.99-5.82-4.5-9.82-4.5-1.73,0-3.34.33-4.81.98v-16.24c0-1.66-1.34-3-3-3h0ZM265.39,130.62c-1.23,0-2.08-.38-2.77-1.24-.83-1.04-1.24-2.28-1.24-3.8s.41-2.69,1.24-3.71c.7-.86,1.56-1.24,2.76-1.24,1.33,0,2.24.38,2.96,1.23.83.98,1.23,2.2,1.23,3.72s-.4,2.81-1.23,3.81c-.47.57-1.24,1.23-2.96,1.23h0Z"/><path class="p" d="M281.29,138.15c-.83,0-1.5-.67-1.5-1.5v-22.14c0-.83.67-1.5,1.5-1.5h4.26c.63,0,1.18.39,1.4.95.09-.07.17-.13.26-.2,1.31-.94,2.84-1.42,4.54-1.42,1.48,0,2.93.45,4.31,1.32.65.41.88,1.25.53,1.94l-1.94,3.88c-.21.41-.59.71-1.05.8-.1.02-.2.03-.29.03-.36,0-.71-.13-.98-.36-.42-.36-.95-.53-1.62-.53-.81,0-1.47.15-1.94.46-.45.29-.78.69-.99,1.22-.29.72-.48,1.43-.57,2.11-.1.73-.15,1.59-.15,2.56v10.88c0,.83-.67,1.5-1.5,1.5h-4.26Z"/><path class="q" d="M291.75,113.85c1.2,0,2.37.36,3.5,1.09l-1.94,3.88c-.69-.6-1.56-.9-2.6-.9-1.1,0-2.02.23-2.74.69-.73.46-1.25,1.1-1.59,1.94-.33.84-.55,1.66-.66,2.46-.11.8-.17,1.73-.17,2.77v10.88h-4.26v-22.14h4.26v3.6h.14c.54-1.32,1.33-2.37,2.39-3.12,1.06-.76,2.28-1.14,3.67-1.14M291.75,110.85c-1.66,0-3.19.39-4.56,1.15-.47-.31-1.04-.49-1.64-.49h-4.26c-1.66,0-3,1.34-3,3v22.14c0,1.66,1.34,3,3,3h4.26c1.66,0,3-1.34,3-3v-10.88c0-.9.05-1.7.14-2.36.08-.56.24-1.16.48-1.77.12-.3.26-.42.4-.51.23-.14.64-.22,1.14-.22.45,0,.58.12.64.17.55.47,1.25.73,1.96.73.2,0,.39-.02.59-.06.91-.18,1.68-.77,2.09-1.6l1.94-3.88c.69-1.37.23-3.04-1.07-3.87-1.62-1.04-3.34-1.56-5.12-1.56h0Z"/><path class="p" d="M298.56,138.15c-.83,0-1.5-.67-1.5-1.5v-22.14c0-.83.67-1.5,1.5-1.5h4.26c.83,0,1.5.67,1.5,1.5v22.14c0,.83-.67,1.5-1.5,1.5h-4.26ZM300.69,108.77c-1.21,0-2.3-.45-3.14-1.29-.84-.84-1.29-1.91-1.29-3.1s.44-2.29,1.28-3.15c.85-.87,1.94-1.33,3.16-1.33s2.31.46,3.16,1.33c.84.86,1.28,1.95,1.28,3.15s-.45,2.25-1.29,3.1c-.84.84-1.93,1.29-3.14,1.29Z"/><path class="q" d="M300.69,101.4c.82,0,1.51.29,2.08.88.57.58.85,1.29.85,2.11s-.28,1.47-.85,2.03c-.57.57-1.26.85-2.08.85s-1.51-.28-2.08-.85-.85-1.25-.85-2.03.28-1.52.85-2.11c.57-.58,1.26-.88,2.08-.88M302.82,114.51v22.14h-4.26v-22.14h4.26M300.69,98.4c-1.63,0-3.1.62-4.23,1.78-1.11,1.15-1.7,2.6-1.7,4.2s.6,3.02,1.73,4.16c1.13,1.13,2.59,1.73,4.2,1.73s3.07-.6,4.2-1.73c1.13-1.13,1.73-2.57,1.73-4.16s-.59-3.05-1.7-4.2c-1.14-1.17-2.6-1.78-4.23-1.78h0ZM302.82,111.51h-4.26c-1.66,0-3,1.34-3,3v22.14c0,1.66,1.34,3,3,3h4.26c1.66,0,3-1.34,3-3v-22.14c0-1.66-1.34-3-3-3h0Z"/><path class="p" d="M318.81,138.91c-3.74,0-6.79-1.28-9.04-3.81-2.21-2.48-3.34-5.62-3.34-9.33s1.06-7.1,3.15-9.58c2.15-2.55,5.23-3.85,9.14-3.85s6.82,1.29,8.88,3.85c1.98,2.46,2.98,5.63,2.98,9.43v.66c0,.83-.67,1.5-1.5,1.5h-15.21c.23,1,.68,1.89,1.36,2.69.94,1.11,2.13,1.65,3.63,1.65,1.22,0,2.21-.26,2.94-.79.82-.59,1.63-1.53,2.41-2.8.28-.46.78-.72,1.28-.72.25,0,.5.06.74.19l3.6,2.03c.71.4.97,1.31.58,2.03-1.17,2.12-2.79,3.81-4.83,5.02-2.04,1.21-4.31,1.82-6.75,1.82ZM322.85,121.57c-.26-.56-.6-1.04-1.04-1.45-.79-.73-1.81-1.09-3.1-1.09s-2.31.38-3.18,1.17c-.44.4-.8.85-1.07,1.36h8.38Z"/><path class="q" d="M318.72,113.85c3.38,0,5.95,1.1,7.71,3.29s2.65,5.02,2.65,8.49v.66h-16.89c.03,1.99.66,3.71,1.89,5.16,1.23,1.45,2.82,2.18,4.78,2.18,1.54,0,2.82-.35,3.81-1.06.99-.71,1.93-1.79,2.81-3.24l3.6,2.03c-1.04,1.89-2.47,3.38-4.28,4.45-1.81,1.07-3.81,1.61-5.99,1.61-3.31,0-5.95-1.1-7.93-3.31-1.97-2.21-2.96-4.98-2.96-8.33,0-3.53.93-6.4,2.79-8.61,1.86-2.21,4.53-3.31,8-3.31M312.42,123.07h12.4c-.25-1.7-.92-3.05-1.99-4.05-1.07-.99-2.44-1.49-4.12-1.49s-3.04.52-4.19,1.56c-1.15,1.04-1.85,2.37-2.11,3.97M318.72,110.85c-4.38,0-7.84,1.47-10.29,4.38-2.32,2.75-3.5,6.3-3.5,10.54s1.25,7.56,3.72,10.33c2.55,2.86,5.97,4.31,10.16,4.31,2.71,0,5.24-.68,7.51-2.03,2.27-1.34,4.09-3.22,5.38-5.58.77-1.39.31-3.13-1.02-3.98.84-.53,1.39-1.47,1.39-2.53v-.66c0-4.16-1.11-7.65-3.31-10.38-2.36-2.92-5.74-4.41-10.05-4.41h0ZM316.19,129.29h5.62c-.3.34-.6.62-.89.83-.47.34-1.16.51-2.07.51-1.08,0-1.83-.33-2.49-1.12-.06-.07-.12-.14-.18-.22h0Z"/><path class="p" d="M347.34,138.15c-.83,0-1.5-.67-1.5-1.5v-12.68c0-2.35-.39-3.49-.71-4.03-.42-.7-1.85-.81-2.66-.81-.72,0-1.34.09-1.84.25-.37.12-.64.31-.84.57-.33.43-.59.85-.79,1.23-.08.16-.24.57-.34,1.42-.09.8-.14,1.42-.16,1.84-.02.47-.02,1.14-.02,2.03v10.17c0,.83-.67,1.5-1.5,1.5h-4.26c-.83,0-1.5-.67-1.5-1.5v-22.14c0-.83.67-1.5,1.5-1.5h4.26c.62,0,1.15.38,1.38.92.25-.17.51-.32.79-.46,1.42-.74,2.97-1.12,4.6-1.12,3.41,0,5.88,1.08,7.34,3.21,1.34,1.95,2.01,4.61,2.01,7.9v13.2c0,.83-.67,1.5-1.5,1.5h-4.26Z"/><path class="q" d="M343.75,113.85c2.9,0,4.94.85,6.1,2.56,1.17,1.7,1.75,4.05,1.75,7.05v13.2h-4.26v-12.68c0-2.18-.31-3.78-.92-4.8-.61-1.02-1.93-1.54-3.95-1.54-.88,0-1.66.11-2.32.33-.66.22-1.18.58-1.56,1.09-.38.5-.69.99-.92,1.44-.24.46-.4,1.1-.5,1.94-.09.84-.15,1.49-.17,1.96-.02.47-.02,1.17-.02,2.08v10.17h-4.26v-22.14h4.26v2.98h.09c.63-1.17,1.55-2.07,2.77-2.7,1.21-.63,2.52-.95,3.9-.95M343.75,110.85c-1.79,0-3.5.4-5.08,1.18-.48-.33-1.06-.52-1.68-.52h-4.26c-1.66,0-3,1.34-3,3v22.14c0,1.66,1.34,3,3,3h4.26c1.66,0,3-1.34,3-3v-10.17c0-.91,0-1.55.02-1.98.01-.39.06-.97.15-1.73.08-.67.18-.91.18-.91.15-.3.38-.64.65-1.01,0,0,0,0,0,0,0,0,.04-.02.11-.05.35-.12.82-.18,1.37-.18.88,0,1.29.13,1.44.19.15.32.44,1.19.44,3.15v12.68c0,1.66,1.34,3,3,3h4.26c1.66,0,3-1.34,3-3v-13.2c0-3.6-.77-6.54-2.28-8.75-1.21-1.76-3.67-3.86-8.58-3.86h0Z"/><path class="p" d="M366.36,138.91c-3.74,0-6.74-1.36-8.92-4.03-2.11-2.58-3.18-5.76-3.18-9.44s1.09-6.57,3.24-9.13c2.21-2.63,5.13-3.96,8.67-3.96,2.41,0,4.52.7,6.31,2.1v-18.86c0-.83.67-1.5,1.5-1.5h4.26c.83,0,1.5.67,1.5,1.5v41.07c0,.83-.67,1.5-1.5,1.5h-4.26c-.77,0-1.41-.58-1.49-1.33-.36.27-.74.53-1.14.75-1.53.89-3.21,1.34-4.99,1.34ZM367.03,119.13c-1.65,0-2.94.59-3.93,1.79-1.06,1.3-1.58,2.82-1.58,4.66s.51,3.43,1.56,4.74c.97,1.21,2.26,1.8,3.94,1.8,1.79,0,3.13-.58,4.12-1.77,1.06-1.28,1.57-2.84,1.57-4.77s-.52-3.42-1.59-4.69c-1-1.19-2.35-1.76-4.11-1.76Z"/><path class="q" d="M378.24,95.58v41.07h-4.26v-3.45h-.09c-.88,1.29-1.98,2.32-3.29,3.08-1.31.76-2.72,1.14-4.23,1.14-3.28,0-5.87-1.16-7.76-3.48s-2.84-5.15-2.84-8.49c0-3.15.96-5.87,2.89-8.16,1.92-2.29,4.43-3.43,7.52-3.43s5.79,1.45,7.71,4.35h.09v-22.62h4.26M367.03,133.62c2.24,0,4-.77,5.28-2.32,1.28-1.54,1.92-3.45,1.92-5.73s-.65-4.12-1.94-5.65c-1.29-1.53-3.04-2.29-5.25-2.29s-3.81.78-5.09,2.34c-1.28,1.56-1.92,3.43-1.92,5.61s.63,4.1,1.89,5.68c1.26,1.58,2.96,2.37,5.11,2.37M378.24,92.58h-4.26c-1.66,0-3,1.34-3,3v16.24c-1.47-.65-3.08-.98-4.81-.98-4,0-7.31,1.51-9.82,4.5-2.38,2.83-3.59,6.23-3.59,10.09s1.18,7.53,3.52,10.39c2.48,3.04,5.87,4.58,10.08,4.58,2.01,0,3.91-.5,5.65-1.49.53.46,1.21.73,1.97.73h4.26c1.66,0,3-1.34,3-3v-41.07c0-1.66-1.34-3-3-3h0ZM367.03,130.62c-1.23,0-2.08-.38-2.77-1.24-.83-1.04-1.24-2.28-1.24-3.8s.4-2.69,1.24-3.71c.7-.86,1.56-1.24,2.76-1.24,1.33,0,2.24.38,2.96,1.23.83.98,1.23,2.2,1.23,3.72s-.4,2.81-1.23,3.81c-.47.57-1.24,1.23-2.96,1.23h0Z"/><path class="p" d="M393.62,138.91c-3.71,0-6.89-1.29-9.46-3.84-2.57-2.55-3.87-5.73-3.87-9.44s1.3-6.89,3.87-9.44c2.57-2.55,5.75-3.84,9.46-3.84s6.89,1.29,9.46,3.84c2.57,2.55,3.87,5.73,3.87,9.44s-1.3,6.89-3.87,9.44c-2.57,2.55-5.75,3.84-9.46,3.84ZM393.62,119.42c-1.68,0-3.08.6-4.27,1.82-1.21,1.23-1.8,2.67-1.8,4.39s.59,3.12,1.8,4.37c1.2,1.24,2.6,1.84,4.27,1.84s3.07-.6,4.27-1.84c1.21-1.25,1.8-2.68,1.8-4.37s-.59-3.16-1.8-4.39c-1.2-1.22-2.6-1.82-4.27-1.82Z"/><path class="q" d="M393.62,113.85c3.31,0,6.11,1.14,8.4,3.41,2.29,2.27,3.43,5.06,3.43,8.38s-1.14,6.1-3.43,8.37c-2.29,2.27-5.09,3.41-8.4,3.41s-6.11-1.14-8.4-3.41c-2.29-2.27-3.43-5.06-3.43-8.37s1.14-6.1,3.43-8.38c2.29-2.27,5.09-3.41,8.4-3.41M393.62,133.34c2.08,0,3.86-.76,5.35-2.29,1.48-1.53,2.22-3.34,2.22-5.42s-.74-3.93-2.22-5.44c-1.48-1.51-3.27-2.27-5.35-2.27s-3.86.76-5.35,2.27c-1.48,1.51-2.22,3.33-2.22,5.44s.74,3.89,2.22,5.42c1.48,1.53,3.26,2.29,5.35,2.29M393.62,110.85c-4.12,0-7.65,1.44-10.51,4.28-2.86,2.84-4.32,6.38-4.32,10.5s1.45,7.66,4.32,10.5c2.86,2.84,6.39,4.28,10.51,4.28s7.65-1.44,10.51-4.28c2.86-2.84,4.32-6.38,4.32-10.5s-1.45-7.66-4.32-10.5c-2.86-2.84-6.4-4.28-10.51-4.28h0ZM393.62,130.34c-1.26,0-2.28-.44-3.19-1.38-.94-.97-1.38-2.03-1.38-3.33s.43-2.39,1.37-3.34c.92-.94,1.93-1.37,3.2-1.37s2.29.44,3.2,1.37c.93.95,1.37,2.01,1.37,3.34s-.44,2.36-1.38,3.33c-.91.94-1.93,1.38-3.19,1.38h0Z"/><rect class="p" x="410.31" y="105.93" width="6.03" height="32.23" rx="1.5" ry="1.5"/><path class="q" d="M414.84,107.43v29.23h-3.03v-29.23h3.03M414.84,104.43h-3.03c-1.66,0-3,1.34-3,3v29.23c0,1.66,1.34,3,3,3h3.03c1.66,0,3-1.34,3-3v-29.23c0-1.66-1.34-3-3-3h0Z"/><path class="p" d="M425.48,138.69c-2.77,0-5.01-1.02-6.66-3.02-1.58-1.92-2.38-4.27-2.38-7s.81-4.88,2.41-6.77c1.66-1.97,3.86-2.98,6.54-2.98,1.58,0,3,.41,4.22,1.22.26-.45.74-.75,1.3-.75h3.03c.83,0,1.5.67,1.5,1.5v15.76c0,.83-.67,1.5-1.5,1.5h-3.03c-.52,0-.97-.26-1.24-.66-1.21.8-2.61,1.2-4.18,1.2ZM425.95,124.62c-1.05,0-1.83.35-2.46,1.12-.69.84-1.02,1.84-1.02,3.04s.33,2.25,1.02,3.1c.61.76,1.39,1.12,2.46,1.12,1.15,0,1.97-.35,2.6-1.11.69-.83,1.02-1.85,1.02-3.12s-.34-2.24-1.03-3.06c-.64-.75-1.46-1.1-2.59-1.1Z"/><path class="q" d="M425.38,120.42c2.27,0,4.08,1.03,5.45,3.1h.07v-2.63h3.03v15.76h-3.03v-2.46h-.07c-1.35,2-3.13,3-5.35,3s-4.15-.82-5.5-2.47c-1.36-1.65-2.04-3.66-2.04-6.04,0-2.24.68-4.18,2.05-5.81s3.17-2.44,5.39-2.44M425.95,134.5c1.59,0,2.85-.55,3.75-1.65.91-1.1,1.36-2.46,1.36-4.07s-.46-2.93-1.38-4.02c-.92-1.09-2.17-1.63-3.74-1.63s-2.71.56-3.62,1.67c-.91,1.11-1.36,2.44-1.36,3.99s.45,2.92,1.35,4.04c.9,1.12,2.11,1.68,3.64,1.68M425.38,117.42c-3.09,0-5.75,1.21-7.68,3.51-1.83,2.18-2.76,4.78-2.76,7.74s.92,5.76,2.72,7.95c1.92,2.33,4.63,3.57,7.82,3.57,1.45,0,2.79-.3,4.01-.89.42.22.9.35,1.41.35h3.03c1.66,0,3-1.34,3-3v-15.76c0-1.66-1.34-3-3-3h-3.03c-.55,0-1.07.15-1.52.41-1.22-.58-2.56-.88-4.01-.88h0ZM425.95,131.5c-.71,0-1.02-.21-1.29-.56-.47-.59-.69-1.28-.69-2.17s.22-1.52.69-2.09c.29-.35.6-.57,1.3-.57.85,0,1.2.27,1.45.57.29.34.67.93.67,2.09s-.39,1.81-.68,2.16c-.24.29-.58.56-1.44.56h0Z"/><path class="p" d="M110.12,214.74c-2.79,0-5.07-.96-6.76-2.86-1.65-1.85-2.49-4.18-2.49-6.92s.79-5.25,2.34-7.09c1.62-1.92,3.92-2.89,6.84-2.89s5.1.98,6.66,2.9c1.47,1.83,2.22,4.18,2.22,6.98v.47c0,.83-.67,1.5-1.5,1.5h-.67l1.41.8c.71.4.97,1.31.58,2.03-.87,1.58-2.08,2.84-3.6,3.73-1.52.9-3.21,1.35-5.02,1.35ZM107.18,206.83c.16.43.4.83.71,1.2.59.7,1.31,1.02,2.26,1.02.78,0,1.39-.16,1.84-.48.51-.37,1.02-.95,1.52-1.74h-6.33ZM112.23,201.54c-.08-.1-.17-.19-.26-.28-.48-.44-1.1-.66-1.91-.66s-1.43.23-1.97.72c-.08.07-.15.14-.22.22h4.36Z"/><path class="q" d="M110.06,196.47c2.4,0,4.23.78,5.49,2.34,1.26,1.56,1.89,3.57,1.89,6.04v.47h-12.02c.02,1.41.47,2.64,1.35,3.67.88,1.03,2.01,1.55,3.4,1.55,1.1,0,2-.25,2.71-.76.71-.5,1.37-1.27,2-2.31l2.56,1.45c-.74,1.35-1.76,2.4-3.05,3.17-1.29.76-2.71,1.14-4.26,1.14-2.36,0-4.24-.79-5.64-2.36-1.4-1.57-2.1-3.55-2.1-5.93,0-2.51.66-4.56,1.99-6.13,1.32-1.57,3.22-2.36,5.69-2.36M105.58,203.04h8.82c-.18-1.21-.65-2.17-1.41-2.88-.76-.71-1.74-1.06-2.93-1.06s-2.16.37-2.98,1.11c-.82.74-1.32,1.68-1.5,2.83M110.06,193.47c-4.21,0-6.67,1.86-7.98,3.42-1.79,2.12-2.69,4.83-2.69,8.06s.96,5.79,2.87,7.92c1.96,2.2,4.68,3.36,7.88,3.36,2.08,0,4.03-.53,5.79-1.56,1.75-1.04,3.15-2.48,4.15-4.3.59-1.07.46-2.33-.23-3.25.38-.5.6-1.13.6-1.8v-.47c0-3.16-.86-5.83-2.55-7.93-1.27-1.58-3.66-3.46-7.82-3.46h0Z"/><path class="p" d="M130.43,214.2c-.83,0-1.5-.67-1.5-1.5v-9.02c0-1.66-.28-2.37-.44-2.65-.08-.14-.49-.37-1.52-.37-.46,0-.86.05-1.18.16-.23.08-.33.18-.38.25-.22.29-.39.56-.52.82-.03.06-.13.29-.2.86-.06.54-.1.97-.11,1.28-.01.33-.02.81-.02,1.43v7.24c0,.83-.67,1.5-1.5,1.5h-3.03c-.83,0-1.5-.67-1.5-1.5v-15.76c0-.83.67-1.5,1.5-1.5h3.03c.44,0,.84.19,1.11.5.08-.04.15-.08.23-.12,1.08-.56,2.24-.84,3.47-.84,2.58,0,4.46.83,5.58,2.47,1,1.46,1.51,3.44,1.51,5.86v9.39c0,.83-.67,1.5-1.5,1.5h-3.03Z"/><path class="q" d="M127.87,196.47c2.06,0,3.51.61,4.34,1.82.83,1.21,1.25,2.88,1.25,5.02v9.39h-3.03v-9.02c0-1.55-.22-2.69-.66-3.42-.44-.73-1.38-1.09-2.81-1.09-.63,0-1.18.08-1.65.24-.47.16-.84.42-1.11.77-.27.36-.49.7-.66,1.03-.17.33-.29.79-.35,1.38-.07.59-.11,1.06-.12,1.4-.01.34-.02.83-.02,1.48v7.24h-3.03v-15.76h3.03v2.12h.07c.45-.83,1.11-1.47,1.97-1.92.86-.45,1.79-.67,2.78-.67M127.87,193.47c-1.25,0-2.45.25-3.58.74-.38-.17-.79-.26-1.23-.26h-3.03c-1.66,0-3,1.34-3,3v15.76c0,1.66,1.34,3,3,3h3.03c1.66,0,3-1.34,3-3v-7.24c0-.61,0-1.06.02-1.38,0-.18.03-.52.1-1.16.03-.22.05-.35.07-.4.05-.1.12-.21.2-.32.12-.02.29-.04.52-.04.14,0,.25,0,.35.01.06.29.12.76.12,1.5v9.02c0,1.66,1.34,3,3,3h3.03c1.66,0,3-1.34,3-3v-9.39c0-2.74-.6-5-1.77-6.71-.98-1.43-2.95-3.12-6.82-3.12h0Z"/><path class="p" d="M166.11,214.2c-.83,0-1.5-.67-1.5-1.5v-8.92c0-.54-.02-1.02-.07-1.42-.04-.34-.14-.71-.28-1.1-.1-.26-.22-.37-.32-.43-.21-.13-.52-.16-.75-.16-.35,0-.64.06-.84.18-.23.14-.4.29-.51.46-.14.23-.27.55-.36.94-.12.48-.19.91-.22,1.28-.03.42-.05.9-.05,1.44v7.74c0,.83-.67,1.5-1.5,1.5h-3.03c-.83,0-1.5-.67-1.5-1.5v-8.35c0-.5-.01-.92-.03-1.26-.02-.3-.07-.69-.16-1.16-.09-.47-.19-.69-.25-.78-.07-.11-.2-.24-.39-.36-.13-.09-.32-.13-.56-.13-.45,0-.8.09-1.05.26-.24.16-.4.39-.51.72-.18.54-.3,1.05-.35,1.51-.06.5-.09,1.11-.09,1.81v7.74c0,.83-.67,1.5-1.5,1.5h-3.03c-.83,0-1.5-.67-1.5-1.5v-15.76c0-.83.67-1.5,1.5-1.5h3.03c.42,0,.8.17,1.07.45,0,0,0,0,.02,0,.99-.6,2.05-.91,3.16-.91,1.8,0,3.35.64,4.58,1.88.38-.35.8-.65,1.26-.92,1.1-.64,2.3-.96,3.54-.96,2.51,0,6.72,1.08,6.72,8.3v9.43c0,.83-.67,1.5-1.5,1.5h-3.03Z"/><path class="q" d="M163.93,196.47c3.48,0,5.22,2.27,5.22,6.8v9.43h-3.03v-8.92c0-.61-.03-1.14-.08-1.6-.06-.46-.18-.94-.37-1.45-.19-.5-.49-.89-.91-1.16-.42-.27-.94-.4-1.57-.4s-1.16.13-1.6.39c-.44.26-.77.57-1.01.94-.24.37-.42.84-.56,1.4-.13.56-.22,1.07-.25,1.52-.03.45-.05.97-.05,1.55v7.74h-3.03v-8.35c0-.54-.01-.99-.03-1.35-.02-.36-.08-.81-.19-1.35-.1-.54-.25-.96-.44-1.28-.19-.31-.48-.59-.86-.84-.38-.25-.84-.37-1.38-.37-.76,0-1.4.17-1.9.52-.51.35-.86.84-1.08,1.48s-.35,1.24-.42,1.8-.1,1.22-.1,1.99v7.74h-3.03v-15.76h3.03v1.99h.07c.45-.72,1.05-1.31,1.8-1.77.75-.46,1.54-.69,2.37-.69,1.95,0,3.47.93,4.55,2.79.49-.85,1.18-1.53,2.05-2.04s1.81-.76,2.79-.76M163.93,193.47c-1.52,0-2.96.39-4.29,1.16-.16.09-.31.19-.46.29-1.58-1.14-3.28-1.44-4.64-1.44-1.08,0-2.13.23-3.12.69-.35-.14-.73-.22-1.13-.22h-3.03c-1.66,0-3,1.34-3,3v15.76c0,1.66,1.34,3,3,3h3.03c1.66,0,3-1.34,3-3v-7.74c0-.64.03-1.19.08-1.63.03-.27.1-.57.19-.9.07.38.09.62.1.76.02.3.03.69.03,1.16v8.35c0,1.66,1.34,3,3,3h3.03c1.66,0,3-1.34,3-3v-7.74c0-.51.01-.95.04-1.32.02-.29.08-.64.18-1.04.03-.11.05-.2.08-.27.02.08.03.15.04.22.04.34.06.76.06,1.24v8.92c0,1.66,1.34,3,3,3h3.03c1.66,0,3-1.34,3-3v-9.43c0-8.85-5.75-9.8-8.22-9.8h0Z"/><path class="p" d="M173.86,214.2c-.83,0-1.5-.67-1.5-1.5v-15.76c0-.83.67-1.5,1.5-1.5h3.03c.83,0,1.5.67,1.5,1.5v15.76c0,.83-.67,1.5-1.5,1.5h-3.03ZM175.37,193.3c-.98,0-1.86-.36-2.54-1.05-.68-.68-1.05-1.55-1.05-2.51s.36-1.85,1.03-2.54c.69-.71,1.57-1.08,2.56-1.08s1.87.37,2.56,1.08c.67.69,1.03,1.57,1.03,2.54s-.36,1.83-1.05,2.51c-.68.68-1.56,1.04-2.54,1.04Z"/><path class="q" d="M175.37,187.62c.58,0,1.08.21,1.48.62.4.42.61.91.61,1.5s-.2,1.04-.61,1.45c-.4.4-.9.61-1.48.61s-1.08-.2-1.48-.61-.61-.89-.61-1.45.2-1.08.61-1.5c.4-.42.9-.62,1.48-.62M176.89,196.95v15.76h-3.03v-15.76h3.03M175.37,184.62c-1.4,0-2.66.53-3.63,1.53-.95.98-1.46,2.22-1.46,3.59s.51,2.6,1.48,3.57c.32.32.68.6,1.06.82-1.15.42-1.97,1.52-1.97,2.82v15.76c0,1.66,1.34,3,3,3h3.03c1.66,0,3-1.34,3-3v-15.76c0-1.3-.82-2.4-1.97-2.82.38-.22.74-.49,1.06-.82.97-.97,1.48-2.2,1.48-3.57s-.5-2.61-1.46-3.59c-.97-1-2.23-1.53-3.63-1.53h0Z"/><path class="p" d="M194.26,232.65c-.83,0-1.5-.67-1.5-1.5v-41.58c0-.83.67-1.5,1.5-1.5h22.34c.83,0,1.5.67,1.5,1.5v4.74c0,.83-.67,1.5-1.5,1.5h-15.65v8.64h15.16c.83,0,1.5.67,1.5,1.5v4.74c0,.83-.67,1.5-1.5,1.5h-15.16v12.72h15.65c.83,0,1.5.67,1.5,1.5v4.74c0,.83-.67,1.5-1.5,1.5h-22.34Z"/><path class="q" d="M216.6,189.56v4.74h-17.15v11.64h16.66v4.74h-16.66v15.72h17.15v4.74h-22.34v-41.58h22.34M216.6,186.56h-22.34c-1.66,0-3,1.34-3,3v41.58c0,1.66,1.34,3,3,3h22.34c1.66,0,3-1.34,3-3v-4.74c0-1.66-1.34-3-3-3h-14.15v-9.72h13.66c1.66,0,3-1.34,3-3v-4.74c0-1.66-1.34-3-3-3h-13.66v-5.64h14.15c1.66,0,3-1.34,3-3v-4.74c0-1.66-1.34-3-3-3h0Z"/><path class="p" d="M258.9,234.36c-.4,0-.8-.16-1.09-.46l-28.63-30v27.25c0,.83-.67,1.5-1.5,1.5h-5.18c-.83,0-1.5-.67-1.5-1.5v-43.57c0-.61.37-1.16.94-1.39.18-.07.37-.11.56-.11.4,0,.8.16,1.09.46l28.63,30v-26.97c0-.83.67-1.5,1.5-1.5h5.18c.83,0,1.5.67,1.5,1.5v43.29c0,.61-.37,1.16-.94,1.39-.18.07-.37.11-.56.11Z"/><path class="q" d="M222.5,187.58l31.21,32.7v-30.72h5.18v43.29l-31.22-32.7v30.99h-5.18v-43.57M222.5,184.58c-.37,0-.75.07-1.12.22-1.14.46-1.88,1.56-1.88,2.78v43.57c0,1.66,1.34,3,3,3h5.18c1.66,0,3-1.34,3-3v-23.51l26.05,27.29c.58.6,1.37.93,2.17.93.37,0,.75-.07,1.12-.22,1.14-.46,1.88-1.56,1.88-2.78v-43.29c0-1.66-1.34-3-3-3h-5.18c-1.66,0-3,1.34-3,3v23.23l-26.04-27.29c-.58-.6-1.37-.93-2.17-.93h0Z"/><path class="p" d="M272.3,232.65c-.83,0-1.5-.67-1.5-1.5v-35.34h-8.37c-.83,0-1.5-.67-1.5-1.5v-4.74c0-.83.67-1.5,1.5-1.5h24.93c.83,0,1.5.67,1.5,1.5v4.74c0,.83-.67,1.5-1.5,1.5h-8.37v35.34c0,.83-.67,1.5-1.5,1.5h-5.18Z"/><path class="q" d="M287.36,189.56v4.74h-9.87v36.84h-5.18v-36.84h-9.87v-4.74h24.93M287.36,186.56h-24.93c-1.66,0-3,1.34-3,3v4.74c0,1.66,1.34,3,3,3h6.87v33.84c0,1.66,1.34,3,3,3h5.18c1.66,0,3-1.34,3-3v-33.84h6.87c1.66,0,3-1.34,3-3v-4.74c0-1.66-1.34-3-3-3h0Z"/><path class="p" d="M310.3,233.53c-6.45,0-12-2.24-16.49-6.66-4.51-4.43-6.79-9.98-6.79-16.51s2.31-11.85,6.87-16.37c4.55-4.51,10.08-6.8,16.42-6.8s11.86,2.29,16.42,6.8c4.56,4.52,6.87,10.03,6.87,16.37s-2.28,12.08-6.79,16.51c-4.5,4.42-10.05,6.66-16.49,6.66ZM310.3,195.04c-4.39,0-7.93,1.46-10.8,4.45-2.89,3.01-4.3,6.57-4.3,10.87s1.46,7.89,4.47,10.88c3.01,2.99,6.49,4.44,10.63,4.44s7.63-1.45,10.63-4.44c3-2.99,4.47-6.55,4.47-10.88s-1.41-7.86-4.3-10.87c-2.88-2.99-6.41-4.45-10.8-4.45Z"/><path class="q" d="M310.3,188.68c5.96,0,11.08,2.12,15.36,6.37,4.28,4.25,6.42,9.35,6.42,15.3s-2.11,11.29-6.34,15.44c-4.23,4.16-9.38,6.23-15.44,6.23s-11.21-2.08-15.44-6.23c-4.23-4.15-6.34-9.3-6.34-15.44s2.14-11.06,6.42-15.3,9.4-6.37,15.36-6.37M310.3,227.18c4.52,0,8.42-1.63,11.69-4.88,3.27-3.25,4.91-7.23,4.91-11.94s-1.57-8.64-4.72-11.91c-3.14-3.27-7.11-4.91-11.88-4.91s-8.74,1.64-11.89,4.91c-3.14,3.27-4.72,7.24-4.72,11.91s1.64,8.69,4.91,11.94c3.27,3.25,7.17,4.88,11.69,4.88M310.3,185.68c-6.75,0-12.63,2.44-17.47,7.24-4.85,4.81-7.31,10.68-7.31,17.44s2.44,12.86,7.24,17.58c4.79,4.71,10.69,7.09,17.54,7.09s12.76-2.39,17.54-7.09c4.8-4.72,7.24-10.64,7.24-17.58s-2.46-12.62-7.31-17.43c-4.85-4.8-10.72-7.24-17.47-7.24h0ZM310.3,224.18c-3.73,0-6.86-1.31-9.58-4.01-2.71-2.69-4.02-5.9-4.02-9.81s1.27-7.12,3.88-9.83c2.58-2.68,5.76-3.99,9.72-3.99s7.14,1.3,9.72,3.99c2.61,2.72,3.88,5.93,3.88,9.83s-1.32,7.12-4.02,9.81c-2.71,2.7-5.85,4.01-9.58,4.01h0Z"/><path class="p" d="M356.68,232.65c-.49,0-.95-.24-1.23-.64l-11.66-16.76v15.9c0,.83-.67,1.5-1.5,1.5h-5.18c-.83,0-1.5-.67-1.5-1.5v-41.58c0-.83.67-1.5,1.5-1.5h6.29c1.6,0,2.91.03,3.92.08,1.06.06,2.29.24,3.76.55,1.52.33,2.88.83,4.04,1.49,1.94,1.14,3.47,2.74,4.57,4.78,1.09,2.02,1.64,4.19,1.64,6.45,0,3.36-1.05,6.31-3.11,8.77-1.57,1.86-3.51,3.15-5.8,3.85l11.77,16.22c.33.46.38,1.06.12,1.56-.26.5-.77.82-1.34.82h-6.29ZM343.94,207.75c1.42,0,2.69-.09,3.76-.26,1.03-.16,2.06-.47,3.08-.91.85-.37,1.49-.94,1.95-1.73.49-.83.73-1.91.73-3.21,0-2.54-1.01-5.91-9.69-5.95v12.06h.15Z"/><path class="q" d="M343.39,189.56c1.58,0,2.86.03,3.83.08.97.06,2.15.23,3.53.52,1.38.29,2.58.74,3.61,1.32,1.69.99,3.02,2.39,4,4.19.97,1.8,1.46,3.71,1.46,5.74,0,3.02-.92,5.62-2.76,7.8-1.84,2.19-4.25,3.47-7.23,3.83l13.13,18.09h-6.29l-12.24-17.59h-2.15v17.59h-5.18v-41.58h6.29M342.28,209.25h1.65c1.51,0,2.84-.09,4-.28,1.16-.18,2.31-.52,3.45-1.02,1.14-.5,2.02-1.28,2.65-2.34.62-1.07.94-2.39.94-3.97,0-4.96-3.77-7.45-11.31-7.45h-1.38v15.06M343.39,186.56h-6.29c-1.66,0-3,1.34-3,3v41.58c0,1.66,1.34,3,3,3h5.18c1.66,0,3-1.34,3-3v-11.12l8.93,12.83c.56.81,1.48,1.29,2.46,1.29h6.29c1.13,0,2.16-.63,2.67-1.64.51-1,.42-2.21-.24-3.12l-10.63-14.65c1.75-.83,3.29-2.03,4.6-3.58,2.3-2.73,3.46-6.01,3.46-9.73,0-2.51-.61-4.92-1.82-7.16-1.24-2.28-2.96-4.08-5.12-5.35-1.33-.76-2.83-1.31-4.5-1.67-1.55-.33-2.85-.52-3.99-.59-1.03-.06-2.38-.09-4-.09h0ZM345.28,206.22v-8.98c6.68.38,6.69,3.16,6.69,4.4,0,1.03-.18,1.86-.53,2.45-.3.52-.7.87-1.26,1.11-.9.39-1.82.67-2.72.81-.65.1-1.38.17-2.18.21h0Z"/><path class="p" d="M402.95,234.36c-.4,0-.8-.16-1.09-.46l-28.63-30v27.25c0,.83-.67,1.5-1.5,1.5h-5.18c-.83,0-1.5-.67-1.5-1.5v-43.57c0-.61.37-1.16.94-1.39.18-.07.37-.11.56-.11.4,0,.8.16,1.09.46l28.63,30v-26.97c0-.83.67-1.5,1.5-1.5h5.18c.83,0,1.5.67,1.5,1.5v43.29c0,.61-.37,1.16-.94,1.39-.18.07-.37.11-.56.11Z"/><path class="q" d="M366.55,187.58l31.21,32.7v-30.72h5.18v43.29l-31.22-32.7v30.99h-5.18v-43.57M366.55,184.58c-.37,0-.75.07-1.12.22-1.14.46-1.88,1.56-1.88,2.78v43.57c0,1.66,1.34,3,3,3h5.18c1.66,0,3-1.34,3-3v-23.51l26.05,27.29c.58.6,1.37.93,2.17.93.37,0,.75-.07,1.12-.22,1.14-.46,1.88-1.56,1.88-2.78v-43.29c0-1.66-1.34-3-3-3h-5.18c-1.66,0-3,1.34-3,3v23.23l-26.04-27.29c-.58-.6-1.37-.93-2.17-.93h0Z"/><path class="p" d="M429.2,233.53c-6.45,0-12-2.24-16.49-6.66-4.51-4.43-6.79-9.98-6.79-16.51s2.31-11.85,6.87-16.37c4.55-4.51,10.08-6.8,16.42-6.8s11.86,2.29,16.42,6.8c4.56,4.52,6.87,10.03,6.87,16.37s-2.28,12.08-6.79,16.51c-4.5,4.42-10.05,6.66-16.49,6.66ZM429.2,195.04c-4.39,0-7.93,1.46-10.8,4.45-2.89,3.01-4.3,6.57-4.3,10.87s1.46,7.89,4.47,10.88c3.01,2.99,6.49,4.44,10.63,4.44s7.63-1.45,10.63-4.44c3-2.99,4.47-6.55,4.47-10.88s-1.41-7.86-4.3-10.87c-2.88-2.99-6.41-4.45-10.8-4.45Z"/><path class="q" d="M429.2,188.68c5.96,0,11.08,2.12,15.36,6.37,4.28,4.25,6.42,9.35,6.42,15.3s-2.11,11.29-6.34,15.44c-4.23,4.16-9.38,6.23-15.44,6.23s-11.21-2.08-15.44-6.23c-4.23-4.15-6.34-9.3-6.34-15.44s2.14-11.06,6.42-15.3,9.4-6.37,15.36-6.37M429.2,227.18c4.52,0,8.42-1.63,11.69-4.88,3.27-3.25,4.91-7.23,4.91-11.94s-1.57-8.64-4.72-11.91c-3.14-3.27-7.11-4.91-11.88-4.91s-8.74,1.64-11.89,4.91c-3.14,3.27-4.72,7.24-4.72,11.91s1.64,8.69,4.91,11.94c3.27,3.25,7.17,4.88,11.69,4.88M429.2,185.68c-6.75,0-12.63,2.44-17.47,7.24-4.85,4.81-7.31,10.68-7.31,17.44s2.44,12.86,7.24,17.58c4.79,4.71,10.69,7.09,17.54,7.09s12.76-2.39,17.54-7.09c4.8-4.72,7.24-10.64,7.24-17.58s-2.46-12.62-7.31-17.43c-4.85-4.8-10.72-7.24-17.47-7.24h0ZM429.2,224.18c-3.73,0-6.86-1.31-9.58-4.01-2.71-2.69-4.02-5.9-4.02-9.81s1.27-7.12,3.88-9.83c2.58-2.68,5.76-3.99,9.72-3.99s7.14,1.3,9.72,3.99c2.61,2.72,3.88,5.93,3.88,9.83s-1.32,7.12-4.02,9.81c-2.71,2.7-5.85,4.01-9.58,4.01h0Z"/><path class="y" d="M101.5,184.66c-.83,0-1.5-.67-1.5-1.5v-57.36c0-.83.67-1.5,1.5-1.5h10.39c.19,0,.38.04.55.1h4.34c5.57,0,10.69,2.11,14.42,5.96,4,4.24,6.03,9.08,6.03,14.39s-2.09,10.45-6.04,14.4c-3.95,3.95-8.93,6.04-14.41,6.04h-6.32v17.96c0,.83-.67,1.5-1.5,1.5h-7.46ZM118.26,154.72c2.36,0,4.38-.95,6.01-2.82,1.69-1.93,2.54-4.35,2.54-7.19s-.86-5.17-2.56-7.23c-1.6-1.83-3.62-2.78-5.98-2.78h-7.79v20.03h7.79Z"/><path class="q" d="M111.9,125.8v.1h4.89c5.2,0,9.88,1.94,13.35,5.5,3.46,3.67,5.6,8.15,5.6,13.35s-2.04,9.78-5.6,13.34c-3.57,3.57-8.15,5.6-13.35,5.6h-7.82v19.46h-7.46v-57.36h10.39-10.39,10.39M108.97,156.22h9.29c2.78,0,5.21-1.11,7.14-3.33,1.94-2.22,2.91-4.99,2.91-8.18s-.97-5.83-2.91-8.19c-1.94-2.22-4.36-3.33-7.14-3.33h-9.29v23.03M101.5,125.8h0M111.9,122.8h-10.39c-1.66,0-3,1.34-3,3v57.36c0,1.66,1.34,3,3,3h7.46c1.66,0,3-1.34,3-3v-16.46h4.82c5.88,0,11.23-2.24,15.47-6.48,4.24-4.24,6.48-9.59,6.48-15.46s-2.22-10.96-6.42-15.41c-4.05-4.16-9.55-6.44-15.53-6.44h-4.11c-.25-.07-.51-.1-.78-.1h0ZM111.97,136.19h6.29c1.92,0,3.51.74,4.85,2.27,1.46,1.79,2.2,3.89,2.2,6.25s-.73,4.56-2.16,6.2c-1.35,1.56-2.95,2.31-4.88,2.31h-6.29v-17.03h0Z"/><path class="y" d="M154.22,184.66c-.53,0-1.02-.28-1.29-.73l-6.65-11.15v10.38c0,.83-.67,1.5-1.5,1.5h-7.47c-.83,0-1.5-.67-1.5-1.5v-41.21c0-.83.67-1.5,1.5-1.5h7.47c.16,0,.32.03.47.07h3.05c4.11,0,7.9,1.56,10.66,4.41,2.92,3.09,4.45,6.76,4.45,10.64,0,4.09-1.64,7.98-4.5,10.68-.89.89-1.87,1.65-2.95,2.29l8.26,13.86c.28.46.28,1.04.02,1.51-.27.47-.76.76-1.3.76h-8.71ZM148.29,160.14c1.31,0,2.37-.43,3.26-1.32.89-.89,1.32-1.95,1.32-3.26,0-1.23-.45-2.34-1.35-3.29-.85-.85-1.92-1.28-3.23-1.28h-2.01v9.15h2.01Z"/><path class="q" d="M144.78,141.95v.07h3.51c3.73,0,7.1,1.39,9.59,3.95,2.49,2.63,4.03,5.85,4.03,9.59s-1.46,7.17-4.03,9.58c-1.25,1.25-2.56,2.12-4.03,2.78l9.07,15.23h-8.71l-8.34-13.98h-1.1v13.98h-7.47v-41.21h7.47M144.78,161.64h3.51c1.68,0,3.15-.58,4.32-1.76,1.17-1.17,1.76-2.63,1.76-4.32s-.58-3.08-1.76-4.32c-1.17-1.17-2.63-1.75-4.32-1.75h-3.51v12.15M144.78,138.95h-7.47c-1.66,0-3,1.34-3,3v41.21c0,1.66,1.34,3,3,3h7.47c1.66,0,3-1.34,3-3v-4.94l3.86,6.47c.54.91,1.52,1.46,2.58,1.46h8.71c1.08,0,2.08-.58,2.61-1.52.53-.94.52-2.09-.03-3.02l-7.52-12.62c.7-.51,1.36-1.07,1.99-1.7,3.14-2.97,4.93-7.25,4.93-11.74s-1.68-8.29-4.84-11.65c-3.08-3.17-7.25-4.89-11.77-4.89h-2.85c-.21-.05-.44-.07-.66-.07h0ZM147.78,152.49h.51c.89,0,1.58.27,2.17.85.62.67.91,1.38.91,2.23,0,.9-.28,1.6-.88,2.19-.6.6-1.3.88-2.2.88h-.51v-6.15h0Z"/><path class="y" d="M184.66,185.6c-6.3,0-11.98-2.35-16.43-6.8-4.45-4.45-6.81-10.13-6.81-16.43s2.35-11.98,6.81-16.43c4.46-4.45,10.14-6.81,16.43-6.81s11.98,2.35,16.43,6.81c4.45,4.45,6.81,10.13,6.81,16.43s-2.35,11.98-6.81,16.43c-4.45,4.45-10.13,6.8-16.43,6.8ZM184.66,149.6c-3.33,0-6.51,1.35-8.97,3.81-2.45,2.45-3.8,5.64-3.8,8.97s1.32,6.55,3.81,9.04c2.37,2.37,5.64,3.73,8.97,3.73s6.6-1.29,9.04-3.73c2.44-2.44,3.73-5.57,3.73-9.04s-1.36-6.59-3.73-8.97c-2.49-2.49-5.62-3.81-9.04-3.81Z"/><path class="q" d="M184.66,140.63c6.07,0,11.34,2.34,15.37,6.37,4.03,4.03,6.37,9.29,6.37,15.37s-2.34,11.34-6.37,15.37-9.29,6.37-15.37,6.37-11.34-2.34-15.37-6.37c-4.03-4.03-6.37-9.29-6.37-15.37s2.34-11.34,6.37-15.37c4.03-4.03,9.29-6.37,15.37-6.37M184.66,176.64c4.03,0,7.47-1.53,10.1-4.17,2.63-2.64,4.17-6.07,4.17-10.1s-1.61-7.47-4.17-10.03c-2.63-2.63-6.07-4.25-10.1-4.25s-7.39,1.61-10.03,4.25c-2.63,2.63-4.24,6.14-4.24,10.03s1.61,7.46,4.24,10.1c2.56,2.56,6.15,4.17,10.03,4.17M184.66,137.63c-6.7,0-12.75,2.51-17.49,7.25-4.74,4.74-7.25,10.79-7.25,17.49s2.51,12.75,7.25,17.49c4.74,4.74,10.79,7.24,17.49,7.24s12.75-2.5,17.49-7.24c4.74-4.74,7.25-10.79,7.25-17.49s-2.51-12.75-7.25-17.49c-4.74-4.74-10.79-7.25-17.49-7.25h0ZM184.66,173.64c-2.93,0-5.81-1.2-7.91-3.29-2.2-2.2-3.37-4.96-3.37-7.98s1.2-5.74,3.37-7.91c2.17-2.17,4.98-3.37,7.91-3.37s5.78,1.16,7.98,3.37c2.09,2.09,3.29,4.97,3.29,7.91,0,3.11-1.11,5.79-3.29,7.98-2.18,2.18-4.87,3.29-7.98,3.29h0Z"/><path class="y" d="M209.12,184.66c-.83,0-1.5-.67-1.5-1.5v-41.21c0-.83.67-1.5,1.5-1.5h7.47c.16,0,.32.03.47.07h3.85c3.53,0,6.78,1.34,9.39,3.86,2.52,2.52,3.9,5.86,3.9,9.42,0,2.71-.85,5.37-2.42,7.62,2.23,2.55,3.44,5.79,3.44,9.22,0,3.71-1.46,7.21-4.1,9.84-2.64,2.64-6.16,4.1-9.91,4.1h-4.17c-.14.05-.29.07-.44.07h-7.47ZM221.2,174.12c.91,0,1.8-.37,2.45-1.02.68-.74,1.03-1.55,1.03-2.46s-.37-1.8-1.02-2.45c-.65-.71-1.44-1.03-2.45-1.03h-3.11v6.95h3.11ZM220.91,156.55c.8,0,1.44-.25,1.89-.75.03-.04.06-.07.1-.1.5-.46.75-1.09.75-1.89s-.26-1.47-.81-2.01c-.53-.53-1.18-.8-1.94-.8h-2.82v5.56h2.82Z"/><path class="q" d="M216.59,141.95v.07h4.32c3.22,0,6.07,1.24,8.34,3.44,2.12,2.12,3.44,5.05,3.44,8.34,0,2.93-1.1,5.64-2.93,7.76l.29.22c2.27,2.27,3.66,5.42,3.66,8.86s-1.39,6.52-3.66,8.78c-2.27,2.27-5.41,3.66-8.85,3.66h-4.61v.07h-7.47v-41.21h7.47-7.47,7.47M216.59,158.05h4.32c1.24,0,2.27-.44,3-1.24.8-.73,1.24-1.75,1.24-3s-.44-2.27-1.24-3.07c-.81-.81-1.83-1.24-3-1.24h-4.32v8.56M216.59,175.62h4.61c1.39,0,2.63-.58,3.51-1.46.88-.95,1.46-2.12,1.46-3.51s-.58-2.63-1.46-3.51c-.88-.95-2.05-1.46-3.51-1.46h-4.61v9.95M209.12,141.95h0M216.59,138.95h-7.47c-1.66,0-3,1.34-3,3v41.21c0,1.66,1.34,3,3,3h7.47c.23,0,.45-.03.66-.07h3.95c4.15,0,8.05-1.61,10.98-4.54,2.92-2.92,4.54-6.79,4.54-10.9,0-3.41-1.09-6.65-3.1-9.32,1.35-2.28,2.07-4.88,2.07-7.51,0-3.96-1.53-7.68-4.32-10.46-2.93-2.84-6.54-4.32-10.46-4.32h-3.65c-.21-.05-.44-.07-.66-.07h0ZM219.59,152.49h1.32c.36,0,.62.11.88.36.22.22.36.47.36.95,0,.54-.19.71-.26.79-.07.06-.14.13-.2.2-.07.08-.24.26-.78.26h-1.32v-2.56h0ZM219.59,168.66h1.61c.75,0,1.08.25,1.3.5.03.03.06.06.09.09.37.37.58.87.58,1.38,0,.32-.07.81-.63,1.43-.37.35-.85.55-1.35.55h-1.61v-3.95h0Z"/><path class="y" d="M262.47,184.66c-.57,0-1.09-.32-1.35-.84l-4.2-8.53h-12.6l-3.98,8.5c-.25.53-.78.86-1.36.86h-8.2c-.51,0-.99-.26-1.27-.7s-.31-.98-.09-1.44l16.18-34.25,3.37-7.1c.25-.52.77-.85,1.35-.86h0c.57,0,1.1.33,1.35.84l3.44,7.03,16.91,34.32c.23.46.2,1.02-.07,1.46-.27.44-.76.71-1.27.71h-8.2ZM251.95,165.26l-1.46-2.99-1.4,2.99h2.86Z"/><path class="q" d="M250.33,141.8l3.44,7.03,16.91,34.33h-8.2l-4.61-9.37h-14.49l-4.39,9.37h-8.2l16.18-34.25,3.37-7.1M246.74,166.76h7.61l-3.88-7.98-3.73,7.98M250.47,158.78l-3.73,7.98,3.73-7.98M250.33,138.8s-.01,0-.02,0c-1.15,0-2.2.67-2.69,1.71l-3.37,7.1-16.18,34.26c-.44.93-.37,2.02.18,2.89.55.87,1.51,1.39,2.53,1.39h8.2c1.16,0,2.22-.67,2.72-1.73l3.58-7.64h10.72l3.79,7.69c.5,1.03,1.55,1.68,2.69,1.68h8.2c1.04,0,2-.54,2.55-1.42s.6-1.98.14-2.91l-16.91-34.33-3.43-7.02c-.5-1.03-1.55-1.68-2.69-1.68h0Z"/><path class="y" d="M273.6,184.66c-.83,0-1.5-.67-1.5-1.5v-41.21c0-.83.67-1.5,1.5-1.5h7.47c.16,0,.32.03.47.07h3.85c3.53,0,6.78,1.34,9.39,3.86,2.52,2.52,3.9,5.86,3.9,9.42,0,2.71-.85,5.37-2.42,7.62,2.23,2.55,3.44,5.79,3.44,9.22,0,3.71-1.46,7.21-4.1,9.84-2.64,2.64-6.16,4.1-9.91,4.1h-4.17c-.14.05-.29.07-.44.07h-7.47ZM285.67,174.12c.91,0,1.8-.37,2.45-1.02.68-.74,1.03-1.55,1.03-2.46s-.37-1.8-1.02-2.45c-.65-.71-1.44-1.03-2.45-1.03h-3.11v6.95h3.11ZM285.38,156.55c.8,0,1.44-.25,1.89-.75.03-.03.07-.07.1-.1.5-.46.75-1.09.75-1.89s-.26-1.47-.81-2.01c-.53-.53-1.19-.8-1.94-.8h-2.82v5.56h2.82Z"/><path class="q" d="M281.06,141.95v.07h4.32c3.22,0,6.07,1.24,8.34,3.44,2.12,2.12,3.44,5.05,3.44,8.34,0,2.93-1.1,5.64-2.93,7.76l.29.22c2.27,2.27,3.66,5.42,3.66,8.86s-1.39,6.52-3.66,8.78c-2.27,2.27-5.41,3.66-8.85,3.66h-4.61v.07h-7.47v-41.21h7.47-7.47,7.47M281.06,158.05h4.32c1.24,0,2.27-.44,3-1.24.8-.73,1.24-1.75,1.24-3s-.44-2.27-1.24-3.07c-.81-.81-1.83-1.24-3-1.24h-4.32v8.56M281.06,175.62h4.61c1.39,0,2.63-.58,3.51-1.46.88-.95,1.46-2.12,1.46-3.51s-.58-2.63-1.46-3.51c-.88-.95-2.05-1.46-3.51-1.46h-4.61v9.95M273.6,141.95h0M281.06,138.95h-7.47c-1.66,0-3,1.34-3,3v41.21c0,1.66,1.34,3,3,3h7.47c.23,0,.45-.03.66-.07h3.95c4.15,0,8.05-1.61,10.98-4.54,2.92-2.92,4.54-6.79,4.54-10.9,0-3.41-1.09-6.65-3.1-9.32,1.35-2.28,2.07-4.88,2.07-7.51,0-3.96-1.53-7.68-4.32-10.46-2.93-2.84-6.54-4.32-10.46-4.32h-3.65c-.21-.05-.44-.07-.66-.07h0ZM284.06,152.49h1.32c.36,0,.62.11.88.36.22.22.36.47.36.95,0,.54-.18.71-.26.79-.07.06-.14.13-.2.2-.07.08-.24.26-.78.26h-1.32v-2.56h0ZM284.06,168.66h1.61c.75,0,1.08.25,1.3.5.03.03.06.06.09.09.37.37.58.87.58,1.38,0,.32-.07.81-.63,1.43-.37.35-.85.55-1.35.55h-1.61v-3.95h0Z"/><rect class="y" x="298.54" y="140.45" width="10.47" height="44.21" rx="1.5" ry="1.5"/><path class="q" d="M307.51,141.95v41.21h-7.47v-41.21h7.47-7.47,7.47M300.04,141.95h0M307.51,138.95h-7.47c-1.66,0-3,1.34-3,3v41.21c0,1.66,1.34,3,3,3h7.47c1.66,0,3-1.34,3-3v-41.21c0-1.66-1.34-3-3-3h0Z"/><path class="y" d="M310.66,184.66c-.83,0-1.5-.67-1.5-1.5v-41.21c0-.83.67-1.5,1.5-1.5h7.47c.83,0,1.5.67,1.5,1.5v32.09h12.26c.83,0,1.5.67,1.5,1.5v7.54c0,.83-.67,1.5-1.5,1.5h-13.31c-.14.05-.29.07-.44.07h-7.47Z"/><path class="q" d="M318.12,141.95v33.59h13.76v7.54h-13.76v.07h-7.47v-41.21h7.47-7.47,7.47M310.66,141.95h0M318.12,138.95h-7.47c-1.66,0-3,1.34-3,3v41.21c0,1.66,1.34,3,3,3h7.47c.23,0,.45-.03.66-.07h13.1c1.66,0,3-1.34,3-3v-7.54c0-1.66-1.34-3-3-3h-10.76v-30.59c0-1.66-1.34-3-3-3h0Z"/><rect class="y" x="332.67" y="140.45" width="10.47" height="44.21" rx="1.5" ry="1.5"/><path class="q" d="M341.64,141.95v41.21h-7.47v-41.21h7.47-7.47,7.47M334.17,141.95h0M341.64,138.95h-7.47c-1.66,0-3,1.34-3,3v41.21c0,1.66,1.34,3,3,3h7.47c1.66,0,3-1.34,3-3v-41.21c0-1.66-1.34-3-3-3h0Z"/><path class="y" d="M344.95,184.66c-.83,0-1.5-.67-1.5-1.5v-41.21c0-.83.67-1.5,1.5-1.5h7.47c.16,0,.32.03.47.07h4.29c5.92,0,11.47,2.29,15.63,6.44,4.15,4.15,6.44,9.7,6.44,15.62s-2.29,11.47-6.44,15.63c-4.16,4.15-9.71,6.44-15.63,6.44h-12.22ZM357.17,174.19c3,0,5.98-1.25,8.16-3.44,2.19-2.18,3.44-5.16,3.44-8.16s-1.25-5.97-3.44-8.16c-2.13-2.19-5.1-3.44-8.16-3.44h-3.26v23.2h3.26Z"/><path class="q" d="M352.41,141.95v.07h4.76c5.64,0,10.83,2.27,14.57,6,3.73,3.73,6,8.78,6,14.56s-2.27,10.83-6,14.57c-3.73,3.73-8.93,6-14.57,6h-12.22v-41.21h7.47-7.47,7.47M352.41,175.69h4.76c3.59,0,6.88-1.54,9.22-3.88,2.34-2.34,3.88-5.63,3.88-9.22s-1.54-6.88-3.88-9.22c-2.34-2.41-5.64-3.88-9.22-3.88h-4.76v26.2M344.95,141.95h0M352.41,138.95h-7.47c-1.66,0-3,1.34-3,3v41.21c0,1.66,1.34,3,3,3h12.22c6.32,0,12.25-2.44,16.69-6.88,4.44-4.44,6.88-10.37,6.88-16.69s-2.44-12.25-6.88-16.69c-4.44-4.44-10.36-6.88-16.69-6.88h-4.09c-.21-.05-.44-.07-.66-.07h0ZM355.41,152.49h1.76c2.66,0,5.24,1.08,7.07,2.97,1.94,1.94,3.03,4.53,3.03,7.13s-1.09,5.19-3,7.1c-1.91,1.91-4.5,3-7.1,3h-1.76v-20.2h0Z"/><path class="y" d="M404.99,184.66c-.57,0-1.09-.32-1.35-.84l-4.2-8.53h-12.6l-3.98,8.5c-.25.53-.78.86-1.36.86h-8.2c-.51,0-.99-.26-1.27-.7s-.31-.98-.09-1.44l16.18-34.25,3.37-7.1c.25-.52.77-.85,1.35-.86h0c.57,0,1.1.33,1.35.84l3.44,7.03,16.91,34.32c.23.46.2,1.02-.07,1.46-.27.44-.76.71-1.27.71h-8.2ZM394.47,165.26l-1.46-2.99-1.4,2.99h2.86Z"/><path class="q" d="M392.84,141.8l3.44,7.03,16.91,34.33h-8.2l-4.61-9.37h-14.49l-4.39,9.37h-8.2l16.18-34.25,3.37-7.1M389.25,166.76h7.61l-3.88-7.98-3.73,7.98M392.98,158.78l-3.73,7.98,3.73-7.98M392.84,138.8s-.01,0-.02,0c-1.15,0-2.2.67-2.69,1.71l-3.37,7.1-16.18,34.26c-.44.93-.37,2.02.18,2.89.55.87,1.51,1.39,2.53,1.39h8.2c1.16,0,2.22-.67,2.72-1.73l3.58-7.64h10.72l3.79,7.69c.5,1.03,1.55,1.68,2.69,1.68h8.2c1.04,0,2-.54,2.55-1.42s.6-1.98.14-2.91l-16.91-34.33-3.43-7.02c-.5-1.03-1.55-1.68-2.69-1.68h0Z"/><path class="y" d="M414.95,184.66c-.83,0-1.5-.67-1.5-1.5v-41.21c0-.83.67-1.5,1.5-1.5h7.47c.16,0,.32.03.47.07h4.29c5.92,0,11.47,2.29,15.63,6.44,4.15,4.15,6.44,9.7,6.44,15.62s-2.29,11.47-6.44,15.63c-4.16,4.15-9.71,6.44-15.63,6.44h-12.22ZM427.17,174.19c3,0,5.98-1.25,8.16-3.44,2.19-2.18,3.44-5.16,3.44-8.16s-1.25-5.97-3.44-8.16c-2.13-2.19-5.1-3.44-8.16-3.44h-3.26v23.2h3.26Z"/><path class="q" d="M422.41,141.95v.07h4.76c5.64,0,10.83,2.27,14.57,6,3.73,3.73,6,8.78,6,14.56s-2.27,10.83-6,14.57c-3.73,3.73-8.93,6-14.57,6h-12.22v-41.21h7.47-7.47,7.47M422.41,175.69h4.76c3.59,0,6.88-1.54,9.22-3.88,2.34-2.34,3.88-5.63,3.88-9.22s-1.54-6.88-3.88-9.22c-2.34-2.41-5.64-3.88-9.22-3.88h-4.76v26.2M414.95,141.95h0M422.41,138.95h-7.47c-1.66,0-3,1.34-3,3v41.21c0,1.66,1.34,3,3,3h12.22c6.32,0,12.25-2.44,16.69-6.88,4.44-4.44,6.88-10.37,6.88-16.69s-2.44-12.25-6.88-16.69c-4.44-4.44-10.36-6.88-16.69-6.88h-4.09c-.21-.05-.44-.07-.66-.07h0ZM425.41,152.49h1.76c2.66,0,5.24,1.08,7.07,2.97,1.94,1.94,3.03,4.53,3.03,7.13s-1.09,5.19-3,7.1c-1.91,1.91-4.5,3-7.1,3h-1.76v-20.2h0Z"/><path class="s" d="M12.79,242.64c-2,0-3.95-.56-5.64-1.61-5.04-3.12-6.59-9.76-3.47-14.8l36.17-57.7c1.97-3.17,5.39-5.07,9.15-5.07,2,0,3.95.56,5.64,1.61,5.04,3.12,6.59,9.76,3.47,14.8l-36.18,57.7c-1.97,3.17-5.39,5.07-9.15,5.07Z"/><path class="q" d="M49.01,164.97c1.66,0,3.34.45,4.85,1.38,4.32,2.68,5.66,8.41,2.98,12.73l-36.17,57.69c-1.75,2.81-4.78,4.36-7.88,4.36-1.66,0-3.34-.45-4.85-1.38h0c-4.32-2.68-5.66-8.41-2.98-12.73l36.17-57.69c1.75-2.81,4.78-4.36,7.88-4.36M49.01,161.97h0c-4.29,0-8.19,2.16-10.43,5.78L2.41,225.44c-3.57,5.75-1.8,13.32,3.94,16.88,1.93,1.2,4.16,1.83,6.43,1.83,4.29,0,8.19-2.16,10.43-5.78l36.16-57.68c3.57-5.75,1.8-13.32-3.94-16.88-1.93-1.2-4.16-1.83-6.43-1.83h0Z"/><path class="s" d="M74.32,174.14c-7.25,0-14.23-2.05-20.74-6.09-20.34-12.62-24.04-43.61-8.23-69.09,10.98-17.7,28.69-28.69,46.22-28.69,7.08,0,13.59,1.81,19.34,5.38,21.72,13.48,25.11,41.89,8.23,69.09-11.42,18.41-28.17,29.4-44.82,29.4Z"/><path class="q" d="M91.57,71.78c6.56,0,12.91,1.66,18.55,5.15,22.28,13.82,23.14,42.21,7.75,67.02-10.93,17.61-27.11,28.69-43.54,28.69-6.72,0-13.48-1.85-19.95-5.86-19.67-12.2-23.14-42.21-7.75-67.02,10.98-17.7,28.6-27.98,44.94-27.98M91.57,68.78v3-3h0c-18.04,0-36.24,11.27-47.49,29.4-16.24,26.18-12.33,58.1,8.72,71.15,6.75,4.19,13.99,6.31,21.53,6.31,17.17,0,34.4-11.25,46.09-30.1,8.02-12.93,11.82-26.96,10.69-39.48-1.23-13.6-7.94-24.55-19.41-31.67-5.99-3.72-12.76-5.6-20.13-5.6h0Z"/><path class="s" d="M58.06,180.79c-1.6,0-3.16-.44-4.51-1.29l-11.33-7.03c-1.94-1.21-3.3-3.1-3.83-5.35-.53-2.24-.15-4.55,1.06-6.49,1.58-2.54,4.31-4.06,7.32-4.06,1.6,0,3.16.44,4.51,1.29l11.33,7.03c1.94,1.21,3.31,3.1,3.83,5.35.53,2.24.15,4.55-1.06,6.49-1.58,2.54-4.31,4.06-7.32,4.06Z"/><path class="q" d="M46.77,158.08c1.28,0,2.56.34,3.72,1.06l11.33,7.03c3.32,2.06,4.35,6.46,2.29,9.77h0c-1.34,2.16-3.67,3.35-6.05,3.35-1.28,0-2.56-.34-3.72-1.06l-11.33-7.03c-3.32-2.06-4.35-6.46-2.29-9.77h0c1.34-2.16,3.67-3.35,6.05-3.35M46.77,155.08h0c-3.53,0-6.75,1.78-8.6,4.77-1.42,2.29-1.86,4.99-1.24,7.62.62,2.63,2.21,4.86,4.5,6.28l11.33,7.03c1.59.99,3.43,1.51,5.3,1.51,3.53,0,6.75-1.78,8.6-4.77,1.42-2.29,1.86-4.99,1.24-7.62-.62-2.63-2.21-4.86-4.5-6.28l-11.33-7.03c-1.59-.99-3.43-1.51-5.3-1.51h0Z"/><path class="p" d="M54.94,178.94c-1.5,0-2.97-.42-4.24-1.21l-8.92-5.53c-1.83-1.13-3.11-2.92-3.6-5.02-.49-2.11-.14-4.27.99-6.1l.55-.88c1.48-2.39,4.06-3.81,6.88-3.81,1.5,0,2.97.42,4.24,1.21l8.92,5.54c3.79,2.35,4.95,7.34,2.61,11.12l-.55.88c-1.48,2.39-4.06,3.81-6.88,3.81Z"/><path class="q" d="M46.6,157.88c1.18,0,2.38.32,3.45.98l8.92,5.53c3.07,1.91,4.03,5.98,2.12,9.06l-.55.88c-1.24,2-3.4,3.11-5.61,3.11-1.18,0-2.38-.32-3.45-.98l-8.92-5.53c-3.07-1.91-4.03-5.98-2.12-9.06l.55-.88c1.24-2,3.4-3.11,5.61-3.11M46.6,154.88h0c-3.35,0-6.4,1.69-8.16,4.52l-.55.88c-1.35,2.17-1.76,4.74-1.18,7.23.58,2.5,2.1,4.61,4.27,5.96l8.92,5.53c1.51.94,3.25,1.43,5.03,1.43,3.35,0,6.4-1.69,8.16-4.52l.55-.88c2.78-4.49,1.4-10.41-3.09-13.19l-8.92-5.53c-1.51-.94-3.25-1.43-5.03-1.43h0Z"/><path class="p" d="M70.24,172.27c-6.64,0-12.72-1.68-18.07-5.01-19.59-12.15-22.66-42.78-6.84-68.27,11-17.74,29.11-29.2,46.14-29.2,6.64,0,12.72,1.68,18.07,5.01,9.56,5.93,15.5,16.34,16.75,29.32,1.23,12.83-2.29,26.66-9.91,38.95-11,17.74-29.11,29.2-46.14,29.2Z"/><path class="q" d="M91.47,71.3c6.14,0,12.05,1.54,17.28,4.78,18.92,11.73,21.76,41.38,6.36,66.2-11.14,17.96-28.79,28.49-44.86,28.49-6.14,0-12.05-1.54-17.28-4.78-18.92-11.73-21.76-41.38-6.36-66.2,11.14-17.96,28.79-28.49,44.86-28.49M91.47,68.3v3-3h0c-8.58,0-17.52,2.75-25.87,7.96-8.47,5.28-15.92,12.87-21.54,21.94-16.25,26.19-12.96,57.75,7.33,70.33,5.59,3.47,11.94,5.23,18.86,5.23,8.57,0,17.52-2.75,25.87-7.96,8.47-5.28,15.92-12.87,21.54-21.94,7.79-12.56,11.39-26.73,10.13-39.88-1.29-13.46-7.49-24.27-17.45-30.45-5.59-3.47-11.94-5.23-18.86-5.23h0Z"/><path class="y" d="M69.28,165.26c-5.62,0-10.76-1.42-15.28-4.22-8.26-5.12-13.32-14.23-14.27-25.64-.93-11.25,2.27-23.42,9.01-34.28,9.85-15.87,25.84-26.13,40.75-26.13,5.62,0,10.76,1.42,15.28,4.22,16.89,10.48,19.25,37.36,5.26,59.92-9.85,15.87-25.84,26.13-40.75,26.13Z"/><path class="q" d="M89.5,76.49c5.16,0,10.11,1.28,14.48,4,16.22,10.06,18.35,35.96,4.77,57.86-9.92,15.99-25.48,25.42-39.47,25.42-5.16,0-10.11-1.28-14.48-4-16.22-10.06-18.35-35.96-4.77-57.86,9.92-15.99,25.48-25.42,39.47-25.42M89.5,73.49h0c-15.41,0-31.91,10.53-42.02,26.84-6.91,11.13-10.18,23.63-9.23,35.19.98,11.9,6.3,21.41,14.97,26.79,4.76,2.95,10.16,4.45,16.07,4.45,15.41,0,31.91-10.53,42.02-26.84,6.91-11.13,10.18-23.63,9.23-35.19-.98-11.9-6.3-21.41-14.97-26.79-4.76-2.95-10.16-4.45-16.06-4.45h0Z"/><path class="t" d="M70.5,164.4c-5.48,0-10.49-1.38-14.89-4.12-16.44-10.2-18.76-36.33-5.16-58.24,9.56-15.41,25.1-25.36,39.59-25.36,5.48,0,10.49,1.38,14.89,4.12,8.04,4.99,12.97,13.84,13.9,24.94.91,10.93-2.19,22.76-8.74,33.3-9.56,15.4-25.1,25.36-39.59,25.36Z"/><path class="q" d="M90.03,78.18c5.03,0,9.84,1.25,14.1,3.89,15.76,9.78,17.86,34.93,4.68,56.18-9.62,15.51-24.73,24.65-38.31,24.65-5.03,0-9.84-1.25-14.1-3.89-15.76-9.78-17.86-34.93-4.68-56.18,9.62-15.51,24.73-24.65,38.31-24.65M90.04,75.18h0c-15,0-31.04,10.23-40.86,26.07-6.71,10.82-9.89,22.97-8.96,34.22.96,11.58,6.15,20.85,14.6,26.09,4.64,2.88,9.92,4.34,15.68,4.34,15,0,31.04-10.23,40.86-26.07,14.03-22.62,11.5-49.67-5.65-60.31-4.64-2.88-9.92-4.34-15.68-4.34h0Z"/><path class="aa" d="M69.86,161.06c-4.13-.35-7.88-1.56-11.17-3.6-7.3-4.53-11.78-12.57-12.62-22.63-.82-9.9,1.98-20.61,7.91-30.16,8.65-13.94,22.72-22.94,35.84-22.94,3.53,0,6.88.64,9.97,1.92.68.28,1.06,1.02.89,1.74-.16.68-.77,1.15-1.46,1.15-.04,0-.08,0-.13,0-.7-.06-1.41-.09-2.12-.09-12.13,0-25.2,8.44-33.3,21.51-5.59,9.01-8.24,19.07-7.47,28.33.76,9.1,4.74,16.32,11.21,20.33.9.56,1.9,1.06,3.14,1.57.68.28,1.06,1.02.89,1.74-.16.68-.77,1.15-1.46,1.15-.04,0-.08,0-.13,0Z"/><path class="q" d="M89.84,83.22c3.27,0,6.44.59,9.4,1.8-.74-.06-1.49-.09-2.25-.09-12.27,0-25.89,8.21-34.58,22.22-11.9,19.19-10.01,41.9,4.23,50.73,1.08.67,2.21,1.21,3.36,1.68-3.73-.32-7.29-1.39-10.5-3.38-14.24-8.83-16.13-31.55-4.23-50.73,8.69-14,22.31-22.23,34.57-22.23M89.84,80.22v3s0-3,0-3c-13.64,0-28.21,9.28-37.12,23.65-6.09,9.82-8.98,20.86-8.13,31.08.88,10.55,5.61,19,13.32,23.78,3.49,2.16,7.47,3.45,11.83,3.82.09,0,.17.01.26.01,1.37,0,2.59-.94,2.91-2.29.35-1.44-.4-2.92-1.77-3.48-1.16-.48-2.09-.94-2.92-1.46-6.06-3.76-9.79-10.57-10.51-19.18-.75-8.95,1.83-18.68,7.25-27.42,7.84-12.64,20.41-20.8,32.03-20.8.67,0,1.34.03,2,.08.09,0,.17.01.25.01,1.37,0,2.59-.94,2.91-2.29.35-1.44-.4-2.92-1.77-3.48-3.27-1.35-6.82-2.03-10.54-2.03h0Z"/><path class="p" d="M10.72,241.63c-1.72,0-3.39-.48-4.85-1.38-4.33-2.69-5.67-8.4-2.98-12.73l37.76-60.26c1.69-2.73,4.64-4.36,7.87-4.36,1.72,0,3.39.48,4.85,1.38,2.09,1.3,3.55,3.34,4.12,5.75.56,2.41.16,4.89-1.14,6.98l-37.76,60.26c-1.69,2.73-4.63,4.36-7.87,4.36Z"/><path class="q" d="M48.52,164.4c1.39,0,2.8.37,4.06,1.16,3.62,2.24,4.74,7.04,2.5,10.66l-37.76,60.25c-1.46,2.36-4,3.65-6.6,3.65-1.39,0-2.8-.37-4.06-1.16h0c-3.62-2.24-4.74-7.04-2.5-10.66l37.76-60.25c1.46-2.36,4-3.65,6.6-3.65M48.52,161.4h0c-3.76,0-7.18,1.9-9.15,5.07L1.62,226.72c-1.52,2.44-1.98,5.32-1.33,8.12.66,2.8,2.36,5.17,4.79,6.68,1.69,1.05,3.65,1.61,5.64,1.61,3.76,0,7.18-1.9,9.15-5.07l37.75-60.24c3.13-5.04,1.58-11.68-3.46-14.8-1.69-1.05-3.65-1.61-5.64-1.61h0Z"/><path class="z" d="M6.54,232.65c-.46,0-.91-.13-1.3-.37-.56-.35-.95-.89-1.1-1.54-.15-.64-.04-1.3.3-1.86l36.32-57.94c.45-.72,1.23-1.16,2.1-1.16.46,0,.91.13,1.3.37.56.35.95.89,1.1,1.53.15.64.04,1.3-.3,1.86l-36.32,57.94c-.45.72-1.23,1.16-2.1,1.16Z"/><path class="q" d="M42.86,171.28c.17,0,.35.05.51.14h0c.45.28.59.88.31,1.33L7.36,230.69c-.18.29-.5.46-.82.46-.17,0-.35-.05-.51-.14-.45-.28-.59-.88-.31-1.33l36.32-57.93c.18-.29.5-.46.82-.46M42.86,168.28c-1.38,0-2.65.7-3.37,1.88L3.18,228.08c-1.16,1.87-.59,4.32,1.27,5.48.63.39,1.35.6,2.09.6,1.38,0,2.65-.7,3.37-1.88l36.31-57.92c.57-.91.74-1.98.5-3.01-.24-1.03-.87-1.91-1.77-2.47-.63-.39-1.35-.6-2.09-.6h0Z"/><path class="z" d="M43.21,167.8c-.65,0-1.29-.18-1.84-.52-.79-.49-1.35-1.26-1.56-2.17-.21-.91-.06-1.85.43-2.64l.87-1.4c.64-1.03,1.75-1.65,2.98-1.65.65,0,1.29.18,1.84.52,1.64,1.02,2.14,3.18,1.13,4.81l-.87,1.4c-.64,1.03-1.75,1.65-2.98,1.65Z"/><path class="q" d="M44.09,160.92c.36,0,.72.1,1.05.3h0c.93.58,1.22,1.82.64,2.75l-.87,1.4c-.38.61-1.03.94-1.7.94-.36,0-.72-.1-1.05-.3-.93-.58-1.22-1.82-.64-2.75l.87-1.4c.38-.61,1.03-.94,1.7-.94M44.09,157.92c-1.75,0-3.33.88-4.25,2.36l-.87,1.4c-.7,1.13-.92,2.47-.62,3.77.3,1.3,1.1,2.4,2.23,3.11.79.49,1.7.75,2.63.75,1.75,0,3.33-.88,4.25-2.36l.87-1.4c1.45-2.34.73-5.43-1.61-6.88-.79-.49-1.7-.75-2.63-.75h0Z"/><g class="f"><g class="w"><path class="y" d="M66.16,236.41c-.83,0-1.5-.67-1.5-1.5V95.03c0-.83.67-1.5,1.5-1.5h25.34c.31,0,.59.09.83.25h11.09c12.99,0,24.93,4.93,33.63,13.87,9.35,9.91,14.09,21.21,14.09,33.6s-4.88,24.37-14.1,33.6c-9.22,9.23-20.84,14.1-33.61,14.1h-17.57v45.96c0,.83-.67,1.5-1.5,1.5h-18.2ZM107.02,167.72c6.41,0,11.89-2.56,16.29-7.62,4.46-5.1,6.72-11.48,6.72-18.96s-2.27-13.57-6.75-19.01c-4.37-5.01-9.85-7.56-16.26-7.56h-21.16v53.15h21.16Z"/><path class="q" d="M91.5,95.03v.25h11.92c12.67,0,24.1,4.72,32.55,13.41,8.44,8.94,13.66,19.87,13.66,32.55s-4.97,23.84-13.66,32.54c-8.7,8.71-19.88,13.66-32.55,13.66h-19.07v47.47h-18.2V95.03h25.34-25.34,25.34M84.36,169.22h22.66c6.79,0,12.7-2.7,17.42-8.13,4.73-5.41,7.09-12.18,7.09-19.95s-2.36-14.22-7.09-19.97c-4.72-5.41-10.63-8.11-17.42-8.11h-22.66v56.15M66.16,95.03h0M91.5,92.03h-25.34c-1.66,0-3,1.34-3,3v139.88c0,1.66,1.34,3,3,3h18.2c1.66,0,3-1.34,3-3v-44.47h16.07c13.18,0,25.17-5.03,34.67-14.54,9.51-9.51,14.54-21.5,14.54-34.66s-4.87-24.43-14.48-34.61c-9.01-9.27-21.33-14.35-34.73-14.35h-10.72c-.37-.16-.77-.25-1.2-.25h0ZM87.36,116.07h19.66c5.94,0,11.03,2.37,15.13,7.05,4.23,5.16,6.38,11.22,6.38,18.03s-2.14,13.16-6.35,17.97c-4.1,4.72-9.2,7.11-15.16,7.11h-19.66v-50.15h0Z"/></g></g><path class="v" d="M510.45,187.62c-.32,0-.48,0-.48,0-.43-.02-.83-.23-1.1-.56-4.61-5.78,4.92-18.17,6.03-19.56.26-.33.64-.53,1.06-.56.04,0,.08,0,.11,0,.38,0,.74.14,1.02.4l13.26,12.33c.35.33.53.8.47,1.28-.06.48-.34.9-.76,1.13-9.32,5.16-17.36,5.56-19.6,5.56Z"/><path class="q" d="M516.06,168.42l13.26,12.33c-9.13,5.05-17.02,5.37-18.87,5.37-.27,0-.41,0-.41,0-4-5.02,6.03-17.69,6.03-17.69M516.06,165.42c-.08,0-.15,0-.23,0-.83.06-1.6.47-2.12,1.13-1.92,2.43-11.24,14.87-6.02,21.42.53.67,1.35,1.08,2.2,1.13,0,0,.19.01.56.01,2.33,0,10.69-.41,20.33-5.75.84-.47,1.41-1.31,1.52-2.26s-.23-1.91-.94-2.56l-13.26-12.33c-.56-.52-1.29-.8-2.04-.8h0Z"/><path class="t" d="M437.15,108.48c-.15,0-.3-.02-.44-.07l-4.94-1.53c-.65-.2-1.08-.81-1.06-1.49.32-8.5,4.9-13.38,5.09-13.59.29-.3.68-.46,1.08-.46.07,0,.14,0,.21.01,11.15,1.58,11.73,3.67,11.92,4.36.61,2.19-.75,5.98-1.03,6.72-.13.34-.37.62-.69.79l-9.43,5.07c-.22.12-.46.18-.71.18Z"/><path class="q" d="M436.88,92.85s10.18,1.44,10.69,3.27-.99,5.79-.99,5.79l-9.43,5.07-4.94-1.53c.3-8.03,4.68-12.61,4.68-12.61M436.88,89.85c-.81,0-1.6.33-2.17.93-.21.22-5.17,5.51-5.51,14.57-.05,1.36.82,2.58,2.11,2.98l4.94,1.53c.29.09.59.13.88.13.49,0,.98-.12,1.42-.36l9.43-5.07c.64-.34,1.13-.91,1.39-1.58.55-1.47,1.77-5.15,1.07-7.65-.36-1.3-1.03-3.72-13.16-5.44-.14-.02-.28-.03-.42-.03h0Z"/><path class="v" d="M543.1,80.88c-.15,0-.37,0-.61-.09-.61-.2-1.09-.36-4.38-6.79-.19-.38-.22-.81-.07-1.21l3.74-10c.23-.6.8-.98,1.4-.98.16,0,.33.03.49.08.32.11,7.94,2.78,12.05,8.46.34.47.38,1.09.1,1.6l-3.8,6.89c-.21.39-.59.66-1.03.75-1.55.3-6.7,1.28-7.89,1.28Z"/><path class="q" d="M543.18,63.31s7.45,2.56,11.32,7.92l-3.8,6.89s-6.46,1.25-7.61,1.25c-.07,0-.12,0-.14-.01-.5-.17-3.52-6.05-3.52-6.05l3.74-10M543.18,60.31c-1.22,0-2.36.75-2.81,1.95l-3.74,10c-.3.79-.24,1.67.14,2.42,3.57,6.98,4.14,7.17,5.25,7.53.33.11.69.16,1.08.16,1.25,0,5.66-.82,8.18-1.31.87-.17,1.63-.72,2.06-1.5l3.8-6.89c.56-1.02.48-2.27-.2-3.21-4.38-6.06-12.44-8.89-12.78-9-.32-.11-.65-.16-.98-.16h0Z"/><path class="t" d="M503.7,125.85c-.36,0-.71-.13-.99-.37l-24.51-21.49c-.41-.36-.59-.91-.48-1.44.11-.53.5-.96,1.02-1.12l36.89-11.55c.15-.05.3-.07.45-.07.41,0,.8.17,1.09.47.39.42.52,1.02.31,1.56l-12.39,33.04c-.17.46-.56.81-1.04.93-.12.03-.24.05-.37.05Z"/><path class="q" d="M516.09,91.31l-12.39,33.04-24.5-21.49,36.89-11.55M516.09,88.31c-.3,0-.6.04-.9.14l-36.89,11.55c-1.04.32-1.81,1.18-2.04,2.24-.22,1.06.14,2.16.96,2.88l24.5,21.49c.55.49,1.26.74,1.98.74.24,0,.49-.03.73-.09.96-.24,1.73-.93,2.08-1.86l12.39-33.04c.4-1.07.16-2.28-.63-3.12-.58-.61-1.37-.94-2.18-.94h0ZM516.09,94.31h0,0Z"/><path class="p" d="M510.81,187.67c-.9,0-1.81-.13-2.7-.4l-42.25-12.66c-5.41-1.62-9.72-5.55-11.84-10.78l-22.61-55.8c-1.03-2.55-.73-5.43.8-7.7,1.54-2.28,4.09-3.65,6.82-3.65.31,0,.63.02.95.05l44.3,4.98c9.26,1.04,16.85,7.51,19.35,16.49l16.06,57.71c.78,2.82.22,5.76-1.53,8.07-1.75,2.31-4.51,3.69-7.36,3.69Z"/><path class="q" d="M439.04,98.17c.26,0,.52.01.78.04l44.3,4.98c8.6.97,15.75,7.06,18.07,15.4l16.06,57.71c1.42,5.12-2.54,9.86-7.44,9.86-.74,0-1.5-.11-2.26-.34l-42.25-12.66c-4.94-1.48-8.94-5.13-10.88-9.91l-22.61-55.8c-1.82-4.49,1.54-9.28,6.23-9.28M439.04,95.17h0c-3.23,0-6.24,1.61-8.06,4.31-1.81,2.69-2.17,6.09-.95,9.1l22.61,55.8c2.29,5.65,6.96,9.9,12.8,11.65l42.25,12.66c1.03.31,2.08.46,3.13.46,3.32,0,6.52-1.6,8.55-4.28,2.04-2.69,2.69-6.11,1.78-9.38l-16.06-57.71c-2.66-9.57-10.76-16.47-20.63-17.58l-44.3-4.98c-.37-.04-.75-.06-1.12-.06h0Z"/><g class="k"><path class="p" d="M510.81,187.67c-.9,0-1.81-.13-2.7-.4l-42.25-12.66c-5.41-1.62-9.72-5.55-11.84-10.78l-3.86-9.52c-.18-.43-.14-.93.1-1.33s.65-.67,1.12-.72c15.03-1.73,29.95-6.82,29.4-14.29,0-.06,0-.11,0-.17.48-12.22,2.81-23.63,6.92-33.91.23-.59.8-.94,1.39-.94.17,0,.35.03.52.09,6.85,2.53,12.09,8.2,14.03,15.17l16.06,57.71c.78,2.82.23,5.76-1.53,8.07-1.75,2.31-4.5,3.69-7.36,3.69h0Z"/><path class="q" d="M489.09,104.43c6.29,2.33,11.25,7.5,13.1,14.16l16.06,57.71c1.42,5.12-2.54,9.86-7.44,9.86-.74,0-1.5-.11-2.26-.34l-42.25-12.66c-4.94-1.48-8.94-5.13-10.88-9.91l-3.86-9.52c15.06-1.74,31.39-6.84,30.72-15.89.5-12.54,2.9-23.62,6.81-33.41M489.09,101.43c-1.19,0-2.32.72-2.79,1.89-4.17,10.44-6.53,22.02-7.02,34.41,0,.11,0,.23,0,.34.41,5.52-11.14,10.73-28.07,12.68-.93.11-1.76.64-2.24,1.45-.48.81-.55,1.79-.2,2.66l3.86,9.52c2.29,5.65,6.96,9.9,12.8,11.65l42.25,12.66c1.03.31,2.08.46,3.13.46,3.32,0,6.52-1.6,8.55-4.28,2.04-2.69,2.69-6.11,1.78-9.38l-16.06-57.71c-2.07-7.43-7.66-13.47-14.95-16.17-.34-.13-.69-.19-1.04-.19h0Z"/></g><path class="y" d="M526.09,182.82c-4.53,0-8.39-2.92-9.6-7.27l-15.46-55.53c-2.67-9.59.71-19.7,8.6-25.77l33.18-25.48c1.64-1.26,3.58-1.92,5.61-1.92,4.59,0,8.45,3.28,9.17,7.81l9.4,58.99c.77,4.81-.67,9.64-3.94,13.25l-29.64,32.68c-1.91,2.1-4.51,3.26-7.32,3.26h0Z"/><path class="q" d="M548.43,68.34c3.6,0,7.05,2.53,7.69,6.54l9.4,58.99c.69,4.34-.62,8.75-3.57,12l-29.64,32.68c-1.72,1.89-3.98,2.77-6.21,2.77-3.57,0-7.06-2.24-8.16-6.18l-15.46-55.53c-2.49-8.95.7-18.52,8.07-24.18l33.18-25.48c1.44-1.11,3.08-1.61,4.7-1.61M548.43,65.34c-2.37,0-4.62.77-6.52,2.23l-33.18,25.48c-8.38,6.44-11.97,17.18-9.13,27.36l15.46,55.53c1.39,5.01,5.83,8.37,11.05,8.37,3.24,0,6.24-1.33,8.43-3.76l29.64-32.68c3.58-3.95,5.15-9.23,4.31-14.49l-9.4-58.99c-.84-5.26-5.32-9.07-10.65-9.07h0Z"/><g class="k"><path class="y" d="M526.09,182.82c-4.53,0-8.39-2.92-9.6-7.27l-15.46-55.53c-1.55-5.56-1.05-11.51,1.4-16.76,1.88-4.26,3.43-6,5.34-6,1.19,0,2.09.75,2.67,1.31,5.01,5.53,3.66,13.12,2.47,19.81-1.71,9.61-2.23,15.15,7.02,17,.06,0,.12,0,.18,0,2.84,0,5.29-2.21,7.88-4.55,2.9-2.62,5.89-5.33,9.89-5.33.14,0,.29,0,.44.01.23.01.46.08.66.19,3.29,1.86,5.88,4.88,7.95,7.31,1.45,1.69,3.25,3.8,4.1,3.8.03,0,.82-.03,2-3.06.03-.09.08-.17.13-.25,3.72-5.92,6.27-12.3,7.77-19.49.15-.7.76-1.19,1.47-1.19.01,0,.02,0,.04,0,.72.02,1.33.55,1.45,1.26l3.12,19.57c.77,4.81-.67,9.64-3.94,13.25l-29.64,32.68c-1.91,2.1-4.51,3.26-7.32,3.26Z"/><path class="q" d="M507.77,98.75c.57,0,1.09.36,1.63.89,10.22,11.31-9.59,33.34,10.36,37.22.12,0,.24,0,.36,0,6.84,0,10.93-9.88,17.77-9.88.12,0,.24,0,.36,0,6.1,3.44,9.69,11.31,12.79,11.31,1.17,0,2.26-1.12,3.39-4.02,4.1-6.51,6.55-13.19,7.97-19.98l3.12,19.57c.69,4.34-.62,8.75-3.57,12l-29.64,32.68c-1.72,1.89-3.98,2.77-6.21,2.77-3.57,0-7.06-2.24-8.16-6.18l-15.46-55.53c-1.49-5.34-.93-10.9,1.31-15.72,1.71-3.87,2.92-5.14,3.98-5.14M507.77,95.75v3s0-3,0-3c-3.21,0-5.12,3.31-6.71,6.9-2.59,5.57-3.11,11.88-1.47,17.77l15.46,55.53c1.39,5.01,5.83,8.37,11.05,8.37,3.24,0,6.24-1.33,8.43-3.76l29.64-32.68c3.58-3.95,5.15-9.23,4.31-14.49l-3.12-19.57c-.23-1.43-1.44-2.49-2.89-2.53-.02,0-.05,0-.07,0-1.42,0-2.64.99-2.94,2.39-1.47,7.02-3.95,13.23-7.57,19-.1.16-.19.33-.26.51-.34.88-.63,1.44-.84,1.78-.75-.65-1.86-1.94-2.72-2.95-2.15-2.52-4.83-5.66-8.36-7.65-.41-.23-.86-.36-1.32-.38-.17,0-.34-.01-.51-.01-4.57,0-7.93,3.04-10.9,5.72-2.37,2.14-4.61,4.17-6.87,4.17,0,0-.01,0-.02,0-7.46-1.53-7.5-5.23-5.71-15.24,1.25-7.03,2.67-15-2.76-21.01-.04-.05-.09-.09-.14-.14-.44-.43-1.78-1.73-3.72-1.73h0Z"/></g><path class="n" d="M489.12,105.28c-1.21,0-2.43-.07-3.63-.2l-46.5-5.41c-.08,0-.16-.02-.23-.05-2.37-.67-3.93-2.07-4.27-3.86-.26-1.36.08-3.47,3.16-5.79l42.21-28.02c3.41-2.23,7.36-3.41,11.43-3.41.25,0,.51,0,.77.01l47.71,2.8c.16,0,.31,0,.47,0,2.61,0,4.43.66,5.56,2.02,1.49,1.78,1.25,4.2.95,5.86-.07.37-.27.69-.56.92l-37.1,28.4c-5.7,4.34-12.79,6.73-19.95,6.73h0Z"/><path class="q" d="M491.28,60.03c.24,0,.47,0,.71.01l47.74,2.8c.17,0,.33,0,.49,0,5.14,0,5.62,2.87,5.03,6.11l-37.1,28.4c-5.5,4.19-12.19,6.42-19.04,6.42-1.15,0-2.31-.06-3.47-.19l-46.49-5.41c-3.56-1-4.77-3.87-.61-7.01l42.13-27.97c3.15-2.06,6.84-3.16,10.6-3.16M491.28,57.03c-4.36,0-8.59,1.26-12.24,3.65l-42.15,27.98c-.05.03-.1.07-.15.11-3.89,2.93-4,5.81-3.73,7.27.45,2.37,2.39,4.2,5.33,5.02.15.04.31.07.46.09l46.49,5.41c1.27.14,2.55.21,3.81.21,7.49,0,14.9-2.5,20.85-7.04l37.1-28.41c.59-.45.99-1.11,1.13-1.84.21-1.13.84-4.57-1.27-7.09-1.41-1.7-3.67-2.56-6.71-2.56-.14,0-.29,0-.44,0l-47.61-2.79s-.04,0-.07,0c-.27,0-.55-.01-.82-.01h0Z"/><g class="k"><path class="n" d="M489.12,105.28c-1.21,0-2.43-.07-3.63-.2l-32.75-3.81c-.62-.07-1.13-.52-1.28-1.13-.15-.61.09-1.24.61-1.6.75-.52,1.17-.84,1.71-1.32.13-.11.27-.21.43-.27,6.98-2.92,14.51-3.3,21.79-3.68,10.77-.55,20.08-1.03,25.72-9.2.03-.04.06-.09.1-.13,3.99-4.62,6.28-10.5,8.71-16.72.83-2.12,1.68-4.3,2.61-6.45.24-.55.78-.9,1.38-.9.03,0,25.26,1.48,25.26,1.48.16,0,.31,0,.46,0,2.61,0,4.43.66,5.56,2.02,1.49,1.78,1.25,4.2.95,5.86-.07.37-.27.69-.56.92l-37.1,28.4c-5.7,4.34-12.79,6.73-19.95,6.73h0Z"/><path class="q" d="M514.5,61.37l25.24,1.48c.17,0,.33,0,.49,0,5.14,0,5.62,2.87,5.03,6.11l-37.1,28.4c-5.5,4.19-12.19,6.42-19.04,6.42-1.15,0-2.31-.06-3.47-.19l-32.75-3.81c.75-.51,1.24-.88,1.86-1.45,16.91-7.06,38.08,1.2,48.17-13.41,5.57-6.47,7.96-15.23,11.56-23.55M514.5,58.37c-1.19,0-2.27.71-2.75,1.81-.94,2.17-1.8,4.37-2.63,6.5-2.38,6.1-4.63,11.86-8.45,16.29-.07.08-.14.17-.2.25-5.23,7.56-14.19,8.02-24.56,8.55-7.41.38-15.07.77-22.29,3.79-.31.13-.6.31-.86.54-.49.44-.85.72-1.55,1.2-1.03.71-1.52,1.98-1.22,3.19s1.32,2.11,2.57,2.26l32.75,3.81c1.27.14,2.55.21,3.81.21,7.49,0,14.9-2.5,20.85-7.04l37.1-28.41c.59-.45.99-1.11,1.13-1.84.21-1.13.84-4.57-1.27-7.09-1.41-1.7-3.67-2.56-6.71-2.56-.14,0-.29,0-.44,0l-25.11-1.47c-.06,0-.12,0-.18,0h0Z"/></g><path class="t" d="M459.17,135.86c-3.7,0-7.69-2.31-10.42-6.03-4.09-5.58-4.06-12.58.08-15.62,1.27-.93,2.83-1.42,4.51-1.42,3.7,0,7.69,2.31,10.41,6.03,4.09,5.58,4.06,12.58-.08,15.62-1.27.93-2.83,1.42-4.51,1.42Z"/><path class="q" d="M453.35,114.29c3.11,0,6.68,1.97,9.21,5.42,3.61,4.92,3.72,10.97.24,13.53-1.04.77-2.29,1.13-3.62,1.13-3.11,0-6.68-1.97-9.21-5.42-3.61-4.92-3.72-10.97-.24-13.53,1.04-.77,2.29-1.13,3.62-1.13M453.35,111.29h0c-2.01,0-3.88.59-5.4,1.71-4.89,3.59-5.06,11.37-.4,17.72,3.01,4.1,7.46,6.64,11.62,6.64,2.01,0,3.87-.59,5.4-1.71,2.45-1.8,3.82-4.84,3.76-8.35-.06-3.17-1.25-6.5-3.36-9.37-3.01-4.1-7.46-6.64-11.62-6.64h0Z"/><path class="g" d="M459.53,133.32c-2.97,0-6.17-1.84-8.34-4.81-1.53-2.09-2.4-4.5-2.44-6.79-.04-2.48.87-4.54,2.58-5.79,1.04-.76,2.32-1.17,3.7-1.17,2.97,0,6.17,1.84,8.34,4.81,3.34,4.55,3.28,10.07-.14,12.58-1.04.76-2.32,1.17-3.7,1.17Z"/><path class="q" d="M455.02,116.27c2.41,0,5.18,1.53,7.14,4.2,2.8,3.81,2.88,8.51.19,10.48-.81.59-1.78.87-2.81.87-2.41,0-5.18-1.53-7.14-4.2-2.8-3.81-2.88-8.51-.19-10.48.81-.59,1.78-.87,2.81-.87M455.02,113.27h0c-1.7,0-3.29.5-4.58,1.46-4.09,3-4.29,9.45-.46,14.68,2.45,3.34,6.12,5.42,9.55,5.42,1.7,0,3.29-.5,4.58-1.46,4.09-3,4.29-9.45.46-14.68-2.45-3.34-6.11-5.42-9.55-5.42h0Z"/><path class="t" d="M488.11,87.62c-5.07,0-9.02-2.43-10.07-6.18-1.37-4.91,2.9-10.4,9.52-12.24,1.46-.41,2.95-.61,4.41-.61,5.07,0,9.02,2.43,10.07,6.18,1.37,4.91-2.9,10.4-9.52,12.24-1.47.41-2.95.61-4.41.61Z"/><path class="q" d="M491.97,70.09c4.22,0,7.74,1.93,8.62,5.08,1.15,4.12-2.65,8.77-8.48,10.4-1.36.38-2.72.56-4.01.56-4.22,0-7.74-1.93-8.62-5.08-1.15-4.12,2.65-8.77,8.48-10.4,1.36-.38,2.72-.56,4.01-.56M491.97,67.09h0c-1.6,0-3.22.23-4.81.67-7.54,2.1-12.18,8.29-10.56,14.09,1.23,4.42,5.75,7.28,11.51,7.28,1.6,0,3.22-.23,4.81-.67,7.54-2.1,12.18-8.29,10.56-14.09-1.23-4.42-5.75-7.28-11.51-7.28h0Z"/><path class="g" d="M488.42,87c-4.32,0-7.68-2.02-8.55-5.15-1.17-4.2,2.48-8.77,8.31-10.39,1.31-.36,2.64-.55,3.94-.55,4.32,0,7.68,2.02,8.55,5.15,1.17,4.2-2.48,8.77-8.31,10.39-1.31.36-2.64.55-3.94.55Z"/><path class="q" d="M492.13,72.41c3.51,0,6.4,1.53,7.1,4.05.93,3.34-2.33,7.16-7.27,8.54-1.21.34-2.4.49-3.54.49-3.51,0-6.4-1.53-7.1-4.05-.93-3.34,2.33-7.16,7.27-8.54,1.21-.34,2.4-.49,3.54-.49M492.13,69.41h0c-1.44,0-2.9.2-4.34.6-2.96.82-5.56,2.42-7.32,4.48-2.01,2.36-2.75,5.19-2.04,7.76,1.06,3.8,4.98,6.25,9.99,6.25,1.44,0,2.9-.2,4.34-.6,6.64-1.85,10.75-7.22,9.36-12.24-1.06-3.8-4.98-6.25-9.99-6.25h0Z"/><path class="t" d="M494.61,168.9c-3.54,0-7.36-2.21-9.97-5.77-1.84-2.51-2.89-5.4-2.93-8.14-.05-2.93,1.02-5.36,3.03-6.83,1.22-.89,2.72-1.36,4.34-1.36,3.54,0,7.36,2.21,9.97,5.77,3.92,5.34,3.88,12.06-.09,14.97-1.22.89-2.72,1.36-4.34,1.36Z"/><path class="q" d="M489.07,148.3c2.96,0,6.36,1.88,8.76,5.15,3.44,4.68,3.54,10.45.23,12.87-.99.73-2.18,1.07-3.45,1.07-2.96,0-6.36-1.88-8.76-5.15-3.44-4.68-3.54-10.45-.23-12.87.99-.73,2.18-1.07,3.45-1.07M489.07,145.3h0c-1.94,0-3.75.57-5.23,1.66-2.37,1.74-3.7,4.68-3.64,8.06.05,3.05,1.2,6.24,3.22,9,2.89,3.94,7.17,6.38,11.18,6.38,1.94,0,3.75-.57,5.23-1.66,2.37-1.74,3.7-4.68,3.64-8.06-.05-3.05-1.2-6.24-3.22-9-2.89-3.94-7.17-6.38-11.18-6.38h0Z"/><path class="t" d="M523.05,125.87c-3.98,0-7.34-3.98-7.82-9.26-.5-5.56,2.37-10.21,6.55-10.59.18-.02.35-.02.52-.02,3.98,0,7.34,3.98,7.82,9.26.5,5.56-2.37,10.21-6.55,10.59-.18.02-.35.02-.52.02Z"/><path class="q" d="M522.3,107.5c3.13,0,5.92,3.43,6.33,7.9.42,4.65-1.9,8.66-5.19,8.96-.13.01-.26.02-.39.02-3.13,0-5.92-3.43-6.33-7.9-.42-4.65,1.9-8.66,5.19-8.96.13-.01.26-.02.39-.02M522.3,104.5h0c-.22,0-.44,0-.66.03-2.55.23-4.85,1.81-6.31,4.33-1.29,2.22-1.85,5.03-1.59,7.89.55,6.06,4.55,10.63,9.32,10.63.22,0,.44,0,.66-.03,5.01-.45,8.48-5.82,7.9-12.22-.55-6.06-4.55-10.63-9.32-10.63h0Z"/><path class="g" d="M522.32,123.51c-3.34,0-6.15-3.3-6.55-7.67-.19-2.1.22-4.15,1.16-5.77,1.02-1.76,2.6-2.86,4.34-3.02.15-.01.3-.02.45-.02,3.34,0,6.15,3.3,6.55,7.67.42,4.61-2,8.47-5.5,8.78-.15.01-.3.02-.45.02Z"/><path class="q" d="M521.72,108.53c2.5,0,4.73,2.74,5.05,6.31.34,3.71-1.52,6.92-4.14,7.15-.1,0-.21.01-.31.01-2.5,0-4.73-2.74-5.05-6.31-.34-3.71,1.52-6.92,4.14-7.15.1,0,.21-.01.31-.01M521.72,105.53c-.19,0-.39,0-.58.03-4.34.39-7.35,4.97-6.86,10.41.47,5.15,3.92,9.03,8.04,9.03.19,0,.39,0,.58-.03,2.23-.2,4.24-1.57,5.51-3.76,1.09-1.88,1.57-4.25,1.35-6.65-.47-5.15-3.92-9.03-8.04-9.03h0Z"/><path class="t" d="M545.28,105.87c-3.98,0-7.34-3.98-7.82-9.26-.23-2.56.26-5.04,1.4-7,1.23-2.13,3.06-3.4,5.15-3.59.17-.02.35-.02.52-.02,3.98,0,7.34,3.98,7.82,9.26.23,2.56-.26,5.04-1.4,7-1.23,2.13-3.06,3.4-5.15,3.59-.18.02-.35.02-.52.02Z"/><path class="q" d="M544.53,87.49c3.13,0,5.92,3.43,6.33,7.9.42,4.65-1.9,8.66-5.19,8.96-.13.01-.26.02-.39.02-3.13,0-5.92-3.43-6.33-7.9-.42-4.65,1.9-8.66,5.19-8.96.13-.01.26-.02.39-.02M544.53,84.49h0c-.22,0-.44,0-.66.03-5.01.45-8.48,5.82-7.9,12.22.55,6.06,4.55,10.63,9.32,10.63.22,0,.44,0,.66-.03,5.01-.45,8.48-5.82,7.9-12.22-.55-6.06-4.55-10.63-9.32-10.63h0Z"/><path class="t" d="M532.76,158c-3.98,0-7.34-3.98-7.82-9.26-.23-2.56.26-5.04,1.4-7,1.23-2.13,3.06-3.4,5.15-3.59.18-.02.35-.02.52-.02,3.98,0,7.34,3.98,7.82,9.26.5,5.56-2.37,10.21-6.55,10.59-.18.02-.35.02-.52.02Z"/><path class="q" d="M532.01,139.62c3.13,0,5.92,3.43,6.33,7.9.42,4.65-1.9,8.66-5.19,8.96-.13.01-.26.02-.39.02-3.13,0-5.92-3.43-6.33-7.9-.42-4.65,1.9-8.66,5.19-8.96.13-.01.26-.02.39-.02M532.01,136.62h0c-.22,0-.44,0-.66.03-2.55.23-4.85,1.81-6.31,4.33-1.29,2.22-1.85,5.03-1.59,7.89.55,6.06,4.55,10.63,9.32,10.63.22,0,.44,0,.66-.03,2.55-.23,4.85-1.81,6.31-4.33,1.29-2.22,1.85-5.03,1.59-7.89-.55-6.06-4.55-10.63-9.32-10.63h0Z"/><path class="t" d="M553.11,138.38c-3.98,0-7.34-3.98-7.82-9.26-.5-5.56,2.37-10.21,6.55-10.59.18-.02.35-.02.52-.02,3.98,0,7.34,3.98,7.82,9.26.23,2.56-.26,5.04-1.4,7-1.23,2.13-3.06,3.4-5.15,3.59-.17.02-.35.02-.52.02Z"/><path class="q" d="M552.36,120.01c3.13,0,5.92,3.43,6.33,7.9.42,4.65-1.9,8.66-5.19,8.96-.13.01-.26.02-.39.02-3.13,0-5.92-3.43-6.33-7.9-.42-4.65,1.9-8.66,5.19-8.96.13-.01.26-.02.39-.02M552.36,117.01h0c-.22,0-.44,0-.66.03-5.01.45-8.48,5.82-7.9,12.22.55,6.06,4.55,10.63,9.32,10.63.22,0,.44,0,.66-.03,5.01-.45,8.48-5.82,7.9-12.22-.55-6.06-4.55-10.63-9.31-10.63h0Z"/><path class="g" d="M494.84,166.58c-2.97,0-6.17-1.84-8.34-4.81-1.53-2.09-2.4-4.5-2.44-6.79-.04-2.48.87-4.54,2.58-5.79,1.04-.76,2.32-1.17,3.7-1.17,2.97,0,6.17,1.84,8.34,4.81,3.34,4.55,3.28,10.07-.14,12.58-1.04.76-2.32,1.17-3.7,1.17Z"/><path class="q" d="M490.33,149.53c2.41,0,5.18,1.53,7.14,4.2,2.8,3.81,2.88,8.51.19,10.48-.81.59-1.78.87-2.81.87-2.41,0-5.18-1.53-7.14-4.2-2.8-3.81-2.88-8.51-.19-10.48.81-.59,1.78-.87,2.81-.87M490.33,146.53h0c-1.7,0-3.29.5-4.58,1.46-2.08,1.53-3.24,4.09-3.19,7.03.05,2.59,1.02,5.31,2.73,7.65,2.45,3.34,6.12,5.42,9.55,5.42,1.7,0,3.29-.5,4.58-1.46,2.08-1.53,3.24-4.09,3.19-7.03-.05-2.59-1.02-5.31-2.73-7.65-2.45-3.34-6.11-5.42-9.55-5.42h0Z"/><path class="g" d="M544.52,103.62c-3.34,0-6.15-3.3-6.55-7.67-.19-2.1.22-4.15,1.16-5.77,1.02-1.76,2.6-2.86,4.34-3.02.15-.01.3-.02.45-.02,3.34,0,6.15,3.3,6.55,7.67.42,4.61-2,8.47-5.5,8.78-.15.01-.3.02-.45.02Z"/><path class="q" d="M543.92,88.65c2.5,0,4.73,2.74,5.05,6.31.34,3.71-1.52,6.92-4.14,7.15-.1,0-.21.01-.31.01-2.5,0-4.73-2.74-5.05-6.31-.34-3.71,1.52-6.92,4.14-7.15.1,0,.21-.01.31-.01M543.92,85.65c-.19,0-.39,0-.58.03-2.23.2-4.24,1.57-5.51,3.76-1.09,1.88-1.57,4.25-1.35,6.65.47,5.15,3.92,9.03,8.04,9.03.19,0,.39,0,.58-.03,4.34-.39,7.35-4.97,6.86-10.41-.47-5.15-3.92-9.03-8.04-9.03h0Z"/><path class="g" d="M531.79,155.84c-3.34,0-6.15-3.3-6.55-7.67-.42-4.61,2-8.47,5.5-8.78.15-.01.3-.02.45-.02,3.34,0,6.15,3.3,6.55,7.67.42,4.61-2,8.47-5.5,8.78-.15.01-.3.02-.45.02Z"/><path class="q" d="M531.19,140.87c2.5,0,4.73,2.74,5.05,6.31.34,3.71-1.52,6.92-4.14,7.15-.1,0-.21.01-.31.01-2.5,0-4.73-2.74-5.05-6.31-.34-3.71,1.52-6.92,4.14-7.15.1,0,.21-.01.31-.01M531.19,137.87c-.19,0-.39,0-.58.03-2.23.2-4.24,1.57-5.51,3.76-1.09,1.88-1.57,4.25-1.35,6.65.47,5.15,3.92,9.03,8.04,9.03.19,0,.39,0,.58-.03,4.34-.39,7.35-4.97,6.86-10.41-.47-5.15-3.92-9.03-8.04-9.03h0Z"/><path class="g" d="M552.22,135.95c-3.34,0-6.15-3.3-6.55-7.67-.19-2.1.22-4.15,1.16-5.77,1.02-1.76,2.6-2.86,4.34-3.02.15-.01.3-.02.45-.02,3.34,0,6.15,3.3,6.55,7.67.42,4.61-2,8.47-5.5,8.78-.15.01-.3.02-.45.02Z"/><path class="q" d="M551.62,120.98c2.5,0,4.73,2.74,5.05,6.31.34,3.71-1.52,6.92-4.14,7.15-.1,0-.21.01-.31.01-2.5,0-4.73-2.74-5.05-6.31-.34-3.71,1.52-6.92,4.14-7.15.1,0,.21-.01.31-.01M551.62,117.98h0c-.19,0-.39,0-.58.03-4.34.39-7.35,4.97-6.86,10.41.47,5.15,3.92,9.03,8.04,9.03.19,0,.39,0,.58-.03,2.23-.2,4.24-1.57,5.51-3.76,1.09-1.88,1.57-4.25,1.35-6.65-.47-5.15-3.92-9.03-8.04-9.03h0Z"/><g class="l"><path class="q" d="M444.39,99.74c-.07,0-.15,0-.22-.02l-5.44-.82c-.35-.07-2.79-.63-3.29-2.8-.46-2,.92-4.16,4.36-6.79.03-.02.06-.04.09-.06l41.25-27.14c.6-.48,4.08-3.01,10.18-3.01.7,0,1.41.03,2.13.1.65.06,1.19.53,1.33,1.17.14.64-.15,1.29-.71,1.62-.39.22-38.75,22.54-48.42,37.08-.28.42-.75.67-1.25.67Z"/><path class="q" d="M491.32,60.6c.63,0,1.29.03,1.99.09,0,0-38.94,22.55-48.92,37.55l-5.44-.82s-5.72-1.17,1.76-6.92l41.31-27.18s3.17-2.72,9.3-2.72M491.32,57.6h0c-6.42,0-10.15,2.58-11.07,3.3l-41.19,27.1c-.06.04-.12.08-.18.13-2.49,1.91-5.7,4.85-4.91,8.32.54,2.34,2.69,3.57,4.37,3.92.05.01.1.02.16.03l5.44.82c.15.02.3.03.45.03.99,0,1.94-.49,2.5-1.34,9.48-14.24,47.54-36.39,47.92-36.61,1.13-.65,1.71-1.97,1.43-3.24-.28-1.28-1.35-2.22-2.65-2.34-.76-.07-1.52-.11-2.26-.11h0Z"/></g><g class="l"><path class="q" d="M450.42,151.12c-.54,0-1.06-.29-1.33-.8-.1-.19-2.5-4.79-4.36-11.14l-12.22-31.26c-.02-.06-.04-.12-.06-.18-.69-2.72-.4-5,.85-6.77,1.9-2.7,5.32-3.06,5.47-3.07.05,0,.1,0,.14,0,.05,0,.11,0,.16,0l39.98,4.23c1.79.14,3.67.34,5.59.59.81.11,1.39.85,1.29,1.66-.09.76-.74,1.32-1.49,1.32-.05,0-.11,0-.16,0l-5.51-.58c-2.16-.17-4.25-.25-6.21-.25-11.33,0-19.19,2.82-23.36,8.4-5.3,7.08-3.82,17.47-1.64,24.96l4.25,10.87c.29.74-.05,1.58-.77,1.91-.2.09-.41.14-.62.14Z"/><path class="q" d="M438.91,99.39l40,4.23c-2.25-.18-4.36-.26-6.35-.26-31.76,0-30.43,21.66-26.42,35.34l-12.24-31.32c-1.85-7.33,5.01-7.99,5.01-7.99M478.91,103.62c1.76.14,3.6.33,5.53.59l-5.53-.59M446.14,138.69l4.27,10.93s-2.42-4.61-4.27-10.93M438.91,96.39c-.1,0-.19,0-.29.01-.43.04-4.29.5-6.55,3.7-1.04,1.48-2.07,4.06-1.08,8,.03.12.07.24.11.36l12.2,31.2c1.91,6.46,4.35,11.15,4.46,11.35.53,1.02,1.58,1.61,2.66,1.61.42,0,.84-.09,1.24-.27,1.45-.66,2.13-2.34,1.55-3.82l-4.22-10.8c-2.08-7.15-3.5-17,1.41-23.57,3.87-5.17,11.33-7.8,22.16-7.8,1.91,0,3.96.08,6.07.25l5.49.58c.11.01.21.02.32.02,1.5,0,2.8-1.12,2.98-2.65.19-1.63-.96-3.11-2.59-3.33-1.94-.25-3.84-.46-5.65-.6l-39.96-4.23c-.1-.01-.21-.02-.32-.02h0Z"/></g><path class="y" d="M574.35,92.06c-.26,0-.53-.02-.79-.05l-9.44-1.25c-1.33-.18-2.51-.86-3.33-1.93-.82-1.07-1.17-2.39-.99-3.72l1.27-9.56c.29-2.21,1.86-4.06,4-4.71l3.89-1.18c.14-.04.29-.06.44-.06.35,0,.7.12.97.36.39.33.58.83.52,1.34l-.21,1.57,7.82.75c.5.05.95.35,1.18.79.24.44.23.98,0,1.42l-3.64,6.69,5.02,1.65c.47.15.83.53.97,1.01.14.47.03.99-.28,1.37l-2.71,3.31c-1.15,1.4-2.85,2.21-4.66,2.21h0Z"/><path class="q" d="M569.38,71.1h0M569.38,71.1l-.41,3.11,9.37.9-4.51,8.27,6.73,2.21-2.71,3.31c-.87,1.06-2.15,1.66-3.5,1.66-.2,0-.4-.01-.59-.04l-7.55-1-1.9-.25c-1.93-.26-3.29-2.03-3.03-3.96l.44-3.34.82-6.22c.22-1.63,1.37-2.99,2.95-3.47l3.89-1.18M569.38,68.1s-.09,0-.13,0c-.28.01-.55.06-.81.15l-3.82,1.16c-2.7.82-4.68,3.15-5.05,5.95l-.82,6.22-.44,3.34c-.23,1.73.23,3.44,1.29,4.83s2.6,2.27,4.32,2.5l1.9.25,7.55,1c.33.04.66.07.99.07,2.26,0,4.38-1,5.82-2.76l2.71-3.31c.63-.77.84-1.79.56-2.74-.28-.95-1-1.7-1.94-2.01l-3.31-1.09,2.78-5.11c.48-.88.49-1.95.02-2.84-.47-.89-1.36-1.48-2.36-1.58l-6.27-.6c.02-.14.03-.28.03-.43,0-1.65-1.33-2.99-2.98-3,0,0-.02,0-.03,0h0Z"/><path class="y" d="M576.88,71c-.25,0-.49-.02-.74-.05l-9.95-1.32c-2.6-.34-4.44-2.74-4.1-5.35l2.18-16.43c.27-2.06,1.73-3.78,3.72-4.38l3.3-1c.13-.04.27-.06.41-.06,0,0,2.54-.04,2.55-.04.33,0,.65.11.91.31l2.23,1.72c.98.13,1.63.2,2.14.2.9,0,1.26-.19,3.23-1.69,2.63-2.01,4.18-4.71,4.62-8.02.41-3.12-.44-6.24-2.4-8.79-2.01-2.63-4.66-4.18-7.87-4.6-.59-.08-1.17-.12-1.74-.12-2.29,0-4.35.63-6.28,1.91-.39.26-.76.54-1.11.82.15.12.29.26.39.43.35.6.25,1.36-.25,1.84l-3.39,3.28c-.76.73-1.75,1.13-2.8,1.13-.38,0-.75-.05-1.11-.16l-9.47-2.71c-1.54-.44-2.8-1.53-3.47-2.98-.66-1.44-.67-3.1-.01-4.54,2.37-5.18,6.06-9.43,10.98-12.63,5.27-3.3,10.87-4.97,16.69-4.97,1.33,0,2.68.09,4.01.27,8.11,1.07,15.32,5.25,20.3,11.76,4.98,6.51,7.15,14.5,6.08,22.51-1.07,8.11-5.25,15.31-11.76,20.3-3.53,2.7-7.43,4.55-11.64,5.52l.61.17c.49.14.88.51,1.03,1s.04,1.02-.29,1.41l-2.72,3.23c-1.07,1.28-2.65,2.01-4.31,2.01h0Z"/><path class="q" d="M575.56,4.32c1.25,0,2.53.08,3.81.25,8.02,1.06,14.71,5.18,19.31,11.18,4.59,6,6.83,13.53,5.79,21.4-1.06,8.02-5.18,14.71-11.18,19.31-3.94,3.02-8.52,5.03-13.69,5.73l-2.45,1.03,5.63,1.57-2.72,3.23c-.79.94-1.95,1.47-3.17,1.47-.18,0-.36-.01-.54-.04l-8.89-1.18-1.06-.14c-1.79-.24-3.04-1.88-2.81-3.66l1.26-9.55.19-1.44.72-5.44c.2-1.48,1.24-2.71,2.67-3.14l3.3-1,2.52-.04,2.55,1.96c1.21.16,2.06.27,2.74.27,1.44,0,2.16-.49,4.14-2,2.91-2.23,4.7-5.23,5.2-9.01.48-3.63-.59-7.16-2.69-9.9-2.23-2.91-5.23-4.7-8.86-5.18-.66-.09-1.3-.13-1.93-.13-2.57,0-4.94.72-7.11,2.17-1.74,1.17-3.12,2.57-4.12,4.18l2.94-.9-3.39,3.28c-.48.46-1.11.71-1.76.71-.23,0-.47-.03-.7-.1l-9.47-2.71c-2.33-.67-3.54-3.25-2.53-5.45,2.27-4.96,5.8-8.98,10.43-11.99,4.82-3.02,10.18-4.73,15.88-4.73M575.56,1.32c-6.11,0-11.98,1.75-17.47,5.19-5.2,3.38-9.08,7.84-11.57,13.29-.84,1.84-.84,3.95.01,5.79.85,1.85,2.46,3.24,4.42,3.8l9.47,2.71c.5.14,1.01.21,1.52.21,1.44,0,2.81-.55,3.85-1.56l3.39-3.28c.8-.78,1.09-1.92.8-2.96,1.66-1.1,3.43-1.63,5.41-1.63.5,0,1.02.04,1.54.1,2.8.37,5.11,1.73,6.87,4.03,1.71,2.24,2.46,4.97,2.1,7.69-.39,2.94-1.71,5.24-4.05,7.02-1.81,1.39-1.93,1.39-2.31,1.39-.36,0-.91-.06-1.55-.14l-1.91-1.47c-.52-.4-1.17-.62-1.83-.62-.02,0-.03,0-.05,0l-2.52.04c-.28,0-.56.05-.82.13l-3.3,1c-2.55.77-4.42,2.98-4.77,5.62l-.72,5.44-.19,1.44-1.26,9.55c-.22,1.66.22,3.3,1.24,4.63,1.02,1.33,2.49,2.18,4.15,2.4l1.06.14,8.89,1.18c.31.04.63.06.94.06,2.11,0,4.1-.93,5.46-2.54l2.72-3.23c.66-.78.87-1.84.57-2.82,0,0,0-.02,0-.03,3.38-1.11,6.55-2.79,9.48-5.03,6.82-5.23,11.2-12.79,12.33-21.29,1.11-8.41-1.15-16.79-6.38-23.62-5.23-6.82-12.79-11.2-21.29-12.33-1.4-.19-2.81-.28-4.21-.28h0Z"/><path class="o" d="M556.33,23.98c-2.48-.71-3.8-3.48-2.7-5.82,2.28-4.84,5.76-8.76,10.31-11.72,5.88-3.69,12.57-5.42,19.69-4.48,8.02,1.06,14.71,5.18,19.31,11.18,4.59,6,6.83,13.53,5.79,21.4s-5.18,14.71-11.18,19.31c-3.2,2.45-6.82,4.24-10.83,5.2-1.72.41-3.03,1.81-3.26,3.56l-.05.35c-.31,2.32-2.43,3.94-4.75,3.64l-7.05-.93c-2.32-.31-3.94-2.43-3.64-4.75l1.33-10.03.49-3.68c.31-2.32,2.43-3.94,4.75-3.64l3.52.47c3.78.5,6.97-.31,9.88-2.54,2.91-2.23,4.7-5.23,5.2-9.01.48-3.63-.59-7.16-2.69-9.9-2.23-2.91-5.23-4.7-8.86-5.18-3.33-.44-6.34.24-9.05,2.03-1.86,1.25-3.31,2.75-4.33,4.5s-2.97,2.59-4.87,2.04l-7.01-2.01ZM565.63,82.01l.97-7.35c.31-2.32,2.43-3.94,4.75-3.64l7.05.93c2.32.31,3.94,2.43,3.64,4.75l-.97,7.35c-.31,2.32-2.43,3.94-4.75,3.64l-7.05-.93c-2.32-.31-3.94-2.43-3.64-4.75Z"/><g class="l"><path class="q" d="M559.99,25.36c-.14,0-.28-.02-.42-.06l-3.84-1.12c-1.21-.35-2.22-1.21-2.77-2.35-.55-1.15-.58-2.49-.09-3.68,2.09-5.01,9.13-16.65,29.43-16.65.49,0,.99,0,1.49.02.82.02,1.47.7,1.46,1.52s-.67,1.48-1.49,1.48c-.8,0-19.68.38-22.29,19.54-.06.43-.3.82-.67,1.06-.25.16-.53.24-.82.24Z"/><path class="q" d="M582.3,3c.48,0,.96,0,1.45.02,0,0-20.95.11-23.77,20.84l-3.84-1.12c-1.71-.5-2.57-2.37-1.89-4.01,2.24-5.38,9.03-15.73,28.04-15.73M582.3,0h0c-21.2,0-28.61,12.29-30.81,17.58-.66,1.58-.61,3.37.12,4.9.73,1.52,2.08,2.67,3.7,3.14l3.84,1.12c.28.08.56.12.84.12.57,0,1.14-.16,1.63-.48.73-.48,1.22-1.25,1.34-2.11,2.43-17.83,20.07-18.23,20.82-18.24,1.63-.02,2.96-1.34,2.97-2.98.01-1.63-1.28-2.98-2.91-3.02-.52-.01-1.03-.02-1.54-.02h0Z"/></g><g class="l"><path class="q" d="M568.5,65.79c-.09,0-.18,0-.27-.02-.79-.14-1.32-.88-1.22-1.67l2.69-20.34c.05-.39.26-.75.57-.99.26-.2.58-.31.91-.31.07,0,.13,0,.2.01l8.3,1.1s.3.03.76.03c2.25,0,7.8-.65,10.84-6.67.26-.52.79-.82,1.34-.82.15,0,.31.02.46.07.7.23,1.14.94,1.02,1.67-.02.1-1.86,10.5-14.71,10.5-.81,0-1.65-.04-2.51-.12-.47.21-3.62,2.15-6.93,16.41-.16.69-.77,1.16-1.46,1.16Z"/><path class="q" d="M592.63,37.6h0M592.63,37.6s-1.5,9.24-13.23,9.24c-.8,0-1.65-.04-2.55-.14,0,0,0,0-.03,0-.37,0-4.33.4-8.32,17.59l2.69-20.34,8.3,1.1s.35.04.95.04c2.4,0,8.74-.68,12.18-7.49M592.63,34.59c-.13,0-.25,0-.38.02-.5.06-.95.25-1.34.52-.28.2-.53.44-.73.73-.09.13-.18.28-.25.43-2.67,5.22-7.51,5.79-9.47,5.79-.33,0-.54-.02-.6-.02l-8.26-1.09c-.13-.02-.26-.03-.39-.03-.66,0-1.3.22-1.82.62-.63.48-1.05,1.2-1.15,1.99l-2.69,20.34c-.21,1.59.86,3.06,2.44,3.35.18.03.36.05.54.05,1.37,0,2.6-.94,2.92-2.32,2.64-11.39,5.14-14.5,5.89-15.21.72.06,1.42.08,2.09.08,11.15,0,15.42-7.49,16.16-11.6.05-.21.07-.42.07-.64,0-1.59-1.24-2.9-2.81-2.99-.06,0-.13,0-.19,0h0ZM592.63,40.6h0,0Z"/></g><g class="l"><path class="q" d="M566.15,86.5c-.8-.07-1.4-.76-1.36-1.56,0-.07.04-.71.22-1.67l1.6-12.05c.05-.39.26-.75.57-.99.26-.2.58-.31.91-.31.07,0,.13,0,.2.01l12.97,1.72c.82.11,1.39.85,1.29,1.67-.09.76-.74,1.31-1.49,1.31-.06,0-.12,0-.18-.01-.74-.09-1.46-.13-2.15-.13-7.84,0-10.11,5.78-10.77,9.25l-.19,1.47c-.1.75-.74,1.3-1.49,1.3-.04,0-.09,0-.14,0Z"/><path class="q" d="M568.08,71.41l12.97,1.72c-.82-.1-1.59-.14-2.32-.14-9.26,0-11.65,7.28-12.25,10.51l1.6-12.09M566.48,83.5l-.2,1.51s.03-.59.2-1.51M568.08,68.41c-.66,0-1.3.22-1.82.62-.63.48-1.05,1.2-1.15,1.99l-1.59,12.01c-.19,1.02-.23,1.71-.23,1.84-.08,1.61,1.13,2.99,2.73,3.13.09,0,.18.01.27.01,1.49,0,2.77-1.1,2.97-2.61l.19-1.42c.71-3.66,2.89-7.99,9.29-7.99.62,0,1.29.04,1.97.12.12.01.24.02.35.02,1.49,0,2.78-1.11,2.97-2.63.2-1.64-.95-3.13-2.58-3.35l-12.97-1.72c-.13-.02-.26-.03-.39-.03h0Z"/></g><path class="y" d="M111.9,125.8v.1h4.89c5.2,0,9.88,1.94,13.35,5.5,3.46,3.67,5.6,8.15,5.6,13.35s-2.04,9.78-5.6,13.34c-3.57,3.57-8.15,5.6-13.35,5.6h-7.82v19.46h-7.46v-57.36h10.39ZM101.5,125.8h10.39-10.39ZM108.97,133.19v23.03h9.29c2.78,0,5.21-1.11,7.14-3.33,1.94-2.22,2.91-4.99,2.91-8.18s-.97-5.83-2.91-8.19c-1.94-2.22-4.36-3.33-7.14-3.33h-9.29Z"/><path class="y" d="M162.93,183.16h-8.71l-8.34-13.98h-1.1v13.98h-7.47v-41.21h7.47v.07h3.51c3.73,0,7.1,1.39,9.59,3.95,2.49,2.63,4.03,5.85,4.03,9.59s-1.46,7.17-4.03,9.58c-1.25,1.25-2.56,2.12-4.03,2.78l9.07,15.23ZM144.78,161.64h3.51c1.68,0,3.15-.58,4.32-1.76,1.17-1.17,1.76-2.63,1.76-4.32s-.58-3.08-1.76-4.32c-1.17-1.17-2.63-1.75-4.32-1.75h-3.51v12.15Z"/><path class="y" d="M200.03,147c4.03,4.03,6.37,9.29,6.37,15.37s-2.34,11.34-6.37,15.37c-4.03,4.03-9.29,6.37-15.37,6.37s-11.34-2.34-15.37-6.37c-4.03-4.03-6.37-9.29-6.37-15.37s2.34-11.34,6.37-15.37c4.03-4.03,9.29-6.37,15.37-6.37s11.34,2.34,15.37,6.37ZM184.66,148.1c-3.88,0-7.39,1.61-10.03,4.25-2.63,2.63-4.24,6.14-4.24,10.03s1.61,7.46,4.24,10.1c2.56,2.56,6.15,4.17,10.03,4.17s7.47-1.53,10.1-4.17c2.63-2.64,4.17-6.07,4.17-10.1s-1.61-7.47-4.17-10.03c-2.63-2.63-6.07-4.25-10.1-4.25Z"/><path class="y" d="M216.59,141.95v.07h4.32c3.22,0,6.07,1.24,8.34,3.44,2.12,2.12,3.44,5.05,3.44,8.34,0,2.93-1.1,5.64-2.93,7.76l.29.22c2.27,2.27,3.66,5.42,3.66,8.86s-1.39,6.52-3.66,8.78c-2.27,2.27-5.41,3.66-8.85,3.66h-4.61v.07h-7.47v-41.21h7.47ZM216.59,141.95h-7.47,7.47ZM216.59,149.49v8.56h4.32c1.24,0,2.27-.44,3-1.24.8-.73,1.24-1.75,1.24-3s-.44-2.27-1.24-3.07c-.81-.81-1.83-1.24-3-1.24h-4.32ZM216.59,165.66v9.95h4.61c1.39,0,2.63-.58,3.51-1.46.88-.95,1.46-2.12,1.46-3.51s-.58-2.63-1.46-3.51c-.88-.95-2.05-1.46-3.51-1.46h-4.61Z"/><path class="y" d="M257.86,173.79h-14.49l-4.39,9.37h-8.2l16.18-34.25,3.37-7.1,3.44,7.03,16.91,34.33h-8.2l-4.61-9.37ZM246.74,166.76h7.61l-3.88-7.98-3.73,7.98ZM250.47,158.78l-3.73,7.98,3.73-7.98Z"/><path class="y" d="M281.06,141.95v.07h4.32c3.22,0,6.07,1.24,8.34,3.44,2.12,2.12,3.44,5.05,3.44,8.34,0,2.93-1.1,5.64-2.93,7.76l.29.22c2.27,2.27,3.66,5.42,3.66,8.86s-1.39,6.52-3.66,8.78c-2.27,2.27-5.41,3.66-8.85,3.66h-4.61v.07h-7.47v-41.21h7.47ZM281.06,141.95h-7.47,7.47ZM281.06,149.49v8.56h4.32c1.24,0,2.27-.44,3-1.24.8-.73,1.24-1.75,1.24-3s-.44-2.27-1.24-3.07c-.81-.81-1.83-1.24-3-1.24h-4.32ZM281.06,165.66v9.95h4.61c1.39,0,2.63-.58,3.51-1.46.88-.95,1.46-2.12,1.46-3.51s-.58-2.63-1.46-3.51c-.88-.95-2.05-1.46-3.51-1.46h-4.61Z"/><path class="y" d="M307.51,141.95v41.21h-7.47v-41.21h7.47ZM300.04,141.95h7.47-7.47Z"/><path class="y" d="M318.12,141.95v33.59h13.76v7.54h-13.76v.07h-7.47v-41.21h7.47ZM318.12,141.95h-7.47,7.47Z"/><path class="y" d="M341.64,141.95v41.21h-7.47v-41.21h7.47ZM334.17,141.95h7.47-7.47Z"/><path class="y" d="M352.41,141.95v.07h4.76c5.64,0,10.83,2.27,14.57,6,3.73,3.73,6,8.78,6,14.56s-2.27,10.83-6,14.57c-3.73,3.73-8.93,6-14.57,6h-12.22v-41.21h7.47ZM344.95,141.95h7.47-7.47ZM352.41,149.49v26.2h4.76c3.59,0,6.88-1.54,9.22-3.88,2.34-2.34,3.88-5.63,3.88-9.22s-1.54-6.88-3.88-9.22c-2.34-2.41-5.64-3.88-9.22-3.88h-4.76Z"/><path class="y" d="M400.38,173.79h-14.49l-4.39,9.37h-8.2l16.18-34.25,3.37-7.1,3.44,7.03,16.91,34.33h-8.2l-4.61-9.37ZM389.25,166.76h7.61l-3.88-7.98-3.73,7.98ZM392.98,158.78l-3.73,7.98,3.73-7.98Z"/><path class="y" d="M422.41,141.95v.07h4.76c5.64,0,10.83,2.27,14.57,6,3.73,3.73,6,8.78,6,14.56s-2.27,10.83-6,14.57c-3.73,3.73-8.93,6-14.57,6h-12.22v-41.21h7.47ZM414.95,141.95h7.47-7.47ZM422.41,149.49v26.2h4.76c3.59,0,6.88-1.54,9.22-3.88,2.34-2.34,3.88-5.63,3.88-9.22s-1.54-6.88-3.88-9.22c-2.34-2.41-5.64-3.88-9.22-3.88h-4.76Z"/><path class="s" d="M7.94,239.76h0c-4.32-2.68-5.66-8.41-2.98-12.73l36.17-57.69c2.68-4.32,8.41-5.66,12.73-2.98h0c4.32,2.68,5.66,8.41,2.98,12.73l-36.17,57.69c-2.68,4.32-8.41,5.66-12.73,2.98Z"/><path class="s" d="M117.87,143.95c-15.39,24.81-41.21,36.65-63.49,22.83-19.67-12.2-23.14-42.21-7.75-67.02,15.39-24.81,43.82-35.03,63.49-22.83,22.28,13.82,23.14,42.21,7.75,67.02Z"/><rect class="s" x="38.65" y="161.59" width="27.53" height="14.19" rx="7.1" ry="7.1" transform="translate(96.8 -2.29) rotate(31.82)"/><rect class="p" x="38.94" y="160.57" width="23.66" height="14.19" rx="6.58" ry="6.58" transform="translate(96.02 -1.57) rotate(31.82)"/><ellipse class="p" cx="80.86" cy="121.03" rx="52.9" ry="40.31" transform="translate(-64.62 125.93) rotate(-58.18)"/><ellipse class="y" cx="79.39" cy="120.12" rx="46.65" ry="34.56" transform="translate(-64.54 124.26) rotate(-58.18)"/><ellipse class="t" cx="80.27" cy="120.54" rx="45.27" ry="33.59" transform="translate(-64.48 125.2) rotate(-58.18)"/><path class="aa" d="M66.63,157.88c-14.24-8.83-16.13-31.55-4.23-50.73,9.22-14.87,24.01-23.21,36.83-22.12-14.05-5.78-32.97,2.7-43.97,20.43-11.9,19.19-10.01,41.9,4.23,50.73,3.21,1.99,6.77,3.06,10.5,3.38-1.15-.47-2.28-1.01-3.36-1.68Z"/><path class="p" d="M6.66,238.97h0c-3.62-2.24-4.74-7.04-2.5-10.66l37.76-60.25c2.24-3.62,7.04-4.74,10.66-2.5h0c3.62,2.24,4.74,7.04,2.5,10.66l-37.76,60.25c-2.24,3.62-7.04,4.74-10.66,2.5Z"/><path class="z" d="M6.03,231h0c-.45-.28-.59-.88-.31-1.33l36.32-57.93c.28-.45.88-.59,1.33-.31h0c.45.28.59.88.31,1.33L7.36,230.69c-.28.45-.88.59-1.33.31Z"/><rect class="z" x="40.83" y="161.61" width="5.64" height="3.99" rx="2" ry="2" transform="translate(205.69 212.77) rotate(121.82)"/><g class="f"><g class="x"><path class="y" d="M91.5,95.03v.25h11.92c12.67,0,24.1,4.72,32.55,13.41,8.44,8.94,13.66,19.87,13.66,32.55s-4.97,23.84-13.66,32.54c-8.7,8.71-19.88,13.66-32.55,13.66h-19.07v47.47h-18.2V95.03h25.34ZM66.16,95.03h25.34-25.34ZM84.36,113.07v56.15h22.66c6.79,0,12.7-2.7,17.42-8.13,4.73-5.41,7.09-12.18,7.09-19.95s-2.36-14.22-7.09-19.97c-4.72-5.41-10.63-8.11-17.42-8.11h-22.66Z"/></g></g><path class="v" d="M510.03,186.11s8.83.42,19.29-5.37l-13.26-12.33s-10.03,12.67-6.03,17.69Z"/><path class="t" d="M436.88,92.85s-4.38,4.58-4.68,12.61l4.94,1.53,9.43-5.07s1.49-3.96.99-5.79-10.69-3.27-10.69-3.27Z"/><path class="v" d="M543.18,63.31s7.45,2.56,11.32,7.92l-3.8,6.89s-7.25,1.41-7.75,1.24-3.52-6.05-3.52-6.05l3.74-10Z"/><polygon class="t" points="479.19 102.87 516.09 91.31 503.7 124.35 479.19 102.87"/><path class="p" d="M439.82,98.21l44.3,4.98c8.6.97,15.75,7.06,18.07,15.4l16.06,57.71c1.64,5.89-3.85,11.27-9.71,9.52l-42.25-12.66c-4.94-1.48-8.94-5.13-10.88-9.91l-22.61-55.8c-1.92-4.74,1.93-9.81,7.01-9.24Z"/><path class="i" d="M451.56,153.74l3.86,9.52c1.94,4.78,5.94,8.43,10.88,9.91l42.25,12.66c5.86,1.76,11.35-3.63,9.71-9.52l-16.06-57.71c-1.85-6.66-6.81-11.83-13.1-14.16-3.91,9.8-6.31,20.87-6.81,33.41.67,9.05-15.66,14.15-30.72,15.89Z"/><path class="y" d="M543.73,69.95l-33.18,25.48c-7.37,5.66-10.56,15.23-8.07,24.18l15.46,55.53c1.78,6.39,9.91,8.32,14.37,3.4l29.64-32.68c2.95-3.25,4.26-7.67,3.57-12l-9.4-58.99c-.92-5.81-7.72-8.51-12.38-4.93Z"/><path class="m" d="M554.42,134.28c-4.13,10.59-7.79-2.55-16.18-7.29-7.18-.36-11.31,10.22-18.49,9.86-19.95-3.88-.13-25.91-10.36-37.22-1.54-1.49-2.97-1.7-5.6,4.25-2.24,4.82-2.8,10.38-1.31,15.72l15.46,55.53c1.78,6.39,9.91,8.32,14.37,3.4l29.64-32.68c2.95-3.25,4.26-7.67,3.57-12l-3.12-19.57c-1.42,6.8-3.87,13.47-7.97,19.98Z"/><path class="n" d="M439.16,98.17l46.49,5.41c8.02.89,16.08-1.34,22.5-6.23l37.1-28.4c.61-3.34.08-6.29-5.52-6.1l-47.74-2.8c-4-.15-7.95.95-11.31,3.15l-42.13,27.97c-4.17,3.15-2.95,6.01.61,7.01Z"/><path class="h" d="M502.94,84.92c-10.09,14.6-31.26,6.34-48.17,13.41-.63.57-1.11.93-1.86,1.45l32.75,3.81c8.02.89,16.08-1.34,22.5-6.23l37.1-28.4c.61-3.34.08-6.29-5.52-6.1l-25.24-1.48c-3.6,8.32-5.99,17.09-11.56,23.55Z"/><ellipse class="t" cx="456.26" cy="124.33" rx="7.81" ry="11.05" transform="translate(14.86 294.02) rotate(-36.27)"/><ellipse class="g" cx="457.28" cy="124.04" rx="6.05" ry="8.56" transform="translate(15.22 294.57) rotate(-36.27)"/><ellipse class="t" cx="490.04" cy="78.11" rx="10.95" ry="7.74" transform="translate(-3 134.25) rotate(-15.55)"/><ellipse class="g" cx="490.27" cy="78.95" rx="9.29" ry="6.28" transform="translate(-3.22 134.35) rotate(-15.55)"/><ellipse class="t" cx="491.84" cy="157.85" rx="7.43" ry="10.51" transform="translate(1.92 321.56) rotate(-36.27)"/><ellipse class="t" cx="522.68" cy="115.94" rx="5.98" ry="8.45" transform="translate(-8.34 47.71) rotate(-5.18)"/><ellipse class="g" cx="522.02" cy="115.27" rx="4.77" ry="6.75" transform="translate(-8.28 47.65) rotate(-5.18)"/><ellipse class="t" cx="544.91" cy="95.93" rx="5.98" ry="8.45" transform="translate(-6.44 49.64) rotate(-5.18)"/><ellipse class="t" cx="532.38" cy="148.06" rx="5.98" ry="8.45" transform="translate(-11.2 48.72) rotate(-5.18)"/><ellipse class="t" cx="552.74" cy="128.44" rx="5.98" ry="8.45" transform="translate(-9.35 50.48) rotate(-5.18)"/><ellipse class="g" cx="492.59" cy="157.3" rx="6.05" ry="8.56" transform="translate(2.39 321.9) rotate(-36.27)"/><ellipse class="g" cx="544.22" cy="95.39" rx="4.77" ry="6.75" transform="translate(-6.39 49.57) rotate(-5.18)"/><ellipse class="g" cx="531.49" cy="147.6" rx="4.77" ry="6.75" transform="translate(-11.16 48.63) rotate(-5.18)"/><ellipse class="g" cx="551.92" cy="127.72" rx="4.77" ry="6.75" transform="translate(-9.28 50.4) rotate(-5.18)"/><path class="j" d="M444.39,98.24l-5.44-.82s-5.72-1.17,1.76-6.92l41.31-27.18s3.86-3.32,11.28-2.63c0,0-38.94,22.55-48.92,37.55Z"/><path class="j" d="M484.44,104.2l-45.54-4.82s-6.85.66-5.01,7.99l16.52,42.25s-28.12-53.58,34.03-45.42Z"/><path class="y" d="M578.34,75.12l-9.37-.9.41-3.11-3.89,1.18c-1.58.48-2.73,1.84-2.95,3.47l-.82,6.22-.44,3.34c-.26,1.93,1.1,3.7,3.03,3.96l1.9.25,7.55,1c1.55.21,3.1-.41,4.09-1.62l2.71-3.31-6.73-2.21,4.51-8.27Z"/><path class="y" d="M598.68,15.76c-4.59-6-11.29-10.12-19.31-11.18-7.11-.94-13.81.79-19.69,4.48-4.63,3.01-8.16,7.03-10.43,11.99-1.01,2.2.21,4.79,2.53,5.45l9.47,2.71c.87.25,1.81.01,2.46-.61l3.39-3.28-2.94.9c1.01-1.61,2.38-3,4.12-4.18,2.7-1.8,5.72-2.48,9.05-2.03,3.63.48,6.63,2.26,8.86,5.18,2.1,2.74,3.17,6.27,2.69,9.9-.5,3.78-2.28,6.78-5.2,9.01-2.91,2.23-3.09,2.23-6.88,1.73l-2.55-1.96-2.52.04-3.3,1c-1.43.43-2.47,1.66-2.67,3.14l-.72,5.44-.19,1.44-1.26,9.55c-.24,1.79,1.02,3.43,2.81,3.66l1.06.14,8.89,1.18c1.4.19,2.8-.36,3.71-1.44l2.72-3.23-5.63-1.57,2.45-1.03c5.17-.7,9.75-2.71,13.69-5.73,6-4.59,10.12-11.29,11.18-19.31,1.04-7.87-1.19-15.4-5.79-21.4Z"/><path class="n" d="M556.33,23.98c-2.48-.71-3.8-3.48-2.7-5.82,2.28-4.84,5.76-8.76,10.31-11.72,5.88-3.69,12.57-5.42,19.69-4.48,8.02,1.06,14.71,5.18,19.31,11.18,4.59,6,6.83,13.53,5.79,21.4s-5.18,14.71-11.18,19.31c-3.2,2.45-6.82,4.24-10.83,5.2-1.72.41-3.03,1.81-3.26,3.56l-.05.35c-.31,2.32-2.43,3.94-4.75,3.64l-7.05-.93c-2.32-.31-3.94-2.43-3.64-4.75l1.33-10.03.49-3.68c.31-2.32,2.43-3.94,4.75-3.64l3.52.47c3.78.5,6.97-.31,9.88-2.54,2.91-2.23,4.7-5.23,5.2-9.01.48-3.63-.59-7.16-2.69-9.9-2.23-2.91-5.23-4.7-8.86-5.18-3.33-.44-6.34.24-9.05,2.03-1.86,1.25-3.31,2.75-4.33,4.5s-2.97,2.59-4.87,2.04l-7.01-2.01ZM565.63,82.01l.97-7.35c.31-2.32,2.43-3.94,4.75-3.64l7.05.93c2.32.31,3.94,2.43,3.64,4.75l-.97,7.35c-.31,2.32-2.43,3.94-4.75,3.64l-7.05-.93c-2.32-.31-3.94-2.43-3.64-4.75Z"/><path class="j" d="M559.99,23.86l-3.84-1.12c-1.71-.5-2.57-2.37-1.89-4.01,2.3-5.51,9.37-16.25,29.5-15.71,0,0-20.95.11-23.77,20.84Z"/><path class="j" d="M568.5,64.29l2.69-20.34,8.3,1.1s8.84,1.06,13.13-7.45c0,0-1.71,10.54-15.78,9.1,0,0-4.17-.45-8.35,17.59Z"/><path class="j" d="M581.06,73.13l-12.97-1.72-1.8,13.6s.63-13.54,14.77-11.88Z"/></g></g></g></svg>