<?xml version="1.0" encoding="UTF-8"?><svg xmlns="http://www.w3.org/2000/svg" xmlns:xlink="http://www.w3.org/1999/xlink" viewBox="0 0 2906.68 668.23"><defs><style>.f{fill:#b9e9f9;}.g{fill:#7dbbc9;}.h{fill:#719aaf;}.i{fill:#71aec6;}.j{fill:#5398ad;}.k{isolation:isolate;}.l{fill:#497d89;}.m{fill:#5c859e;}.n{fill:url(#e);mix-blend-mode:multiply;opacity:.35;}.o{fill:#5d899b;}</style><linearGradient id="e" x1="1462" y1="409.44" x2="1459" y2="642.02" gradientUnits="userSpaceOnUse"><stop offset="0" stop-color="#91c9da"/><stop offset="1" stop-color="#6eacbf"/></linearGradient></defs><g class="k"><g id="b"><g id="c"><path class="j" d="M726.49,44.47c3.96,4.38,6.31,17.15,7.04,17.78.66.58,8.54,1.63,10.54,3.41l-4.63,2.3c7.86,5.33,13.51,14.37,13.93,24.03-2.61,3-23.89-21.75-25.57-21.66-1.25.06-1.7,4.36-3.38,4.73-6.87,1.49-13.37-5.77-8.28-11.84l7.78.12c-3.91-8.89-9.07-17.53-10.83-27.13,1.02-1.06,12.25,7,13.4,8.28Z"/><path class="j" d="M2601.72,191.26c11.02-5.4,20.46-14.89,33.5-12.58l-3.34,4.18c10,2.99,16.44,2.18,23.45-5.86l-8.36-4.16c13.44-3.42,22.45-.18,35.11,2.59,1.72.38,5.46,2.24,5.1-.91-8.71-2.62-14.68-9.42-24.32-10.12s-18.38,4.75-26.78,5.91c-3.4.47-8.41-1.64-13.34-.75-5.55,1-23.73,18.81-21.01,21.71Z"/><path class="j" d="M625.99,136.43l17.86,24.78c3.1,2.54,14.98,1.78,11.88,7.49l12.13,6.45c-8.52,2.19-20.05-4.58-27.33-4.6-3.45,0-4.84,2.44-7.62,2.99-12.79,2.54-13.58-9.69-.7-7.68-3.68-9.49-11.29-17.76-9.3-28.66l3.08-.77Z"/><path class="j" d="M2498.37.14c-4.89,6.62,11.1,30.48,10.06,31.81-.31.4-8.33,1.36-8.39,5.04,2.29.45,11.14-.6,11.72.02,1.04,1.09,2.2,24.87,11.72,26.81l-1.67-28.5,8.38-.82c-3.38-9.75-9.38-2.68-11.6-4.28-.49-.35-3.38-8.67-4.87-11.1-2.92-4.76-6.57-10.91-9.97-15.17-1.58-1.98-1.9-4.59-5.39-3.81Z"/><path class="j" d="M1574.98,66.25c-.28,2.15-2.34,3.13-4.29,3.37-6.06.73-16.15-2.9-24.93-1.61-5.7.84-24.3,10.39-26.8,9.87s-3.04-4.35-2.64-6.61l7.58-3.37-24.32-10.03c7.71.61,14.71-2.87,22.53-1.6,5.49.89,8.65,6.13,13.64,6.61,6.03.58,15.05-2.6,23.33-1.68,5.94.66,10.35,3.6,15.91,5.05Z"/><path class="j" d="M616.99,78.63c1.39.89,7.49.82,11.24,2.95,1.27.72,10.92,8.22,9.41,9.67-8.57-2.12-16.83-10.61-26.22-8.37-4.22,1-7.26,7.12-11.96-.23,5.5-1.31,7.59-2.1,3.7-6.8l-18.48-11.68c6.09.35,16.14,1.62,20.85,5.62,1.66,1.41,2.6,4.46,4.36,5.61s2.75.43,7.1,3.24Z"/><path class="j" d="M1522.58,103.06c.71,4.18-1.01,2.31-3.32,3.02-7.47,2.3-23.57,3.05-27,10.21-2.59,5.41.84,8.77-9.63,8.17l2.85-8.54c-10.45-3.15-19.73-.5-29.98,1.4,3.13-3.72,15.13-9.18,19.65-9.72s10.64,2.91,12.4,2.45c1.85-.49,1.67-4.07,3.06-4.17,1.05-.08,3.01,1.53,5.27,1.21,2.62-.37,5.36-3.36,8.97-3.94,5.46-.88,12.11.43,17.75-.08Z"/><path class="j" d="M830.84,54.08c2.64-.69,1.89.64,2.57,1.43,3.52,4.05,5.86,8.06,5.22,13.63-.27,2.36-2.67,6.08-2.12,7.85.83,2.64,5.96.94,6.68,4.05-7.68,3.83-14.31,2.67-22.47,2.25l6.74-2.25-6.74-3.35c2.15-.29,6.29.69,7.94-.49.37-.27,2.17-6.33,2.17-6.82v-16.3Z"/><path class="j" d="M2748.51,77.35c-1.78-.26-6.86-3.32-9.21-4.18,15.09-5.06,4.63-14.62,7.09-26.44,1.01-4.85,5.21-9.7,8.83-12.92l4.18,35.17h11.73c-.77,4.46-10.1-1.82-8.38,5.01l10.06,3.36c-7.63-.77-16.94,1.06-24.3,0Z"/><path class="j" d="M1317.52,164.09c.25,1.86-2.39,1.04-3.54.92-6.42-.71-12.67-3.18-19.6-1.98l2.08,3.68c-1.69,3.15-5.92.73-6.74-1.53-.38-1.05.53-2.48.24-3.49-1.49-5.17-16.84-6.37-19.79-11.27,3.7.21,9.26.35,12.66,1.53s8.83,6.35,13.22,6.87c2.87.34,4.86-1.42,8.89-.61,4.63.93,7.85,5.18,12.58,5.89Z"/><path class="j" d="M1642.84,103.45c-.82,2.31-6.38,4.27-8.66,5.19-5.08,2.05-31.88,10.65-33.63,13-.46.61,1.28,11.7-5.86,12.8l-.82-4.9-6.51,1.64,3.25-8.15c-12.13,1.14-23.02-4.92-34.26-8.19-.38-2.91,3.68-1.59,5.5-1.42,10.2.96,29.66,4.77,38.93,2.76,3.56-.77,7.25-4.02,11.39-5.08,10.22-2.61,20.69-4.11,30.68-7.66Z"/><path class="j" d="M1359.52,143.78c-3.48.46-8.48,2.01-6.85,6.32-8.84-.72-3.93-3.96-6.24-7.95s-11.8-8.5-15.77-11.62c-.44-.35-3.05-2.04-1.66-2.55,9.04,1.4,14.03,9.74,19.98,13.69,5.78,3.85,7.62.05,12.89-.8,6.14-.98,11.08,1.05,17.11.81.42,1.12-3.47,2.09-3.68,2.09-4.8,0-11.31-.59-15.79,0Z"/><path class="j" d="M1265.35,119.33l-19.92,10.05c-4.44,2.43,1.58,6.86-4.88,6.77-2.67-.04-2.28-3.02-3.59-4.75-4.43-5.88-17.58-4.1-23.17-8.4,3.53.23,8.57.08,11.85.78,4.68.99,10.86,5.26,14.96,5.09,4.56-.19,8.24-5.42,12.87-7.23,3.57-1.39,8.06-1.98,11.88-2.31Z"/></g><g id="d"><path class="m" d="M1741.21,522.02s354.13-199.29,365.09-220.27c10.96-20.98,113.53-9.32,142.27-43.51,28.75-34.19,163.94,53.61,229.21,84.69,65.27,31.08,148.4-27.19,148.4-27.19l103.34,4.86,177.15-84.11v431.74h-1240.83l75.37-146.21Z"/><path class="h" d="M923.57,399.28s125.77-26.67,157.81-27.52c32.04-.85,88.93-14.8,100.89-26.86,11.96-12.06,179.78-65.23,188.33-65.45s111.54-12.65,133.47-29.75,104.29,29.75,104.29,29.75c0,0,167.05,85.21,197.35,83.29s72.58,6.39,72.58,6.39l366.41,295.45H810.15s-.29-238.46,113.41-265.28Z"/><path class="m" d="M2.59,387.22s316.47-84.25,345.36-107.78c0,0,23.45-8.77,30.44-6.44,6.99,2.33,12.43-10.1,33.41-19.42s75.37-24.86,83.91-27.19,21.76,10.88,67.6,34.19c45.84,23.31,81.26,72.28,163,75.37s201.4,51.28,201.4,51.28l400.89,233.09,54.42,24.24H0l2.59-257.34Z"/><polygon class="n" points="1335.43 643.9 1335.43 372.98 1405.7 326.45 1585.95 337.07 1585.95 649.04 1335.43 643.9"/><polygon class="o" points="880.32 643.9 880.32 408.38 1105.73 361.85 1285.98 359.61 1285.98 649.04 880.32 643.9"/><polygon class="j" points="666.75 369.97 807.11 354.59 897 369.97 897 629.54 666.75 629.54 666.75 371.33 666.75 369.97"/><polygon class="i" points="754.19 369.12 741.97 370.56 741.97 535.82 754.19 535.46 754.19 369.12"/><polygon class="i" points="698.57 537.12 710.2 536.77 710.2 374.29 698.57 375.66 698.57 537.12"/><polygon class="i" points="731.73 371.76 720.9 373.04 720.9 536.45 731.73 536.13 731.73 371.76"/><polygon class="i" points="785.97 365.38 785.97 534.51 800.78 534.07 800.78 363.64 785.97 365.38"/><polygon class="i" points="775.73 366.58 764.9 367.86 764.9 535.14 775.73 534.81 775.73 366.58"/><polygon class="i" points="687.87 376.92 675.82 378.34 675.82 537.8 687.87 537.44 687.87 376.92"/><polygon class="g" points="1865.93 637.99 1566.84 631.02 1566.84 464.83 1865.93 450.24 1937.1 457.17 1937.1 639.81 1865.93 637.99"/><polygon class="f" points="1036.75 453.16 1008.5 454.03 1008.5 472.84 1036.75 472.2 1036.75 453.16"/><polygon class="f" points="1081.37 451.79 1049.21 452.78 1049.21 471.92 1081.37 471.2 1081.37 451.79"/><polygon class="f" points="1127.58 450.37 1093.84 451.41 1093.84 470.91 1127.58 470.15 1127.58 450.37"/><polygon class="f" points="936.03 474.48 958.93 473.96 958.93 455.55 936.03 456.26 936.03 474.48"/><polygon class="f" points="996.04 454.41 971.39 455.17 971.39 473.68 996.04 473.12 996.04 454.41"/><polygon class="f" points="1220.65 447.51 1220.65 468.05 1246.3 467.47 1246.3 446.72 1220.65 447.51"/><polygon class="f" points="923.57 456.64 896.29 457.48 896.29 475.37 923.57 474.76 923.57 456.64"/><polygon class="f" points="1169.8 449.07 1140.04 449.99 1140.04 469.87 1169.8 469.2 1169.8 449.07"/><polygon class="f" points="1208.18 447.89 1182.26 448.69 1182.26 468.92 1208.18 468.33 1208.18 447.89"/><polygon class="f" points="936.03 441.72 958.93 440.95 958.93 424.8 936.03 425.96 936.03 441.72"/><polygon class="f" points="1036.75 420.87 1008.5 422.3 1008.5 439.27 1036.75 438.31 1036.75 420.87"/><polygon class="f" points="1081.37 418.62 1049.21 420.24 1049.21 437.89 1081.37 436.8 1081.37 418.62"/><polygon class="f" points="996.04 422.93 971.39 424.17 971.39 440.53 996.04 439.69 996.04 422.93"/><polygon class="f" points="923.57 426.59 896.29 427.96 896.29 443.07 923.57 442.15 923.57 426.59"/><polygon class="f" points="1220.65 411.59 1220.65 432.08 1246.3 431.22 1246.3 410.3 1220.65 411.59"/><polygon class="f" points="1127.58 416.29 1093.84 417.99 1093.84 436.38 1127.58 435.24 1127.58 416.29"/><polygon class="f" points="1208.18 412.22 1182.26 413.53 1182.26 433.38 1208.18 432.51 1208.18 412.22"/><polygon class="f" points="1169.8 414.16 1140.04 415.66 1140.04 434.81 1169.8 433.81 1169.8 414.16"/><polygon class="g" points="2106.3 656.9 2106.3 384.69 2264.89 332.07 2445.15 372.81 2445.15 664.57 2106.3 656.9"/><polygon class="j" points="2260.13 504.31 2121.63 512.43 2121.8 539.73 2260.13 533.46 2260.13 504.31"/><polygon class="j" points="2260.13 377.82 2260.13 350.26 2120.92 394.06 2121.06 417.6 2260.13 377.82"/><polygon class="j" points="2121.29 454.64 2260.13 427.84 2260.13 399.28 2121.14 430.87 2121.29 454.64"/><polygon class="j" points="2121.89 559.08 2122.19 589.21 2260.13 589.21 2260.13 556.11 2121.89 559.08"/><polygon class="j" points="2121.38 470.83 2121.54 497.23 2260.13 481.74 2260.13 451.23 2121.38 470.83"/><path class="l" d="M1711.22,647.38v-284.16s-3.08-26.94-26.91-30.04c-23.83-3.11-31.77,7.6-31.77,7.6v6.91s-18.65,11.05-41.09,0v-11.4s16.58-10.36,37.99.35c0,0,9.67-11.74,34.53-10.01,24.86,1.73,36.26,26.59,36.26,34.88v286.22l-9.01-.34Z"/><path class="l" d="M810.15,629.54v-238.23s6.22-15.31,22.45-15.31,21.06,6.56,21.06,6.56c0,0,20.55-.78,22.88,4.22v7.13s-25.55,6.17-33.19,0v-7.13s.65-2.14,5.83-2.14c0,0-5.18-6.91-17.96-4.14s-12.78,15.93-12.78,15.93v233.12h-8.29Z"/><path class="j" d="M1387.05,485.05c6.56-15.44-21.61-18.91-21.61-18.91.77-27.79-35.89-18.53-35.89-18.53,3.09-25.86-32.42-17.91-32.42-17.91-11.96-10.57-21.23,11-21.23,11-28.18-17.72-21.36.73-21.36.73-34.87-5.02-41.94,17.37-41.94,17.37-23.93,9.65-4.63,28.95-4.63,28.95-5.4,19.68,22.77,13.51,22.77,13.51,3.47,14.67,23.8,5.79,23.8,5.79l6.69,16.21,21.03,9.65,7.14,31.26-14.28,74.22c6.94,8.22,27.79,3.36,27.79,3.36l3.86-76.81,20.07-35.89c13.51,8.88,30.88-7.72,30.88-7.72,14.67,4.25,25.86-13.89,25.86-13.89,18.14-8.49,3.47-22.39,3.47-22.39ZM1265.08,519.01l-3.86-14.28h10.23l10.23,21.23-16.6-6.95ZM1304.84,556.45l2.32-37.44,14.28,6.95s-16.21,29.33-16.6,30.49Z"/><path class="j" d="M2004.23,453.01c-1.04-32.12-43.51-12.78-43.51-12.78-4.49-23.48-19.34-6.34-19.34-6.34-19.68-40.53-48.69-12.65-48.69-12.65-32.81-23.14-55.94,9.32-55.94,9.32-45.24.69-21.06,28.32-21.06,28.32-27.28.69-9.67,35.22-9.67,35.22-10.36,14.85,21.41,15.88,21.41,15.88,3.45,13.47,30.39,8.63,30.39,8.63l13.81,24.09,25.21,15.96,17.25,96.19c20.35,6.75,34.9.78,34.9.78l-22.45-69.34,13.12-14.85,26.24-43.51c24.17,5.18,27.63-14.11,27.63-14.11,27.28-2.37,15.19-30.44,15.19-30.44,32.81-36.26-4.49-30.39-4.49-30.39ZM1863.34,516.89s12.09,7.6,16.23,0l-7.25,16.58-8.98-16.58ZM1894.77,550.04l-18.3-11.05,13.47-22.1s4.49,11.74,13.12,9.67l-8.29,23.48ZM1918.16,572.98l-10.96-17.41,2.07-26.24s6.22,8.63,15.54,4.14l-5.87,40.75-.78-1.24ZM1937.93,563.86l-14.5,15.54,8.63-22.45-2.07-23.48c5.18-1.38,6.91-10.01,6.91-10.01,11.4,4.49,19.34,1.73,19.34,1.73l-18.3,38.68Z"/><polygon class="g" points="363.13 595.75 363.13 330.69 208.7 279.44 33.18 319.12 33.18 603.21 363.13 595.75"/><polygon class="j" points="213.34 447.17 348.2 455.07 348.04 481.66 213.34 475.55 213.34 447.17"/><polygon class="j" points="213.34 324 213.34 297.16 348.9 339.81 348.76 362.73 213.34 324"/><polygon class="j" points="348.54 398.8 213.34 372.7 213.34 344.9 348.68 375.66 348.54 398.8"/><polygon class="j" points="347.95 500.49 347.66 529.83 213.34 529.83 213.34 497.6 347.95 500.49"/><polygon class="j" points="348.44 414.57 348.29 440.27 213.34 425.19 213.34 395.48 348.44 414.57"/><path class="j" d="M508.48,485.05c6.56-15.44-21.61-18.91-21.61-18.91.77-27.79-35.89-18.53-35.89-18.53,3.09-25.86-32.42-17.91-32.42-17.91-11.96-10.57-21.23,11-21.23,11-28.18-17.72-21.36.73-21.36.73-34.87-5.02-41.94,17.37-41.94,17.37-23.93,9.65-4.63,28.95-4.63,28.95-5.4,19.68,22.77,13.51,22.77,13.51,3.47,14.67,23.8,5.79,23.8,5.79l6.69,16.21,21.03,9.65,7.14,31.26-14.28,74.22c6.94,8.22,27.79,3.36,27.79,3.36l3.86-76.81,20.07-35.89c13.51,8.88,30.88-7.72,30.88-7.72,14.67,4.25,25.86-13.89,25.86-13.89,18.14-8.49,3.47-22.39,3.47-22.39ZM386.51,519.01l-3.86-14.28h10.23l10.23,21.23-16.6-6.95ZM426.26,556.45l2.32-37.44,14.28,6.95s-16.21,29.33-16.6,30.49Z"/></g></g></g></svg>