<?xml version="1.0" encoding="UTF-8"?><svg id="b" xmlns="http://www.w3.org/2000/svg" viewBox="0 0 95.8 143.16"><defs><style>.e{fill:#fff;}</style></defs><g id="c"><path id="d" class="e" d="M18.62,90.07l7.92-34.41c2.32,1.12,4.75,1.99,7.25,2.6,5.58,1.31,11.42.93,16.78-1.09,5.51-2.03,8.89-5.77,10.14-11.21.87-3.49.31-7.18-1.56-10.26-1.79-3.1-4.82-5.3-8.32-6.03-3.9-.9-7.23-.36-9.99,1.62-2.76,1.98-4.6,4.98-5.53,9L0,32.18C3.08,19.32,10.24,10.26,21.48,5,32.71-.27,44.95-1.37,58.2,1.68c12.18,2.8,21.68,8.85,28.51,18.14,3.76,4.88,6.44,10.49,7.88,16.48,1.51,5.8,1.62,11.87.31,17.72-2.2,9.58-6.97,16.92-14.31,22.01-7.34,5.1-16.21,8.07-26.61,8.91l-2.9,12.59-32.46-7.47ZM40.39,139.9c-4.77,3.07-10.61,4.02-16.11,2.64-5.55-1.17-10.38-4.57-13.33-9.42-3.07-4.78-4.02-10.61-2.65-16.11,1.19-5.51,4.59-10.3,9.4-13.24,4.76-3.12,10.61-4.11,16.13-2.73,5.57,1.17,10.4,4.62,13.31,9.51,3.04,4.75,4,10.54,2.66,16.02-1.16,5.55-4.57,10.38-9.42,13.33"/></g></svg>