<?xml version="1.0" encoding="utf-8"?>
<!-- Generator: Adobe Illustrator 26.2.1, SVG Export Plug-In . SVG Version: 6.00 Build 0)  -->
<svg version="1.1" id="Layer_1" xmlns="http://www.w3.org/2000/svg" xmlns:xlink="http://www.w3.org/1999/xlink" x="0px" y="0px"
	 viewBox="0 0 99.1 142.76" style="enable-background:new 0 0 99.1 142.76;" xml:space="preserve">
<style type="text/css">
	.st0{fill:#0D3996;}
</style>
<g>
	<path class="st0" d="M2.58,135.58v4.94c0,0.87,0.26,1.05,0.63,1.05c0.61,0,0.67-0.4,0.68-0.95v-5.04h0.89v4.78
		c0,0.89,0.01,2.05-1.55,2.05c-1.42,0-1.55-0.97-1.55-2.18v-4.65H2.58z"/>
	<polygon class="st0" points="6.62,137.58 6.76,139.84 6.76,142.32 5.86,142.32 5.86,135.58 6.72,135.58 8.29,140.7 8.31,140.68 
		8.1,137.98 8.1,135.58 8.99,135.58 8.99,142.32 8.16,142.32 6.59,137.13 6.57,137.14 	"/>
	<rect x="10.08" y="135.58" class="st0" width="0.9" height="6.74"/>
	<polygon class="st0" points="12.48,135.58 13.24,140.65 13.27,140.65 13.31,140.23 13.67,137.96 14.08,135.58 14.93,135.58 
		13.6,142.32 12.89,142.32 11.58,135.58 	"/>
	<polygon class="st0" points="17.93,135.58 17.93,136.35 16.42,136.35 16.42,138.48 17.77,138.48 17.77,139.25 16.42,139.25 
		16.42,141.54 17.93,141.54 17.93,142.32 15.53,142.32 15.53,135.58 	"/>
	<path class="st0" d="M20.42,137.5c0-0.64-0.08-1.18-0.76-1.16h-0.14v2.23C20.2,138.61,20.42,138.18,20.42,137.5z M18.63,135.58
		h1.07c0.66,0,1.68,0.04,1.68,1.72c0,0.64-0.19,1.6-0.93,1.73l1.24,3.28h-0.93l-1.22-3.3h-0.01v3.3h-0.9V135.58z"/>
	<path class="st0" d="M24.42,136.61c-0.23-0.17-0.45-0.28-0.76-0.28c-0.49,0-0.8,0.4-0.8,0.87c0,0.29,0.07,0.5,0.25,0.73l0.68,0.74
		c0.61,0.62,0.96,1.06,0.96,1.98c0,0.95-0.59,1.76-1.58,1.76c-0.35,0-0.71-0.1-0.98-0.32v-0.91c0.27,0.2,0.54,0.35,0.89,0.35
		c0.55,0,0.79-0.44,0.79-0.94c0-1.34-1.89-1.61-1.89-3.38c0-0.95,0.5-1.73,1.51-1.73c0.34,0,0.66,0.06,0.95,0.23L24.42,136.61z"/>
	<rect x="25.51" y="135.58" class="st0" width="0.89" height="6.74"/>
	<path class="st0" d="M28.39,136.34v5.22c1.47,0.04,1.41-1.35,1.41-2.49C29.8,138.03,29.9,136.25,28.39,136.34z M28.5,135.58
		c1.06,0,2.25,0.07,2.25,3.49c0,3.11-1.03,3.25-2.63,3.25H27.5v-6.74H28.5z"/>
	<path class="st0" d="M33.31,139.33l-0.34-2.45h-0.02l-0.53,3.42h1.07L33.31,139.33z M33.33,135.58l1.45,6.74h-0.9l-0.25-1.31h-1.34
		l-0.25,1.31h-0.87l1.46-6.74H33.33z"/>
	<path class="st0" d="M36.26,136.34v5.22c1.47,0.04,1.41-1.35,1.41-2.49C37.67,138.03,37.77,136.25,36.26,136.34z M36.37,135.58
		c1.05,0,2.25,0.07,2.25,3.49c0,3.11-1.03,3.25-2.64,3.25h-0.61v-6.74H36.37z"/>
	<polygon class="st0" points="43.77,135.58 43.77,136.35 42.26,136.35 42.26,138.48 43.61,138.48 43.61,139.25 42.26,139.25 
		42.26,141.54 43.77,141.54 43.77,142.32 41.36,142.32 41.36,135.58 	"/>
	<path class="st0" d="M46.54,136.61c-0.23-0.17-0.46-0.28-0.76-0.28c-0.49,0-0.8,0.4-0.8,0.87c0,0.29,0.08,0.5,0.25,0.73l0.68,0.74
		c0.61,0.62,0.95,1.06,0.95,1.98c0,0.95-0.59,1.76-1.58,1.76c-0.35,0-0.7-0.1-0.98-0.32v-0.91c0.27,0.2,0.54,0.35,0.88,0.35
		c0.55,0,0.78-0.44,0.78-0.94c0-1.34-1.89-1.61-1.89-3.38c0-0.95,0.5-1.73,1.51-1.73c0.34,0,0.66,0.06,0.95,0.23L46.54,136.61z"/>
	<polygon class="st0" points="50.01,135.58 50.01,136.35 49,136.35 49,142.32 48.1,142.32 48.1,136.35 47.05,136.35 47.05,135.58 	
		"/>
	<path class="st0" d="M51.83,139.33l-0.34-2.45h-0.02l-0.54,3.42h1.07L51.83,139.33z M51.85,135.58l1.45,6.74h-0.9l-0.25-1.31h-1.34
		l-0.25,1.31h-0.87l1.46-6.74H51.85z"/>
	<polygon class="st0" points="55.94,135.58 55.94,136.35 54.93,136.35 54.93,142.32 54.03,142.32 54.03,136.35 52.98,136.35 
		52.98,135.58 	"/>
	<path class="st0" d="M57.76,139.33l-0.34-2.45h-0.02l-0.54,3.42h1.07L57.76,139.33z M57.78,135.58l1.45,6.74h-0.9l-0.25-1.31h-1.34
		l-0.25,1.31h-0.87l1.46-6.74H57.78z"/>
	<polygon class="st0" points="60.71,135.58 60.71,141.54 62.21,141.54 62.21,142.32 59.82,142.32 59.82,135.58 	"/>
	<path class="st0" d="M66.25,139.33l-0.34-2.45H65.9l-0.54,3.42h1.08L66.25,139.33z M66.28,135.58l1.45,6.74h-0.9l-0.26-1.31h-1.34
		l-0.25,1.31H64.1l1.47-6.74H66.28z"/>
	<path class="st0" d="M71.04,136.34v5.22c1.47,0.04,1.41-1.35,1.41-2.49C72.45,138.03,72.55,136.25,71.04,136.34z M71.15,135.58
		c1.05,0,2.25,0.07,2.25,3.49c0,3.11-1.04,3.25-2.64,3.25h-0.62v-6.74H71.15z"/>
	<rect x="74.31" y="135.58" class="st0" width="0.89" height="6.74"/>
	<path class="st0" d="M78.37,136.61c-0.23-0.17-0.45-0.28-0.76-0.28c-0.49,0-0.8,0.4-0.8,0.87c0,0.29,0.07,0.5,0.25,0.73l0.68,0.74
		c0.61,0.62,0.96,1.06,0.96,1.98c0,0.95-0.59,1.76-1.58,1.76c-0.35,0-0.71-0.1-0.98-0.32v-0.91c0.27,0.2,0.53,0.35,0.88,0.35
		c0.56,0,0.79-0.44,0.79-0.94c0-1.34-1.89-1.61-1.89-3.38c0-0.95,0.5-1.73,1.51-1.73c0.34,0,0.66,0.06,0.94,0.23L78.37,136.61z"/>
	<polygon class="st0" points="81.84,135.58 81.84,136.35 80.83,136.35 80.83,142.32 79.93,142.32 79.93,136.35 78.88,136.35 
		78.88,135.58 	"/>
	<path class="st0" d="M83.66,139.33l-0.34-2.45h-0.02l-0.54,3.42h1.07L83.66,139.33z M83.68,135.58l1.45,6.74h-0.9l-0.25-1.31h-1.35
		l-0.25,1.31h-0.88l1.47-6.74H83.68z"/>
	<polygon class="st0" points="86.48,137.58 86.61,139.84 86.61,142.32 85.72,142.32 85.72,135.58 86.58,135.58 88.15,140.7 
		88.17,140.68 87.95,137.98 87.95,135.58 88.85,135.58 88.85,142.32 88.02,142.32 86.44,137.13 86.43,137.14 	"/>
	<path class="st0" d="M92.55,136.5c-0.18-0.09-0.37-0.17-0.57-0.17c-1.25,0-1.26,1.82-1.26,2.66c0,0.9,0.07,2.58,1.3,2.58
		c0.19,0,0.37-0.05,0.54-0.13v0.78c-0.22,0.14-0.46,0.19-0.71,0.19c-1.83,0-2.07-1.94-2.07-3.35c0-1.35,0.17-3.57,2-3.57
		c0.31,0,0.52,0.05,0.78,0.2V136.5z"/>
	<rect x="93.24" y="135.58" class="st0" width="0.89" height="6.74"/>
	<path class="st0" d="M96.87,139.33l-0.34-2.45h-0.02l-0.53,3.42h1.07L96.87,139.33z M96.88,135.58l1.45,6.74h-0.9l-0.25-1.31h-1.34
		l-0.25,1.31h-0.87l1.46-6.74H96.88z"/>
	<g>
		<g>
			<path class="st0" d="M24.8,105.47v14.14c0,6.97-4.4,10.14-11.14,10.14c-6.74,0-11.14-3.17-11.14-10.14v-14.14h8.75v13.31
				c0,1.87,0.06,3.52,2.39,3.52c2.33,0,2.39-1.65,2.39-3.52v-13.31H24.8z"/>
			<path class="st0" d="M27.89,105.47h8.4l7.85,13.25h0.25c-0.35-1.99-0.73-4.06-0.73-6.09v-7.16h8.36v23.91h-8.36l-7.69-12.56
				h-0.26c0.29,1.65,0.54,3.2,0.54,4.79v7.77h-8.36V105.47z"/>
			<polygon class="st0" points="55.08,105.47 71.26,105.47 71.26,112 63.89,112 63.89,114.28 70.62,114.28 70.62,120.49 
				63.89,120.49 63.89,122.84 71.52,122.84 71.52,129.37 55.08,129.37 			"/>
			<path class="st0" d="M74.55,129.37h11.07c7.05,0,12.1-4.5,12.1-11.6c0-8.78-6.19-12.3-14.27-12.3h-8.9V129.37z M83.29,112.95
				h0.54c3.19,0,5.14,1.43,5.14,4.79c0,3.14-2.24,4.47-5.14,4.47h-0.54V112.95z"/>
			<g>
				<path class="st0" d="M49.55,68.07c10.24,0,18.54-8.3,18.54-18.54V3.99c-2.08-0.85-4.23-1.56-6.44-2.12v47.66
					c0,6.68-5.42,12.1-12.1,12.1c-6.68,0-12.1-5.42-12.1-12.1V1.87c-2.21,0.56-4.36,1.27-6.44,2.12v45.54
					C31.01,59.77,39.31,68.07,49.55,68.07z"/>
				<path class="st0" d="M49.55,57.85c4.6,0,8.33-3.73,8.33-8.32V1.08c-2.1-0.36-4.26-0.58-6.44-0.67v49.12
					c0,1.04-0.85,1.88-1.88,1.88c-1.03,0-1.88-0.84-1.88-1.88V0.41c-2.19,0.08-4.34,0.31-6.44,0.67v48.45
					C41.23,54.13,44.95,57.85,49.55,57.85z"/>
				<path class="st0" d="M49.55,78.31c15.89,0,28.78-12.89,28.78-28.78V9.67c-2.05-1.48-4.2-2.8-6.47-3.95v43.81
					c0,12.32-9.99,22.31-22.32,22.31c-12.33,0-22.32-9.99-22.32-22.31V5.72c-2.26,1.15-4.42,2.47-6.46,3.95v39.85
					C20.77,65.42,33.66,78.31,49.55,78.31z"/>
				<path class="st0" d="M49.55,88.54c21.55,0,39.02-17.47,39.02-39.02V19.62c-1.93-2.51-4.09-4.83-6.47-6.93v36.83
					c0,17.98-14.57,32.55-32.55,32.55C31.57,82.08,17,67.5,17,49.53V12.7c-2.37,2.09-4.53,4.41-6.46,6.93v29.91
					C10.54,71.07,28,88.54,49.55,88.54z"/>
				<path class="st0" d="M92.35,25.32v24.21c0,23.63-19.16,42.8-42.79,42.8c-23.64,0-42.8-19.17-42.8-42.8l-0.14-0.4V25.58
					c-3.97,7.09-6.23,15.26-6.23,23.96c0,27.16,22.02,49.18,49.17,49.18c27.16,0,49.18-22.02,49.18-49.18
					C98.73,40.73,96.4,32.47,92.35,25.32z"/>
			</g>
		</g>
	</g>
</g>
</svg>
